<?xml version="1.0"?>
<svg xmlns="http://www.w3.org/2000/svg" xmlns:xlink="http://www.w3.org/1999/xlink" xmlns:svgjs="http://svgjs.com/svgjs" version="1.1" width="512" height="512" x="0" y="0" viewBox="0 0 64 64" style="enable-background:new 0 0 512 512" xml:space="preserve" class=""><g><title xmlns="http://www.w3.org/2000/svg">Bonus-gift-present-reward-money</title><g xmlns="http://www.w3.org/2000/svg" id="Flat"><circle cx="13" cy="26" r="9" style="" fill="#fed856" data-original="#fed856" class=""/><circle cx="52" cy="26" r="9" style="" fill="#fed856" data-original="#fed856" class=""/><circle cx="33" cy="13" r="9" style="" fill="#fed856" data-original="#fed856" class=""/><rect x="21" y="40" width="34" height="21" style="" fill="#9e4bcd" data-original="#c69c6d" class=""/><rect x="36" y="40" width="5" height="21" style="" fill="#ebe3ef" data-original="#fbb03b" class=""/><polygon points="21 61 8 61 8 46 9 40 21 40 21 61" style="" fill="#c6a1db" data-original="#a67c52" class=""/><polygon points="55 40 61 46 27 46 21 40 55 40" style="" fill="#7830a1" data-original="#8c6239" class=""/><rect x="60" y="60" width="2" height="2" style="" fill="#7830a1" data-original="#8c6239" class=""/><rect x="12" y="40" width="5" height="21" style="" fill="#ebe3ef" data-original="#fbb03b" class=""/><path d="M16.639,25.4a2.84,2.84,0,0,0-2.921-.689l-2.069.689a.854.854,0,0,1-.874-1.414l.207-.207a.855.855,0,0,1,1.208,0l.1.1,1.414-1.414-.1-.1a2.847,2.847,0,0,0-3.33-.5l-.81-.81L8.05,22.464l.81.81a2.843,2.843,0,0,0,3.422,4.019l2.069-.689a.854.854,0,0,1,.874,1.414l-.207.207a.855.855,0,0,1-1.208,0l-.1-.1-1.414,1.414.1.1a2.818,2.818,0,0,0,3.33.5l.81.81,1.414-1.414-.81-.81A2.849,2.849,0,0,0,16.639,25.4Z" style="" fill="#cd9829" data-original="#cd9829" class=""/><path d="M56.95,22.464,55.536,21.05l-.81.81a2.843,2.843,0,0,0-4.019,3.422l.689,2.069a.854.854,0,0,1-1.414.874l-.207-.207a.855.855,0,0,1,0-1.208l.1-.1-1.414-1.414-.1.1a2.849,2.849,0,0,0-.5,3.33l-.81.81,1.414,1.414.81-.81a2.843,2.843,0,0,0,4.019-3.422L52.6,24.649a.854.854,0,0,1,1.414-.874l.207.207a.855.855,0,0,1,0,1.208l-.1.1,1.414,1.414.1-.1a2.849,2.849,0,0,0,.5-3.33Z" style="" fill="#cd9829" data-original="#cd9829" class=""/><path d="M34,8.145V7H32V8.145a2.844,2.844,0,0,0-.422,5.262l1.949.974A.854.854,0,0,1,33.146,16h-.292A.855.855,0,0,1,32,15.146V15H30v.146a2.849,2.849,0,0,0,2,2.709V19h2V17.855a2.844,2.844,0,0,0,.422-5.262l-1.949-.974A.854.854,0,0,1,32.854,10h.292a.855.855,0,0,1,.854.854V11h2v-.146A2.849,2.849,0,0,0,34,8.145Z" style="" fill="#cd9829" data-original="#cd9829" class=""/><rect x="31" y="25" width="2" height="12" style="" fill="#eeb83b" data-original="#eeb83b"/><path d="M37,37H35V33a4,4,0,0,1,4-4v2a2,2,0,0,0-2,2Z" style="" fill="#eeb83b" data-original="#eeb83b"/><path d="M29,37H27V31a2,2,0,0,0-2-2V27a4,4,0,0,1,4,4Z" style="" fill="#eeb83b" data-original="#eeb83b"/><path d="M19.041,14.077Q19,13.543,19,13A13.885,13.885,0,0,1,23.308,2.9l1.384,1.444A11.9,11.9,0,0,0,21,13q0,.466.035.923Z" style="" fill="#eeb83b" data-original="#eeb83b"/><rect x="4" y="5" width="2" height="2" style="" fill="#eeb83b" data-original="#eeb83b"/><rect x="11" y="10" width="2" height="2" style="" fill="#eeb83b" data-original="#eeb83b"/><rect x="3" y="37" width="2" height="2" style="" fill="#eeb83b" data-original="#eeb83b"/><rect x="60" y="37" width="2" height="2" style="" fill="#eeb83b" data-original="#eeb83b"/><rect x="46" y="4" width="2" height="2" style="" fill="#eeb83b" data-original="#eeb83b"/><rect x="56" y="11" width="2" height="2" style="" fill="#eeb83b" data-original="#eeb83b"/><polygon points="9 40 3 46 15 46 21 40 9 40" style="" fill="#7830a1" data-original="#8c6239" class=""/><rect x="2" y="60" width="56" height="2" style="" fill="#7830a1" data-original="#8c6239" class=""/><rect x="31" y="49" width="28" height="2" style="" fill="#7830a1" data-original="#8c6239" class=""/><rect x="27" y="49" width="2" height="2" style="" fill="#7830a1" data-original="#8c6239" class=""/></g></g></svg>
