<?xml version="1.0"?>
<svg xmlns="http://www.w3.org/2000/svg" xmlns:xlink="http://www.w3.org/1999/xlink" xmlns:svgjs="http://svgjs.com/svgjs" version="1.1" width="512" height="512" x="0" y="0" viewBox="0 0 64 64" style="enable-background:new 0 0 512 512" xml:space="preserve" class=""><g><g xmlns="http://www.w3.org/2000/svg" id="Icons"><g><g><path d="m34 46.35v-16.35c0-2.206 1.794-4 4-4h18v-8h-48v30c0 2.209 1.791 4 4 4h18c0-2.607 1.673-4.824 4-5.65z" fill="#f0f0f0" data-original="#f0f0f0" style="" class=""/></g><g><path d="m56 18h-48v-6c0-2.209 1.791-4 4-4h40c2.209 0 4 1.791 4 4z" fill="#64c8f0" data-original="#64c8f0" style="" class=""/></g><g><path d="m16 8h-4c-2.209 0-4 1.791-4 4v6h4v-6c0-2.209 1.791-4 4-4z" fill="#46aad2" data-original="#46aad2" style="" class=""/></g><g><path d="m12 48v-30h-4v30c0 2.209 1.791 4 4 4h4c-2.209 0-4-1.791-4-4z" fill="#d2d2d2" data-original="#d2d2d2" style="" class=""/></g><g><path d="m22 12c-1.105 0-2-.895-2-2v-4c0-1.105.895-2 2-2 1.105 0 2 .895 2 2v4c0 1.105-.895 2-2 2z" fill="#fa6450" data-original="#fa6450" style="" class=""/></g><g><path d="m32 12c-1.105 0-2-.895-2-2v-4c0-1.105.895-2 2-2 1.105 0 2 .895 2 2v4c0 1.105-.895 2-2 2z" fill="#fa6450" data-original="#fa6450" style="" class=""/></g><g><path d="m42 12c-1.105 0-2-.895-2-2v-4c0-1.105.895-2 2-2 1.105 0 2 .895 2 2v4c0 1.105-.895 2-2 2z" fill="#fa6450" data-original="#fa6450" style="" class=""/></g><g><path d="m22 22h4v4h-4z" fill="#505050" data-original="#505050" style="" class=""/></g><g><path d="m30 22h4v4h-4z" fill="#505050" data-original="#505050" style="" class=""/></g><g><path d="m38 22h4v4h-4z" fill="#505050" data-original="#505050" style="" class=""/></g><g><path d="m46 22h4v4h-4z" fill="#505050" data-original="#505050" style="" class=""/></g><g><path d="m14 30h4v4h-4z" fill="#505050" data-original="#505050" style="" class=""/></g><g><path d="m22 30h4v4h-4z" fill="#fa6450" data-original="#fa6450" style="" class=""/></g><g><path d="m30 30h4v4h-4z" fill="#505050" data-original="#505050" style="" class=""/></g><g><path d="m14 38h4v4h-4z" fill="#505050" data-original="#505050" style="" class=""/></g><g><path d="m22 38h4v4h-4z" fill="#505050" data-original="#505050" style="" class=""/></g><g><path d="m30 38h4v4h-4z" fill="#505050" data-original="#505050" style="" class=""/></g><g><path d="m59 36h-1v-4h1c.552 0 1 .448 1 1v2c0 .552-.448 1-1 1z" fill="#fa6450" data-original="#fa6450" style="" class=""/></g><g><path d="m59 44h-1v-4h1c.552 0 1 .448 1 1v2c0 .552-.448 1-1 1z" fill="#fa6450" data-original="#fa6450" style="" class=""/></g><g><path d="m59 52h-1v-4h1c.552 0 1 .448 1 1v2c0 .552-.448 1-1 1z" fill="#fa6450" data-original="#fa6450" style="" class=""/></g><g><path d="m56 28h-18c-1.105 0-2 .895-2 2v16c3.309 0 6 2.691 6 6 0 1.524-.571 2.927-1.541 4h15.541c1.105 0 2-.895 2-2v-24c0-1.105-.895-2-2-2z" fill="#6e83b7" data-original="#fab400" style="" class=""/></g><g><path d="m38 30c0-1.105.895-2 2-2h-2c-1.105 0-2 .895-2 2v16c.702 0 1.373.128 2 .35z" fill="#6e83b7" data-original="#dc9600" style="" class=""/></g><g><path d="m40 52c0-2.209-1.791-4-4-4s-4 1.791-4 4c0 1.706 1.072 3.152 2.576 3.727l1.424 4.273 1.424-4.273c1.504-.575 2.576-2.021 2.576-3.727z" fill="#fa6450" data-original="#fa6450" style="" class=""/></g><g><circle cx="36" cy="52" fill="#f0f0f0" r="2" data-original="#f0f0f0" style="" class=""/></g><g><path d="m42 32h10v4h-10z" fill="#f0f0f0" data-original="#f0f0f0" style="" class=""/></g></g></g></g></svg>
