<?xml version="1.0"?>
<svg xmlns="http://www.w3.org/2000/svg" xmlns:xlink="http://www.w3.org/1999/xlink" xmlns:svgjs="http://svgjs.com/svgjs" version="1.1" width="512" height="512" x="0" y="0" viewBox="0 0 512 512" style="enable-background:new 0 0 512 512" xml:space="preserve" class=""><g><g xmlns="http://www.w3.org/2000/svg"><g><path d="m40 136h120v160h-120z" fill="#6e83b7" transform="matrix(-1 0 0 -1 200 432)" data-original="#ffb0aa" style=""/></g><g><path d="m54 206h60v20h-60z" fill="#374a78" transform="matrix(-1 0 0 -1 168 432)" data-original="#ff7b7b" style="" class=""/></g><g><path d="m54 168h60v20h-60z" fill="#374a78" transform="matrix(-1 0 0 -1 168 356)" data-original="#ff7b7b" style="" class=""/></g><g><path d="m54 244h60v20h-60z" fill="#374a78" transform="matrix(-1 0 0 -1 168 508)" data-original="#ff7b7b" style="" class=""/></g><g><path d="m10 146h30v140h-30z" fill="#374a78" transform="matrix(-1 0 0 -1 50 432)" data-original="#ff7b7b" style="" class=""/></g><g><path d="m440 400-55.577-37.379c-37.845-25.453-80.693-42.522-125.673-50.064l-98.75-16.557v-80-80l98.75-16.557c44.98-7.542 87.828-24.611 125.673-50.064l55.577-37.379z" fill="#edeff1" data-original="#edeff1" style="" class=""/></g><g><path d="m440 32h20v368h-20z" fill="#6e83b7" transform="matrix(-1 0 0 -1 900 432)" data-original="#6e83b7" style="" class=""/></g><g><path d="m460 216v78l42-20v-58-58l-42-20z" fill="#d3d3d3" data-original="#d3d3d3" style=""/></g><g><path d="m160 296-18.284 18.284c-7.502 7.502-11.716 17.676-11.716 28.285v97.431h22v40h-92v-132l-20-14v-38z" fill="#edeff1" data-original="#edeff1" style="" class=""/></g><g><path d="m160 296-3.806 15.223c-.793 3.173-1.194 6.431-1.194 9.701v50.076h-25v-28.431c0-10.609 4.214-20.783 11.716-28.284z" fill="#6e83b7" data-original="#ffb0aa" style=""/></g></g></g></svg>
