<?xml version="1.0"?>
<svg xmlns="http://www.w3.org/2000/svg" xmlns:xlink="http://www.w3.org/1999/xlink" xmlns:svgjs="http://svgjs.com/svgjs" version="1.1" width="512" height="512" x="0" y="0" viewBox="0 0 512 512" style="enable-background:new 0 0 512 512" xml:space="preserve" class=""><g>
<rect xmlns="http://www.w3.org/2000/svg" x="204.8" y="412.587" style="" width="102.4" height="62.295" fill="#abbacd" data-original="#abbacd"/>
<rect xmlns="http://www.w3.org/2000/svg" x="204.8" y="412.587" style="" width="102.4" height="28.209" fill="#91a4b6" data-original="#91a4b6"/>
<path xmlns="http://www.w3.org/2000/svg" style="" d="M494.933,76.8c9.426,0,17.067,7.641,17.067,17.067v307.199c0,9.426-7.641,17.067-17.067,17.067  H17.067C7.641,418.133,0,410.491,0,401.066V93.867C0,84.441,7.641,76.8,17.067,76.8C17.067,76.8,494.933,76.8,494.933,76.8z" fill="#bac7d9" data-original="#bac7d9"/>
<path xmlns="http://www.w3.org/2000/svg" style="" d="M494.933,76.8H472.27c9.426,0,17.067,7.641,17.067,17.067v307.199  c0,9.426-7.641,17.067-17.067,17.067h22.663c9.426,0,17.067-7.641,17.067-17.067V93.867C512,84.442,504.359,76.8,494.933,76.8z" fill="#a5b5cc" data-original="#a5b5cc"/>
<circle xmlns="http://www.w3.org/2000/svg" style="" cx="256" cy="384" r="12.801" fill="#d7dcf2" data-original="#d7dcf2"/>
<path xmlns="http://www.w3.org/2000/svg" style="" d="M512,349.865V93.867c0-9.426-7.641-17.067-17.067-17.067H17.067C7.641,76.8,0,84.442,0,93.867  v255.998H512z" fill="#474855" data-original="#474855"/>
<path xmlns="http://www.w3.org/2000/svg" style="" d="M494.933,76.8h-22.664c9.426,0,17.067,7.641,17.067,17.067v255.998H512V93.867  C512,84.442,504.359,76.8,494.933,76.8z" fill="#3c3c47" data-original="#3c3c47"/>
<path xmlns="http://www.w3.org/2000/svg" style="" d="M25.6,108.581v209.503c0,3.414,2.767,6.181,6.181,6.181h448.438c3.414,0,6.181-2.767,6.181-6.181  V108.581c0-3.414-2.767-6.181-6.181-6.181H31.781C28.367,102.4,25.6,105.168,25.6,108.581z" fill="#ffffff" data-original="#ffffff"/>
<path xmlns="http://www.w3.org/2000/svg" style="" d="M486.398,145.066H25.6v-36.485c0-3.414,2.767-6.181,6.181-6.181h448.438  c3.414,0,6.181,2.767,6.181,6.181L486.398,145.066z" fill="#7f81db" data-original="#ff5a6a" class=""/>
<path xmlns="http://www.w3.org/2000/svg" style="" d="M68.266,131.459H51.201c-4.267,0-7.726-3.459-7.726-7.726c0-4.267,3.459-7.726,7.726-7.726h17.065  c4.267,0,7.726,3.459,7.726,7.726C75.992,128,72.533,131.459,68.266,131.459z" fill="#ffffff" data-original="#ffffff"/>
<path xmlns="http://www.w3.org/2000/svg" style="" d="M369.286,503.467H142.715c-3.414,0-6.181-2.767-6.181-6.181v-21.772c0-3.414,2.767-6.181,6.181-6.181  h226.571c3.414,0,6.181,2.767,6.181,6.181v21.772C375.467,500.7,372.7,503.467,369.286,503.467z" fill="#bac7d9" data-original="#bac7d9"/>
<path xmlns="http://www.w3.org/2000/svg" style="" d="M369.286,469.334h-22.664c3.414,0,6.181,2.767,6.181,6.181v21.771c0,3.414-2.767,6.181-6.181,6.181  h22.664c3.414,0,6.181-2.767,6.181-6.181v-21.771C375.467,472.101,372.7,469.334,369.286,469.334z" fill="#a5b5cc" data-original="#a5b5cc"/>
<path xmlns="http://www.w3.org/2000/svg" style="" d="M392.533,145.066H255.998V281.6h130.354c3.414,0,6.181-2.767,6.181-6.181L392.533,145.066  L392.533,145.066z" fill="#acadd9" data-original="#ffdf8c" class=""/>
<g xmlns="http://www.w3.org/2000/svg">
	<path style="" d="M294.4,174.932c-7.07,0-12.801,5.731-12.801,12.801c0,7.07,5.731,12.801,12.801,12.801h59.732   c7.07,0,12.801-5.731,12.801-12.801c0-7.07-5.731-12.801-12.801-12.801H294.4z" fill="#ffffff" data-original="#ffffff"/>
	<path style="" d="M294.4,226.133c-7.07,0-12.801,5.731-12.801,12.801c0,7.07,5.731,12.801,12.801,12.801h59.732   c7.07,0,12.801-5.731,12.801-12.801s-5.731-12.801-12.801-12.801H294.4z" fill="#ffffff" data-original="#ffffff"/>
</g>
<path xmlns="http://www.w3.org/2000/svg" style="" d="M386.352,8.533H255.998v136.535h136.535V14.714C392.533,11.3,389.766,8.533,386.352,8.533z" fill="#6b6ca5" data-original="#92d782" class=""/>
<path xmlns="http://www.w3.org/2000/svg" style="" d="M294.4,63.998c-7.07,0-12.801,5.731-12.801,12.801S287.33,89.6,294.4,89.6h59.732  c7.07,0,12.801-5.731,12.801-12.801s-5.731-12.801-12.801-12.801C354.132,63.998,294.4,63.998,294.4,63.998z" fill="#ffffff" data-original="#ffffff"/>
<path xmlns="http://www.w3.org/2000/svg" style="" d="M256.002,8.533H125.648c-3.414,0-6.181,2.767-6.181,6.181v130.354h136.535L256.002,8.533  L256.002,8.533z" fill="#d7d7fd" data-original="#abecfd" class=""/>
<path xmlns="http://www.w3.org/2000/svg" style="" d="M217.6,63.999h-17.065V46.934c0-7.07-5.731-12.801-12.801-12.801c-7.07,0-12.801,5.731-12.801,12.801  v17.065h-17.065c-7.07,0-12.801,5.731-12.801,12.801s5.731,12.801,12.801,12.801h17.065v17.065c0,7.07,5.731,12.801,12.801,12.801  c7.07,0,12.801-5.731,12.801-12.801V89.601H217.6c7.07,0,12.801-5.731,12.801-12.801S224.67,63.999,217.6,63.999z" fill="#ffffff" data-original="#ffffff"/>
<path xmlns="http://www.w3.org/2000/svg" style="" d="M256.002,145.066H119.467v130.353c0,3.414,2.767,6.181,6.181,6.181h130.354L256.002,145.066  L256.002,145.066z" fill="#6b6ca5" data-original="#92d782" class=""/>
<path xmlns="http://www.w3.org/2000/svg" style="" d="M223.938,231.435l-18.1-18.1l18.101-18.101c4.999-4.999,4.999-13.104,0-18.103  c-4.999-4.999-13.104-4.999-18.103,0l-18.101,18.101l-18.101-18.101c-4.999-4.999-13.104-4.999-18.103,0  c-4.999,4.999-4.999,13.104,0,18.103l18.101,18.101l-18.1,18.1c-4.999,4.999-4.999,13.104,0,18.103s13.104,4.999,18.103,0l18.1-18.1  l18.1,18.1c4.999,4.999,13.104,4.999,18.103,0C228.936,244.539,228.936,236.434,223.938,231.435z" fill="#ffffff" data-original="#ffffff"/>
<g xmlns="http://www.w3.org/2000/svg">
</g>
<g xmlns="http://www.w3.org/2000/svg">
</g>
<g xmlns="http://www.w3.org/2000/svg">
</g>
<g xmlns="http://www.w3.org/2000/svg">
</g>
<g xmlns="http://www.w3.org/2000/svg">
</g>
<g xmlns="http://www.w3.org/2000/svg">
</g>
<g xmlns="http://www.w3.org/2000/svg">
</g>
<g xmlns="http://www.w3.org/2000/svg">
</g>
<g xmlns="http://www.w3.org/2000/svg">
</g>
<g xmlns="http://www.w3.org/2000/svg">
</g>
<g xmlns="http://www.w3.org/2000/svg">
</g>
<g xmlns="http://www.w3.org/2000/svg">
</g>
<g xmlns="http://www.w3.org/2000/svg">
</g>
<g xmlns="http://www.w3.org/2000/svg">
</g>
<g xmlns="http://www.w3.org/2000/svg">
</g>
</g></svg>
