<?xml version="1.0"?>
<svg xmlns="http://www.w3.org/2000/svg" xmlns:xlink="http://www.w3.org/1999/xlink" xmlns:svgjs="http://svgjs.com/svgjs" version="1.1" width="512" height="512" x="0" y="0" viewBox="0 0 64 64" style="enable-background:new 0 0 512 512" xml:space="preserve" class=""><g><g xmlns="http://www.w3.org/2000/svg" id="Icons"><g><g><g><g><g><path d="m14 56h26l10-10v-38c0-2.209-1.791-4-4-4h-32c-2.209 0-4 1.791-4 4v44c0 2.209 1.791 4 4 4z" fill="#d7d8ff" data-original="#fab400" style="" class=""/></g></g></g></g><g><g><g><g><g><path d="m45 32h-30c-.552 0-1-.448-1-1 0-.552.448-1 1-1h30c.552 0 1 .448 1 1 0 .552-.448 1-1 1z" fill="#7273a1" data-original="#dc9600" style="" class=""/></g></g></g></g><g><g><g><g><path d="m45 36h-30c-.552 0-1-.448-1-1 0-.552.448-1 1-1h30c.552 0 1 .448 1 1 0 .552-.448 1-1 1z" fill="#7273a1" data-original="#dc9600" style="" class=""/></g></g></g></g><g><g><g><g><path d="m45 40h-30c-.552 0-1-.448-1-1 0-.552.448-1 1-1h30c.552 0 1 .448 1 1 0 .552-.448 1-1 1z" fill="#7273a1" data-original="#dc9600" style="" class=""/></g></g></g></g><g><g><g><g><path d="m45 44h-30c-.552 0-1-.448-1-1 0-.552.448-1 1-1h30c.552 0 1 .448 1 1 0 .552-.448 1-1 1z" fill="#7273a1" data-original="#dc9600" style="" class=""/></g></g></g></g></g><g fill="#dc9600"><path d="m18 16h-4c-.552 0-1 .448-1 1s.448 1 1 1h4c.551 0 1 .449 1 1v1h-3c-1.654 0-3 1.346-3 3s1.346 3 3 3h4c.552 0 1-.448 1-1v-6c0-1.654-1.346-3-3-3zm1 8h-3c-.551 0-1-.449-1-1s.449-1 1-1h3z" fill="#7273a1" data-original="#dc9600" style="" class=""/><path d="m30 20h-1v-1c0-.552-.448-1-1-1s-1 .448-1 1v1h-1c-.552 0-1 .448-1 1s.448 1 1 1h1v1c0 .552.448 1 1 1s1-.448 1-1v-1h1c.552 0 1-.448 1-1s-.448-1-1-1z" fill="#7273a1" data-original="#dc9600" style="" class=""/><path d="m36 16h-1v-3c0-.552-.447-1-1-1s-1 .448-1 1v12c0 .552.447 1 1 1h2c2.757 0 5-2.243 5-5s-2.243-5-5-5zm0 8h-1v-6h1c1.654 0 3 1.346 3 3s-1.346 3-3 3z" fill="#7273a1" data-original="#dc9600" style="" class=""/><path d="m27 16c0-.552-.448-1-1-1h-2.972c.068-.283.256-.524.525-.658l2.342-1.171c.681-.341 1.105-1.026 1.105-1.789v-.382c0-1.103-.897-2-2-2h-3c-.552 0-1 .448-1 1s.448 1 1 1h3v.382l-2.342 1.171c-1.023.511-1.658 1.54-1.658 2.683v.764c0 .552.448 1 1 1h4c.552 0 1-.448 1-1z" fill="#7273a1" data-original="#dc9600" style="" class=""/><path d="m43.553 14.342 2.342-1.171c.681-.341 1.105-1.026 1.105-1.789v-.382c0-1.103-.897-2-2-2h-3c-.553 0-1 .448-1 1s.447 1 1 1h3v.382l-2.342 1.171c-1.022.511-1.658 1.539-1.658 2.683v.764c0 .552.447 1 1 1h4c.553 0 1-.448 1-1s-.447-1-1-1h-2.973c.069-.283.257-.524.526-.658z" fill="#7273a1" data-original="#dc9600" style="" class=""/></g><g><g><g><g><path d="m50 46h-6c-2.209 0-4 1.791-4 4v6z" fill="#7273a1" data-original="#dc9600" style="" class=""/></g></g></g></g><g><g><g><g><g><path d="m52 20h8v32h-8z" fill="#7f81db" data-original="#c80a50" style="" class=""/></g></g></g></g><g><g><g><g><path d="m60 52h-8l2 4h4z" fill="#f0c8a0" data-original="#f0c8a0" style=""/></g></g></g></g><g><g><g><g><path d="m54 56 1.106 2.211c.369.737 1.42.737 1.789 0l1.105-2.211z" fill="#0a5078" data-original="#0a5078" style=""/></g></g></g></g><g><g><g><g><path d="m52 18h8v2h-8z" fill="#f0f0f0" data-original="#f0f0f0" style=""/></g></g></g></g><g><g><g><g><path d="m58 12h-4c-1.105 0-2 .895-2 2v4h8v-4c0-1.105-.895-2-2-2z" fill="#0a5078" data-original="#0a5078" style=""/></g></g></g></g></g><g><g><g><g><g><path d="m29 24h-19v28c0 2.209 1.791 4 4 4h17v-30c0-1.105-.895-2-2-2z" fill="#7273a1" data-original="#dc9600" style="" class=""/></g></g></g></g><g><g><g><g><path d="m28 24h-22c-1.105 0-2 .895-2 2v32c0 1.105.895 2 2 2h22c1.105 0 2-.895 2-2v-32c0-1.105-.895-2-2-2z" fill="#7f81db" data-original="#00a0c8" style="" class=""/></g></g></g></g><g><g><g><g><path d="m27 26h-20c-.552 0-1 .448-1 1v6c0 .552.448 1 1 1h20c.552 0 1-.448 1-1v-6c0-.552-.448-1-1-1z" fill="#0a5078" data-original="#0a5078" style=""/></g></g></g></g><g><g><g><g><path d="m27 26h-20c-.552 0-1 .448-1 1v1c0-.552.448-1 1-1h20c.552 0 1 .448 1 1v-1c0-.552-.448-1-1-1z" fill="#00325a" data-original="#00325a" style="" class=""/></g></g></g></g><g><g><g><g><g><path d="m9 37h-2c-.552 0-1 .448-1 1v2c0 .552.448 1 1 1h2c.552 0 1-.448 1-1v-2c0-.552-.448-1-1-1z" fill="#0082aa" data-original="#0082aa" style="" class=""/></g></g></g></g><g><g><g><g><path d="m15 37h-2c-.552 0-1 .448-1 1v2c0 .552.448 1 1 1h2c.552 0 1-.448 1-1v-2c0-.552-.448-1-1-1z" fill="#0082aa" data-original="#0082aa" style="" class=""/></g></g></g></g><g><g><g><g><path d="m21 37h-2c-.552 0-1 .448-1 1v2c0 .552.448 1 1 1h2c.552 0 1-.448 1-1v-2c0-.552-.448-1-1-1z" fill="#0082aa" data-original="#0082aa" style="" class=""/></g></g></g></g><g><g><g><g><path d="m27 37h-2c-.552 0-1 .448-1 1v2c0 .552.448 1 1 1h2c.552 0 1-.448 1-1v-2c0-.552-.448-1-1-1z" fill="#0082aa" data-original="#0082aa" style="" class=""/></g></g></g></g><g><g><g><g><path d="m9 43h-2c-.552 0-1 .448-1 1v2c0 .552.448 1 1 1h2c.552 0 1-.448 1-1v-2c0-.552-.448-1-1-1z" fill="#0082aa" data-original="#0082aa" style="" class=""/></g></g></g></g><g><g><g><g><path d="m15 43h-2c-.552 0-1 .448-1 1v2c0 .552.448 1 1 1h2c.552 0 1-.448 1-1v-2c0-.552-.448-1-1-1z" fill="#0082aa" data-original="#0082aa" style="" class=""/></g></g></g></g><g><g><g><g><path d="m21 43h-2c-.552 0-1 .448-1 1v2c0 .552.448 1 1 1h2c.552 0 1-.448 1-1v-2c0-.552-.448-1-1-1z" fill="#0082aa" data-original="#0082aa" style="" class=""/></g></g></g></g><g><g><g><g><path d="m27 43h-2c-.552 0-1 .448-1 1v2c0 .552.448 1 1 1h2c.552 0 1-.448 1-1v-2c0-.552-.448-1-1-1z" fill="#0082aa" data-original="#0082aa" style="" class=""/></g></g></g></g><g><g><g><g><path d="m9 49h-2c-.552 0-1 .448-1 1v2c0 .552.448 1 1 1h2c.552 0 1-.448 1-1v-2c0-.552-.448-1-1-1z" fill="#0082aa" data-original="#0082aa" style="" class=""/></g></g></g></g><g><g><g><g><path d="m15 49h-2c-.552 0-1 .448-1 1v2c0 .552.448 1 1 1h2c.552 0 1-.448 1-1v-2c0-.552-.448-1-1-1z" fill="#0082aa" data-original="#0082aa" style="" class=""/></g></g></g></g><g><g><g><g><path d="m21 49h-2c-.552 0-1 .448-1 1v2c0 .552.448 1 1 1h2c.552 0 1-.448 1-1v-2c0-.552-.448-1-1-1z" fill="#0082aa" data-original="#0082aa" style="" class=""/></g></g></g></g><g><g><g><g><path d="m27 49h-2c-.552 0-1 .448-1 1v8c0 .552.448 1 1 1h2c.552 0 1-.448 1-1v-8c0-.552-.448-1-1-1z" fill="#0082aa" data-original="#0082aa" style="" class=""/></g></g></g></g><g><g><g><g><path d="m9 55h-2c-.552 0-1 .448-1 1v2c0 .552.448 1 1 1h2c.552 0 1-.448 1-1v-2c0-.552-.448-1-1-1z" fill="#0082aa" data-original="#0082aa" style="" class=""/></g></g></g></g><g><g><g><g><path d="m15 55h-2c-.552 0-1 .448-1 1v2c0 .552.448 1 1 1h2c.552 0 1-.448 1-1v-2c0-.552-.448-1-1-1z" fill="#0082aa" data-original="#0082aa" style="" class=""/></g></g></g></g><g><g><g><g><path d="m21 55h-2c-.552 0-1 .448-1 1v2c0 .552.448 1 1 1h2c.552 0 1-.448 1-1v-2c0-.552-.448-1-1-1z" fill="#0082aa" data-original="#0082aa" style="" class=""/></g></g></g></g></g><g><g><g><g><path d="m9 36h-2c-.552 0-1 .448-1 1v2c0 .552.448 1 1 1h2c.552 0 1-.448 1-1v-2c0-.552-.448-1-1-1z" fill="#d7d8ff" data-original="#fab400" style="" class=""/></g></g></g></g><g><g><g><g><path d="m15 36h-2c-.552 0-1 .448-1 1v2c0 .552.448 1 1 1h2c.552 0 1-.448 1-1v-2c0-.552-.448-1-1-1z" fill="#d7d8ff" data-original="#fab400" style="" class=""/></g></g></g></g><g><g><g><g><path d="m21 36h-2c-.552 0-1 .448-1 1v2c0 .552.448 1 1 1h2c.552 0 1-.448 1-1v-2c0-.552-.448-1-1-1z" fill="#d7d8ff" data-original="#fab400" style="" class=""/></g></g></g></g><g><g><g><g><path d="m27 36h-2c-.552 0-1 .448-1 1v2c0 .552.448 1 1 1h2c.552 0 1-.448 1-1v-2c0-.552-.448-1-1-1z" fill="#d7d8ff" data-original="#fab400" style="" class=""/></g></g></g></g><g><g><g><g><path d="m9 42h-2c-.552 0-1 .448-1 1v2c0 .552.448 1 1 1h2c.552 0 1-.448 1-1v-2c0-.552-.448-1-1-1z" fill="#f0f0f0" data-original="#f0f0f0" style=""/></g></g></g></g><g><g><g><g><path d="m15 42h-2c-.552 0-1 .448-1 1v2c0 .552.448 1 1 1h2c.552 0 1-.448 1-1v-2c0-.552-.448-1-1-1z" fill="#f0f0f0" data-original="#f0f0f0" style=""/></g></g></g></g><g><g><g><g><path d="m21 42h-2c-.552 0-1 .448-1 1v2c0 .552.448 1 1 1h2c.552 0 1-.448 1-1v-2c0-.552-.448-1-1-1z" fill="#f0f0f0" data-original="#f0f0f0" style=""/></g></g></g></g><g><g><g><g><path d="m27 42h-2c-.552 0-1 .448-1 1v2c0 .552.448 1 1 1h2c.552 0 1-.448 1-1v-2c0-.552-.448-1-1-1z" fill="#f0f0f0" data-original="#f0f0f0" style=""/></g></g></g></g><g><g><g><g><path d="m9 48h-2c-.552 0-1 .448-1 1v2c0 .552.448 1 1 1h2c.552 0 1-.448 1-1v-2c0-.552-.448-1-1-1z" fill="#f0f0f0" data-original="#f0f0f0" style=""/></g></g></g></g><g><g><g><g><path d="m15 48h-2c-.552 0-1 .448-1 1v2c0 .552.448 1 1 1h2c.552 0 1-.448 1-1v-2c0-.552-.448-1-1-1z" fill="#f0f0f0" data-original="#f0f0f0" style=""/></g></g></g></g><g><g><g><g><path d="m21 48h-2c-.552 0-1 .448-1 1v2c0 .552.448 1 1 1h2c.552 0 1-.448 1-1v-2c0-.552-.448-1-1-1z" fill="#f0f0f0" data-original="#f0f0f0" style=""/></g></g></g></g><g><g><g><g><path d="m27 48h-2c-.552 0-1 .448-1 1v8c0 .552.448 1 1 1h2c.552 0 1-.448 1-1v-8c0-.552-.448-1-1-1z" fill="#7f81db" data-original="#c80a50" style="" class=""/></g></g></g></g><g><g><g><g><path d="m9 54h-2c-.552 0-1 .448-1 1v2c0 .552.448 1 1 1h2c.552 0 1-.448 1-1v-2c0-.552-.448-1-1-1z" fill="#f0f0f0" data-original="#f0f0f0" style=""/></g></g></g></g><g><g><g><g><path d="m15 54h-2c-.552 0-1 .448-1 1v2c0 .552.448 1 1 1h2c.552 0 1-.448 1-1v-2c0-.552-.448-1-1-1z" fill="#f0f0f0" data-original="#f0f0f0" style=""/></g></g></g></g><g><g><g><g><path d="m21 54h-2c-.552 0-1 .448-1 1v2c0 .552.448 1 1 1h2c.552 0 1-.448 1-1v-2c0-.552-.448-1-1-1z" fill="#f0f0f0" data-original="#f0f0f0" style=""/></g></g></g></g></g></g></g></g></svg>
