<?xml version="1.0"?>
<svg xmlns="http://www.w3.org/2000/svg" xmlns:xlink="http://www.w3.org/1999/xlink" xmlns:svgjs="http://svgjs.com/svgjs" version="1.1" width="512" height="512" x="0" y="0" viewBox="0 0 64 64" style="enable-background:new 0 0 512 512" xml:space="preserve" class=""><g><path xmlns="http://www.w3.org/2000/svg" d="m62 13h-60v-7a4 4 0 0 1 4-4h52a4 4 0 0 1 4 4z" fill="#8546bd" data-original="#3b5892" style="" class=""/><path xmlns="http://www.w3.org/2000/svg" d="m57.105 11a2 2 0 0 0 2-2v-6.826a3.958 3.958 0 0 0 -1.105-.174h-52a4 4 0 0 0 -4 4v5z" fill="#9758d0" data-original="#4c6cb5" style="" class=""/><path xmlns="http://www.w3.org/2000/svg" d="m62 13v45a4 4 0 0 1 -4 4h-52a4 4 0 0 1 -4-4v-45z" fill="#c8cded" data-original="#c8cded" style="" class=""/><path xmlns="http://www.w3.org/2000/svg" d="m59 13h-57v45h57z" fill="#e2e7f6" data-original="#e2e7f6" style="" class=""/><path xmlns="http://www.w3.org/2000/svg" d="m8 19h12v12h-12z" fill="#ffffff" data-original="#ffffff" style="" class=""/><path xmlns="http://www.w3.org/2000/svg" d="m8 37h12v12h-12z" fill="#ffffff" data-original="#ffffff" style="" class=""/><g xmlns="http://www.w3.org/2000/svg" fill="#5e87ca"><rect height="4" rx="2" width="24" x="6" y="5" fill="#b383dd" data-original="#5e87ca" style="" class=""/><circle cx="57" cy="7" r="2" fill="#b383dd" data-original="#5e87ca" style="" class=""/><circle cx="51" cy="7" r="2" fill="#b383dd" data-original="#5e87ca" style="" class=""/></g><path xmlns="http://www.w3.org/2000/svg" d="m11 24 4 4 10-10-2-2-8 8-2-2.001z" fill="#559b2d" data-original="#559b2d" style="" class=""/><path xmlns="http://www.w3.org/2000/svg" d="m11 42 4 4 10-10-2-2-8 8-2-2.001z" fill="#559b2d" data-original="#559b2d" style="" class=""/><g xmlns="http://www.w3.org/2000/svg" fill="#9da1bf"><path d="m27 28h30v2h-30z" fill="#9da1bf" data-original="#9da1bf" style="" class=""/><path d="m31 24h26v2h-26z" fill="#9da1bf" data-original="#9da1bf" style="" class=""/><path d="m27 24h2v2h-2z" fill="#9da1bf" data-original="#9da1bf" style="" class=""/><path d="m27 46h30v2h-30z" fill="#9da1bf" data-original="#9da1bf" style="" class=""/><path d="m31 42h26v2h-26z" fill="#9da1bf" data-original="#9da1bf" style="" class=""/><path d="m27 42h2v2h-2z" fill="#9da1bf" data-original="#9da1bf" style="" class=""/></g><path xmlns="http://www.w3.org/2000/svg" d="m35 52h22v6h-22z" fill="#b383dd" data-original="#5e87ca" style="" class=""/><path xmlns="http://www.w3.org/2000/svg" d="m35 52h19v4h-19z" fill="#78a0d4" data-original="#78a0d4" style="" class=""/></g></svg>
