<svg id="icon" height="512" viewBox="0 0 128 128" width="512" xmlns="http://www.w3.org/2000/svg"><path d="m110.57 28.174c.052-.637.085-1.278.085-1.928a23.509 23.509 0 0 0 -40.781-15.953 21.327 21.327 0 0 0 -29.116 6.5 17.444 17.444 0 0 0 -23.992 22.348 17.437 17.437 0 0 0 17.173 30.353 17.434 17.434 0 0 0 24.151 3.131 18.793 18.793 0 0 0 33.21-1.916 23.516 23.516 0 1 0 19.27-42.535z" fill="#f0f5f9"/><path d="m126.645 46.515c-1.918 11.048-12.837 22.258-24.442 22.258a50.913 50.913 0 0 1 -12.883-2.264 3.862 3.862 0 0 0 -4.779 2.483c-1.241 3.443-4.651 4.588-10.348 4.588a18.752 18.752 0 0 1 -14.285-6.58 3.625 3.625 0 0 0 -4.422-.891 17.422 17.422 0 0 1 -19.5-2.583 4.761 4.761 0 0 0 -4.744-.944 17.439 17.439 0 0 1 -22.784-12.375 17.8 17.8 0 0 0 -.227 7.1 17.45 17.45 0 0 0 25.71 12.185 17.42 17.42 0 0 0 24.149 3.129 18.79 18.79 0 0 0 33.2-1.909 23.529 23.529 0 0 0 35.71-20.112 23.9 23.9 0 0 0 -.355-4.085z" fill="#d9e2e9"/><g fill="#2f3a5a"><path d="m74.189 82.721a19.641 19.641 0 0 1 -16.376-8.674 18.439 18.439 0 0 1 -24.124-3.287 18.437 18.437 0 0 1 -18.165-32.036 18.441 18.441 0 0 1 24.892-23.2 22.328 22.328 0 0 1 29.284-6.498 24.51 24.51 0 0 1 41.954 17.22c0 .391-.011.8-.034 1.224a24.516 24.516 0 1 1 -19.9 44.639 19.849 19.849 0 0 1 -17.531 10.612zm-16.1-11.1a.942.942 0 0 1 .19.019 1 1 0 0 1 .666.464 17.793 17.793 0 0 0 31.439-1.814 1 1 0 0 1 1.428-.44 22.516 22.516 0 1 0 18.458-40.722 1 1 0 0 1 -.7-1.035c.056-.676.082-1.28.082-1.847a22.509 22.509 0 0 0 -39.044-15.274 1 1 0 0 1 -1.261.171 20.327 20.327 0 0 0 -27.747 6.197 1 1 0 0 1 -1.294.344 16.249 16.249 0 0 0 -7.482-1.8 16.445 16.445 0 0 0 -15.137 22.865 1 1 0 0 1 -.423 1.26 16.437 16.437 0 0 0 16.186 28.613 1 1 0 0 1 1.274.252 16.433 16.433 0 0 0 22.764 2.952 1 1 0 0 1 .602-.201z"/><path d="m103.483 75.11a24.475 24.475 0 0 1 -16.283-6.188 1 1 0 1 1 1.328-1.494 22.515 22.515 0 0 0 37.472-16.828 1 1 0 0 1 2 0 24.541 24.541 0 0 1 -24.517 24.51z"/><path d="m37.305 29.426a1 1 0 0 1 -1-1 22.335 22.335 0 0 1 40.542-12.934 1 1 0 1 1 -1.629 1.16 20.335 20.335 0 0 0 -36.913 11.774 1 1 0 0 1 -1 1z"/><path d="m20.79 45.945a.991.991 0 0 1 -.689-.276 18.274 18.274 0 0 1 -5.72-13.349 18.459 18.459 0 0 1 18.439-18.439 1 1 0 0 1 0 2 16.44 16.44 0 0 0 -11.341 28.341 1 1 0 0 1 -.689 1.723z"/></g><path d="m20.586 97.06s19.014-12.222 30.722-11.844c10.955.353 24.564 6.514 39.57 7.453a3.335 3.335 0 0 1 3.137 3.324v1.346a4.783 4.783 0 0 1 -5.18 4.767l-30 1.007 4.016 7.1 27.811-1.288 26.179-11.105a4.628 4.628 0 0 1 6.314 2.551c1.049 2.672-.22 5.511-3.572 7.071l-22.947 13.363-28.325 4.462-47.725-3.956z" fill="#e8c79c"/><path d="m123.506 102.228c0 2.057-1.345 4.009-3.929 5.209l-22.946 13.371-28.325 4.458-47.724-3.956v-4.589l45.618 3.784 28.325-4.457 22.946-13.358a6.257 6.257 0 0 0 3.877-4.563 4.83 4.83 0 0 1 1.806 2.242 5.151 5.151 0 0 1 .352 1.859z" fill="#d0aa79"/><path d="m68.311 126.267a.769.769 0 0 1 -.083 0l-47.728-3.959a1 1 0 0 1 -.917-1v-24.248a1 1 0 0 1 .459-.841c.774-.5 18.82-12.012 30.725-12.012.192 0 .381 0 .571.01 5.354.172 11.321 1.7 17.638 3.321 7 1.8 14.235 3.65 21.961 4.133a4.346 4.346 0 0 1 4.076 4.322v1.346a5.782 5.782 0 0 1 -6.2 5.767l-28.292.952 2.9 5.129 27.017-1.251 26.012-11.036a5.627 5.627 0 0 1 7.636 3.107c1.279 3.259-.36 6.611-4.081 8.343l-22.866 13.32a1.021 1.021 0 0 1 -.348.124l-28.325 4.461a1.012 1.012 0 0 1 -.155.012zm-46.725-5.877 46.687 3.87 28.027-4.413 22.785-13.269c2.823-1.319 4.026-3.6 3.145-5.842a3.63 3.63 0 0 0 -4.994-2l-26.18 11.111a1.025 1.025 0 0 1 -.345.078l-27.811 1.288a1 1 0 0 1 -.916-.507l-4.016-7.1a1 1 0 0 1 .837-1.491l30-1.008a.645.645 0 0 1 .116 0 3.784 3.784 0 0 0 4.1-3.77v-1.344a2.343 2.343 0 0 0 -2.2-2.326c-7.915-.5-15.574-2.459-22.332-4.191-6.208-1.591-12.072-3.095-17.207-3.261-10.3-.319-26.738 9.566-29.69 11.4z" fill="#2f3a5a"/><path d="m1.001 91.246h24.086v32.683h-24.086z" fill="#6bb3d9"/><path d="m25.092 91.243v32.691h-24.092v-4.26h20.018v-28.431z" fill="#4fa4d1"/><path d="m25.087 124.929h-24.087a1 1 0 0 1 -1-1v-32.683a1 1 0 0 1 1-1h24.087a1 1 0 0 1 1 1v32.683a1 1 0 0 1 -1 1zm-23.087-2h22.087v-30.683h-22.087z" fill="#2f3a5a"/></svg>