<svg id="icon" height="512" viewBox="0 0 128 128" width="512" xmlns="http://www.w3.org/2000/svg"><path d="m21.124 39.116a23.223 23.223 0 0 1 23.727-25.507 23.147 23.147 0 0 1 11.717 3.513 23.25 23.25 0 0 1 43.3 14.971h.214a27.609 27.609 0 1 1 -20.234 47.09 23.257 23.257 0 0 1 -39.29-.434 23.257 23.257 0 1 1 -19.434-39.633z" fill="#f0f5f9"/><path d="m23.676 85.415a23.212 23.212 0 0 0 16.885-6.663 23.254 23.254 0 0 0 39.283.436 27.619 27.619 0 0 0 46.839-23.7 27.6 27.6 0 0 1 -46.839 15.348 23.254 23.254 0 0 1 -39.283-.436 23.256 23.256 0 0 1 -39.178-12.4 22.029 22.029 0 0 0 -.371 3.581 23.248 23.248 0 0 0 22.664 23.834z" fill="#d9e2e9"/><path d="m89.974 38.335a1 1 0 0 1 -.66-1.752 24.787 24.787 0 0 1 10.577-5.471 1 1 0 0 1 .382 1.963 23.191 23.191 0 0 0 -9.641 5.012.989.989 0 0 1 -.658.248z" fill="#2f3a5a"/><path d="m33.574 16.592s-14.712 9.955-3.022 23.953a3.269 3.269 0 0 0 -.356.35c-3.383-2.205-3.657-1.234-8.524-1.782 0 0-3.323-16.281 11.902-22.521z" fill="#d9e2e9"/><path d="m60.354 90.777q-.312 0-.624-.007a24.2 24.2 0 0 1 -19.358-10.478 24.257 24.257 0 1 1 -20.318-42.022c-.041-.687-.054-1.362-.037-2.016a24.258 24.258 0 0 1 36.2-20.507 24.259 24.259 0 0 1 44.942 13.263c-.018.694-.068 1.4-.151 2.12a28.609 28.609 0 1 1 -21.008 49.592 24.1 24.1 0 0 1 -19.646 10.055zm-19.8-13.028a.966.966 0 0 1 .12.007 1 1 0 0 1 .73.466 22.256 22.256 0 0 0 37.6.416 1 1 0 0 1 1.547-.161 26.605 26.605 0 1 0 19.5-45.384h-.209a1 1 0 0 1 -.967-1.157 22.722 22.722 0 0 0 .28-2.977 22.259 22.259 0 0 0 -41.713-11.351 1 1 0 0 1 -1.4.362 22.236 22.236 0 0 0 -33.923 21.051 1 1 0 0 1 -.862 1.086 22.258 22.258 0 1 0 18.6 37.928 1 1 0 0 1 .7-.286z" fill="#2f3a5a"/><path d="m29.81 41.545a1.007 1.007 0 0 1 -.327-.055 26.092 26.092 0 0 0 -8.327-1.374.987.987 0 0 1 -1.032-.967 1 1 0 0 1 .967-1.032 27.852 27.852 0 0 1 9.045 1.483 1 1 0 0 1 -.326 1.946z" fill="#2f3a5a"/><path d="m61.186 54.876h5.627a21.6 21.6 0 0 1 21.6 21.6v21.963a24.415 24.415 0 0 1 -24.413 24.415 24.415 24.415 0 0 1 -24.415-24.415v-21.962a21.6 21.6 0 0 1 21.6-21.6z" fill="#b0b3c1"/><path d="m88.415 82.3v-5.823a21.6 21.6 0 0 0 -21.6-21.6h-5.629a21.6 21.6 0 0 0 -21.6 21.6v5.823z" fill="#b0b3c1"/><path d="m88.415 76.479v21.96a24.406 24.406 0 0 1 -44.521 13.833 24.4 24.4 0 0 0 38.76-19.748v-21.96a21.536 21.536 0 0 0 -3.531-11.84 21.589 21.589 0 0 1 9.292 17.755z" fill="#9297ab"/><g fill="#2f3a5a"><path d="m64 123.854a25.444 25.444 0 0 1 -25.415-25.415v-21.962a22.627 22.627 0 0 1 22.6-22.6h5.626a22.627 22.627 0 0 1 22.6 22.6v21.962a25.444 25.444 0 0 1 -25.411 25.415zm-2.813-67.978a20.625 20.625 0 0 0 -20.6 20.6v21.963a23.415 23.415 0 0 0 46.83 0v-21.962a20.625 20.625 0 0 0 -20.6-20.6z"/><path d="m89.415 83.3h-50.83v-6.823a22.627 22.627 0 0 1 22.6-22.6h5.626a22.627 22.627 0 0 1 22.6 22.6zm-48.83-2h46.83v-4.823a20.625 20.625 0 0 0 -20.6-20.6h-5.628a20.625 20.625 0 0 0 -20.6 20.6z"/><path d="m62.998 76.197h2v6.098h-2z"/></g><path d="m64 61.883a3.2 3.2 0 0 0 -3.2 3.2v7.917a3.2 3.2 0 0 0 6.4 0v-7.921a3.2 3.2 0 0 0 -3.2-3.196z" fill="#707583"/><path d="m64 77.2a4.2 4.2 0 0 1 -4.2-4.2v-7.92a4.2 4.2 0 1 1 8.392 0v7.92a4.2 4.2 0 0 1 -4.192 4.2zm0-14.316a2.2 2.2 0 0 0 -2.2 2.2v7.916a2.2 2.2 0 0 0 4.4 0v-7.92a2.2 2.2 0 0 0 -2.2-2.197z" fill="#2f3a5a"/></svg>