<?xml version="1.0"?>
<svg xmlns="http://www.w3.org/2000/svg" xmlns:xlink="http://www.w3.org/1999/xlink" xmlns:svgjs="http://svgjs.com/svgjs" version="1.1" width="512" height="512" x="0" y="0" viewBox="0 0 64 64" style="enable-background:new 0 0 512 512" xml:space="preserve" class=""><g><circle xmlns="http://www.w3.org/2000/svg" cx="32" cy="32" fill="#c6a9e1" r="29" data-original="#8cbeff" style="" class=""/><path xmlns="http://www.w3.org/2000/svg" d="m54.236 53.882c-.759-.728-1.236-1.747-1.236-2.882v-1.465c-.449.299-.917.573-1.424.79-1.006.431-2.145.431-3.151 0-.507-.217-.976-.491-1.424-.79v1.465c0 1.135-.477 2.154-1.236 2.882l4.235 2.118z" fill="#ffe5cf" data-original="#ffe5cf" style=""/><path xmlns="http://www.w3.org/2000/svg" d="m3 32h29v-29c-16.016 0-29 12.984-29 29z" fill="#af61f5" data-original="#5aa2ff" style="" class=""/><path xmlns="http://www.w3.org/2000/svg" d="m35.989 46.044c.182-1.194-.566-3.069-1.101-4.115-.164-.32-.346-.63-.554-.929-.273-.393-.59-.767-.966-1.119-.573-.537-1.022-1.147-1.153-1.804l-.215-1.077v.104c0 2.734-2.216 4.95-4.95 4.95-2.025.022-3.553 2.712-2.848 4.507.482 1.229 1.607 2.264 2.798 3.01v-.036.036c.477.299.962.556 1.425.754 1.006.431 2.145.431 3.151 0 .424-.182.92-.447 1.424-.766v-.024.024c1.362-.863 2.781-2.155 2.989-3.515z" fill="#ffe5cf" data-original="#ffe5cf" style=""/><path xmlns="http://www.w3.org/2000/svg" d="m27 49.571c-1.192-.746-2.316-1.781-2.798-3.01-.705-1.795.823-4.485 2.848-4.507 2.734 0 4.95-2.216 4.95-4.95v-.104l.215 1.076c.131.657.58 1.268 1.153 1.804.376.352.693.726.966 1.119.208.299.39.609.554.929.535 1.045 1.283 2.921 1.101 4.115-.208 1.36-1.627 2.652-2.989 3.515v1.442c0 .342.056.669.137.986l4.943-.044c.974 0 1.92-.732 1.92-1.706 0-.157-.021-.313-.062-.464 0 0-2.861-10.011-2.938-10.772-.307-3.025-2.894-6-6-6h-2c-3.314 0-5.56 2.716-6 6-.37 2.767-2.938 10.772-2.938 10.772-.041.151-.062.307-.062.464 0 .974.79 1.764 1.764 1.764h5.095c.083-.321.141-.653.141-1z" fill="#bd8e4e" data-original="#633f0e" style="" class=""/><path xmlns="http://www.w3.org/2000/svg" d="m32 3v29l20.506-20.506c-5.248-5.248-12.498-8.494-20.506-8.494z" fill="#753da7" data-original="#38649e" style="" class=""/><path xmlns="http://www.w3.org/2000/svg" d="m32 32 25.571-13.684c-1.351-2.519-3.06-4.817-5.065-6.822z" fill="#9758d0" data-original="#254269" style="" class=""/><path xmlns="http://www.w3.org/2000/svg" d="m52 37.049v-.049l.215 1.076c.459 2.294 2.446 3.964 4.785 4.022v-3.098c0-3.314-2.686-6-6-6h-2c-3.314 0-6 2.686-6 6v3.099l4.05-.044c2.742-.031 4.95-2.263 4.95-5.006z" fill="#bd8e4e" data-original="#633f0e" style="" class=""/><path xmlns="http://www.w3.org/2000/svg" d="m51.576 50.325c.507-.217.976-.491 1.424-.79 2.462-1.639 4-4.408 4-7.436-2.339-.058-4.326-1.728-4.785-4.022l-.215-1.077v.049c0 2.743-2.208 4.975-4.95 5.005l-4.05.045c0 3.028 1.538 5.797 4 7.436.449.299.917.573 1.424.79 1.007.431 2.145.431 3.152 0z" fill="#ffe5cf" data-original="#ffe5cf" style=""/><path xmlns="http://www.w3.org/2000/svg" d="m34.236 53.882c-.759-.728-1.236-1.747-1.236-2.882v-1.465c-.449.299-.917.573-1.424.79-1.006.431-2.145.431-3.151 0-.507-.217-.976-.491-1.424-.79v1.465c0 1.135-.477 2.154-1.236 2.882l4.235 2.118z" fill="#ffe5cf" data-original="#ffe5cf" style=""/><path xmlns="http://www.w3.org/2000/svg" d="m25.764 53.882c-.719.689-1.69 1.118-2.764 1.118-1.202 0-2.267.541-3 1.38-.615.703-1 1.613-1 2.62v2h11v-5z" fill="#d64528" data-original="#d64528" style="" class=""/><path xmlns="http://www.w3.org/2000/svg" d="m34.236 53.882c.719.689 1.69 1.118 2.764 1.118 1.202 0 2.267.541 3 1.38.615.703 1 1.613 1 2.62v2h-11v-5z" fill="#d64528" data-original="#d64528" style="" class=""/><path xmlns="http://www.w3.org/2000/svg" d="m21.062 51.772s2.567-8.005 2.938-10.772c.44-3.284 2.686-6 6-6h2c1.904 0 3.609 1.119 4.717 2.681-.801-2.515-3.067-4.681-5.717-4.681h-2c-3.314 0-5.56 2.716-6 6-.37 2.767-2.938 10.772-2.938 10.772-.041.151-.062.307-.062.464 0 .72.433 1.338 1.052 1.611.006-.024.003-.05.01-.075z" fill="#6b440f" data-original="#6b440f" style="" class=""/><path xmlns="http://www.w3.org/2000/svg" d="m51 33h-2c-3.314 0-6 2.686-6 6v1.901c0-3.314 2.686-6 6-6h2c3.314 0 6 2.686 6 6v-1.901c0-3.314-2.686-6-6-6z" fill="#6b440f" data-original="#6b440f" style="" class=""/><path xmlns="http://www.w3.org/2000/svg" d="m51.857 55.071 2.379-1.19c-.759-.727-1.236-1.746-1.236-2.881v-1.465c-.449.299-.917.573-1.424.79-1.006.431-2.145.431-3.151 0-.507-.217-.976-.491-1.424-.79v1.165z" fill="#e8d0bc" data-original="#e8d0bc" style="" class=""/><path xmlns="http://www.w3.org/2000/svg" d="m32.741 54.63 1.496-.748c-.76-.728-1.237-1.747-1.237-2.882v-1.465c-.449.299-.917.573-1.424.79-1.006.431-2.145.431-3.151 0-.507-.217-.976-.491-1.424-.79v.92z" fill="#e8d0bc" data-original="#e8d0bc" style="" class=""/><g xmlns="http://www.w3.org/2000/svg" fill="#ffd45a"><path d="m45.764 53.882c-.719.689-1.69 1.118-2.764 1.118-1.202 0-2.267.541-3 1.38-.615.703-1 1.613-1 2.62v2h11v-5z" fill="#ffd45a" data-original="#ffd45a" style="" class=""/><path d="m54.236 53.882c.719.689 1.69 1.118 2.764 1.118 1.202 0 2.267.541 3 1.38.615.703 1 1.613 1 2.62v2h-11v-5z" fill="#ffd45a" data-original="#ffd45a" style="" class=""/></g></g></svg>
