<svg id="icon" height="512" viewBox="0 0 128 128" width="512" xmlns="http://www.w3.org/2000/svg"><path d="m65.682 84.193a1 1 0 0 1 -1-1v-21.248a1 1 0 0 1 2 0v21.248a1 1 0 0 1 -1 1z" fill="#2f3a5a"/><path d="m27.464 29.949a20.172 20.172 0 0 1 -.091-2.418 19.818 19.818 0 0 1 30.294-16.324 19.819 19.819 0 0 1 37.145 10.109 20.074 20.074 0 0 1 -.249 2.649h.182a23.526 23.526 0 1 1 -17.245 40.125 19.817 19.817 0 0 1 -33.479-.37 19.817 19.817 0 1 1 -16.56-33.771z" fill="#f0f5f9"/><path d="m29.64 69.4a19.773 19.773 0 0 0 14.387-5.677 19.816 19.816 0 0 0 33.474.371 23.535 23.535 0 0 0 39.912-20.194 23.52 23.52 0 0 1 -39.913 13.078 19.815 19.815 0 0 1 -33.474-.372 19.816 19.816 0 0 1 -33.382-10.566 18.725 18.725 0 0 0 -.317 3.051 19.81 19.81 0 0 0 19.313 20.309z" fill="#d9e2e9"/><path d="m88.45 27.685a1 1 0 0 1 -.544-1.84 20.813 20.813 0 0 1 6.649-2.863 1 1 0 0 1 .383 1.964 19.1 19.1 0 0 0 -5.946 2.579 1 1 0 0 1 -.542.16z" fill="#2f3a5a"/><path d="m38.074 10.756s-12.109 8.762-2.147 20.69a2.852 2.852 0 0 0 -.3.3c-2.883-1.879-3.643-2.04-7.692-1.8-.004 0-2.835-13.873 10.139-19.19z" fill="#d9e2e9"/><path d="m60.894 74.118c-.179 0-.357 0-.537-.007a20.761 20.761 0 0 1 -16.517-8.856 20.817 20.817 0 0 1 -34.517-16.189 20.715 20.715 0 0 1 17.077-19.966c-.029-.543-.038-1.078-.025-1.6a20.819 20.819 0 0 1 30.938-17.663 20.819 20.819 0 0 1 38.5 11.5c-.014.545-.051 1.1-.112 1.665a24.526 24.526 0 1 1 -18.042 42.621 20.679 20.679 0 0 1 -16.765 8.495zm-16.678-11.988.658 1.063a18.817 18.817 0 0 0 31.791.352l.674-1.036.872.875a22.523 22.523 0 1 0 16.509-38.42l-1.32-.027.18-1.13a19.111 19.111 0 0 0 .236-2.516 18.819 18.819 0 0 0 -35.271-9.6l-.511.92-.892-.558a18.8 18.8 0 0 0 -28.678 17.8l.094.959-.955.129a18.819 18.819 0 1 0 15.72 32.065z" fill="#2f3a5a"/><path d="m35.623 32.446a.983.983 0 0 1 -.366-.07 22.014 22.014 0 0 0 -7.76-1.428 1.017 1.017 0 0 1 -1.031-.967 1 1 0 0 1 .967-1.032 23.815 23.815 0 0 1 8.556 1.566 1 1 0 0 1 -.366 1.931z" fill="#2f3a5a"/><path d="m104.615 93.406h-13.359a3.2 3.2 0 0 0 -3.2 3.2v27.194a3.2 3.2 0 0 0 3.2 3.2h18.906a3.2 3.2 0 0 0 3.2-3.2v-21.644z" fill="#dbe2eb"/><path d="m110.162 128h-18.906a4.208 4.208 0 0 1 -4.2-4.2v-27.191a4.208 4.208 0 0 1 4.2-4.2h13.359a1 1 0 0 1 .707.293l8.75 8.75a1 1 0 0 1 .293.707v21.641a4.208 4.208 0 0 1 -4.203 4.2zm-18.906-33.594a2.206 2.206 0 0 0 -2.2 2.2v27.194a2.205 2.205 0 0 0 2.2 2.2h18.906a2.205 2.205 0 0 0 2.2-2.2v-21.23l-8.162-8.164z" fill="#2f3a5a"/><path d="m104.615 98.953a3.2 3.2 0 0 0 3.2 3.2h5.547l-8.75-8.75z" fill="#dbe2eb"/><path d="m113.365 103.156h-5.547a4.208 4.208 0 0 1 -4.2-4.2v-5.55a1 1 0 0 1 1.707-.707l8.75 8.75a1 1 0 0 1 -.707 1.707zm-7.75-7.336v3.133a2.206 2.206 0 0 0 2.2 2.2h3.133z" fill="#2f3a5a"/><path d="m40.711 93.406h-13.359a3.2 3.2 0 0 0 -3.2 3.2v27.194a3.2 3.2 0 0 0 3.2 3.2h18.906a3.2 3.2 0 0 0 3.2-3.2v-21.644z" fill="#dbe2eb"/><path d="m46.258 128h-18.906a4.209 4.209 0 0 1 -4.2-4.2v-27.191a4.209 4.209 0 0 1 4.2-4.2h13.359a1 1 0 0 1 .707.293l8.75 8.75a1 1 0 0 1 .293.707v21.641a4.208 4.208 0 0 1 -4.203 4.2zm-18.906-33.594a2.207 2.207 0 0 0 -2.2 2.2v27.194a2.206 2.206 0 0 0 2.2 2.2h18.906a2.205 2.205 0 0 0 2.2-2.2v-21.23l-8.158-8.164z" fill="#2f3a5a"/><path d="m40.711 98.953a3.2 3.2 0 0 0 3.2 3.2h5.547l-8.75-8.75z" fill="#dbe2eb"/><path d="m49.461 103.156h-5.547a4.208 4.208 0 0 1 -4.2-4.2v-5.55a1 1 0 0 1 1.707-.707l8.75 8.75a1 1 0 0 1 -.707 1.707zm-7.75-7.336v3.133a2.205 2.205 0 0 0 2.2 2.2h3.133z" fill="#2f3a5a"/><path d="m98.491 94.406a1 1 0 0 1 -1-1v-9.213h-63.619v9.213a1 1 0 0 1 -2 0v-10.213a1 1 0 0 1 1-1h65.619a1 1 0 0 1 1 1v10.213a1 1 0 0 1 -1 1z" fill="#2f3a5a"/><g fill="#bac2d3"><path d="m108.078 109.663h-14.292a1 1 0 0 1 0-2h14.292a1 1 0 0 1 0 2z"/><path d="m108.078 115.273h-14.292a1 1 0 0 1 0-2h14.292a1 1 0 0 1 0 2z"/><path d="m108.078 120.883h-14.292a1 1 0 0 1 0-2h14.292a1 1 0 0 1 0 2z"/><path d="m43.95 109.663h-14.292a1 1 0 0 1 0-2h14.292a1 1 0 0 1 0 2z"/><path d="m43.95 115.273h-14.292a1 1 0 1 1 0-2h14.292a1 1 0 1 1 0 2z"/><path d="m43.95 120.883h-14.292a1 1 0 0 1 0-2h14.292a1 1 0 0 1 0 2z"/></g></svg>