<?xml version="1.0"?>
<svg xmlns="http://www.w3.org/2000/svg" xmlns:xlink="http://www.w3.org/1999/xlink" xmlns:svgjs="http://svgjs.com/svgjs" version="1.1" width="512" height="512" x="0" y="0" viewBox="0 0 512 512" style="enable-background:new 0 0 512 512" xml:space="preserve" class=""><g><g xmlns="http://www.w3.org/2000/svg"><g><g><path d="m40 101.606h29.333v312h-29.333z" fill="#6e83b7" data-original="#ff8caf" style=""/></g><g><path d="m69.333 101.606h26.667v312h-26.667z" fill="#566997" data-original="#ff6e91" style="" class=""/></g><g><path d="m96 101.606h29.333v312h-29.333z" fill="#6e83b7" data-original="#e64178" style="" class=""/></g><g><path d="m82.667 413.606v48h-10.667l-32-48z" fill="#fab991" data-original="#fab991" style="" class=""/></g><g><path d="m82.667 413.606v48h10.666l32-48z" fill="#f0915a" data-original="#f0915a" style="" class=""/></g><g><path d="m72 461.606 7.338 11.008c1.583 2.375 5.073 2.375 6.656 0l7.338-11.008z" fill="#353744" data-original="#353744" style="" class=""/></g><g><path d="m40 77.606h85.333v24h-85.333z" fill="#a5c3dc" data-original="#a5c3dc" style=""/></g><g><path d="m40 77.606h42.667v24h-42.667z" fill="#d7e6f0" data-original="#d7e6f0" style="" class=""/></g><g><path d="m109.333 37.606h-53.333c-8.837 0-16 7.163-16 16v24h85.333v-24c0-8.837-7.163-16-16-16z" fill="#463c4b" data-original="#463c4b" style="" class=""/></g><g><path d="m82.667 37.606h-26.667c-8.837 0-16 7.163-16 16v24h42.667z" fill="#555a6e" data-original="#555a6e" style=""/></g></g><g><path d="m440 37.606h-240c-17.673 0-32 14.327-32 32v368c0 17.673 14.327 32 32 32h192l80-72v-328c0-17.674-14.327-32-32-32z" fill="#d7e6f0" data-original="#d7e6f0" style="" class=""/></g><g><path d="m392 469.606v-40c0-17.673 14.327-32 32-32h48z" fill="#a5c3dc" data-original="#a5c3dc" style=""/></g><path d="m339.79 100.998-18.177-14.138c-1.046-.813-2.333-1.255-3.657-1.255-3.29 0-5.956 2.667-5.956 5.957v10.043h-32c-4.418 0-8 3.582-8 8s3.582 8 8 8h32v10.044c0 3.29 2.667 5.956 5.956 5.956 1.324 0 2.611-.441 3.657-1.255l18.177-14.137c2.656-2.066 4.21-5.243 4.21-8.608s-1.554-6.541-4.21-8.607z" fill="#555a6e" data-original="#555a6e" style=""/><path d="m360 245.605h-32v-10.043c0-3.29-2.667-5.957-5.956-5.957-1.324 0-2.611.441-3.657 1.255l-18.177 14.138c-2.656 2.066-4.21 5.242-4.21 8.607s1.554 6.542 4.21 8.608l18.177 14.137c1.046.813 2.333 1.255 3.657 1.255 3.29 0 5.956-2.667 5.956-5.956v-10.044h32c4.418 0 8-3.582 8-8s-3.582-8-8-8z" fill="#555a6e" data-original="#555a6e" style=""/><g><circle cx="248" cy="109.606" fill="#00d2d2" r="48" data-original="#00d2d2" style="" class=""/></g><g><circle cx="248" cy="109.606" fill="#6e83b7" r="32" data-original="#289bc3" style="" class=""/></g><path d="m410.044 173.605h-10.044v-32c0-4.418-3.582-8-8-8s-8 3.582-8 8v32h-10.044c-3.29 0-5.956 2.667-5.956 5.957 0 1.324.441 2.611 1.255 3.657l14.138 18.177c2.066 2.656 5.242 4.21 8.608 4.21s6.542-1.554 8.608-4.21l14.138-18.177c.813-1.045 1.255-2.333 1.255-3.657-.002-3.29-2.669-5.957-5.958-5.957z" fill="#555a6e" data-original="#555a6e" style=""/><path d="m266.044 317.605h-10.044v-32c0-4.418-3.582-8-8-8s-8 3.582-8 8v32h-10.044c-3.29 0-5.956 2.667-5.956 5.957 0 1.324.441 2.611 1.255 3.657l14.138 18.177c2.066 2.656 5.242 4.21 8.608 4.21s6.542-1.554 8.608-4.21l14.138-18.177c.813-1.045 1.255-2.333 1.255-3.657-.002-3.29-2.669-5.957-5.958-5.957z" fill="#555a6e" data-original="#555a6e" style=""/><g><circle cx="392" cy="109.606" fill="#00d2d2" r="48" data-original="#00d2d2" style="" class=""/></g><g><circle cx="392" cy="109.606" fill="#6e83b7" r="32" data-original="#289bc3" style="" class=""/></g><g><circle cx="248" cy="253.606" fill="#00d2d2" r="48" data-original="#00d2d2" style="" class=""/></g><g><circle cx="248" cy="253.606" fill="#6e83b7" r="32" data-original="#289bc3" style="" class=""/></g><g><circle cx="248" cy="397.606" fill="#fa9b37" r="48" data-original="#fa9b37" style=""/></g><g><circle cx="248" cy="397.606" fill="#ffd241" r="32" data-original="#ffd241" style=""/></g><g><circle cx="392" cy="253.606" fill="#00d2d2" r="48" data-original="#00d2d2" style="" class=""/></g><g><circle cx="392" cy="253.606" fill="#6e83b7" r="32" data-original="#289bc3" style="" class=""/></g></g></g></svg>
