<?xml version="1.0"?>
<svg xmlns="http://www.w3.org/2000/svg" xmlns:xlink="http://www.w3.org/1999/xlink" xmlns:svgjs="http://svgjs.com/svgjs" version="1.1" width="512" height="512" x="0" y="0" viewBox="0 0 512 512.002"  xml:space="preserve" class=""><g><path xmlns="http://www.w3.org/2000/svg" d="m0 186 226.441406-175.136719c17.40625-13.464843 41.710938-13.464843 59.117188 0l226.441406 175.136719v277.6875c0 26.679688-21.628906 48.3125-48.3125 48.3125h-415.371094c-26.683594 0-48.316406-21.628906-48.316406-48.3125zm0 0" fill="#69ebfc" data-original="#69ebfc" style=""/><path xmlns="http://www.w3.org/2000/svg" d="m412.171875 462.132812h-312.339844c-25.238281 0-45.695312-20.457031-45.695312-45.695312v-370.742188c0-25.234374 20.457031-45.695312 45.695312-45.695312h312.339844c25.234375 0 45.695313 20.457031 45.695313 45.695312v370.742188c0 25.238281-20.460938 45.695312-45.695313 45.695312zm0 0" fill="#6e83b7" data-original="#6770e6" style="" class=""/><path xmlns="http://www.w3.org/2000/svg" d="m412.171875 0h-312.339844c-25.238281 0-45.695312 20.457031-45.695312 45.695312v30c0-25.238281 20.457031-45.695312 45.695312-45.695312h312.339844c25.234375 0 45.695313 20.457031 45.695313 45.695312v-30c0-25.238281-20.460938-45.695312-45.695313-45.695312zm0 0" fill="#8f95e6" data-original="#8f95e6" style="" class=""/><path xmlns="http://www.w3.org/2000/svg" d="m512 185.910156v277.777344c0 26.683594-21.628906 48.316406-48.3125 48.316406h-308.023438zm0 0" fill="#ffefe4" data-original="#ffefe4" style=""/><path xmlns="http://www.w3.org/2000/svg" d="m188.445312 482h178.820313l-89.410156-81.820312zm0 0" fill="#edd4c2" data-original="#edd4c2" style=""/><path xmlns="http://www.w3.org/2000/svg" d="m0 185.910156v277.777344c0 26.683594 21.632812 48.316406 48.316406 48.316406h308.023438zm0 0" fill="#ffefe4" data-original="#ffefe4" style=""/><path xmlns="http://www.w3.org/2000/svg" d="m463.6875 482h-415.371094c-26.683594 0-48.316406-21.628906-48.316406-48.3125v30c0 26.679688 21.632812 48.3125 48.316406 48.3125h415.371094c26.679688 0 48.3125-21.628906 48.3125-48.3125v-30c0 26.683594-21.628906 48.3125-48.3125 48.3125zm0 0" fill="#edd4c2" data-original="#edd4c2" style=""/><path xmlns="http://www.w3.org/2000/svg" d="m340.539062 126.089844h-169.074218c-6.125 0-11.085938-4.964844-11.085938-11.085938 0-6.125 4.960938-11.085937 11.085938-11.085937h169.074218c6.125 0 11.085938 4.964843 11.085938 11.085937.003906 6.121094-4.960938 11.085938-11.085938 11.085938zm0 0" fill="#ffefe4" data-original="#ffefe4" style=""/><path xmlns="http://www.w3.org/2000/svg" d="m368.257812 172.992188h-224.511718c-6.125 0-11.085938-4.960938-11.085938-11.085938 0-6.121094 4.960938-11.085938 11.085938-11.085938h224.511718c6.125 0 11.085938 4.964844 11.085938 11.085938 0 6.125-4.960938 11.085938-11.085938 11.085938zm0 0" fill="#ffefe4" data-original="#ffefe4" style=""/><path xmlns="http://www.w3.org/2000/svg" d="m320.914062 275.386719h-129.828124c-16.957032 0-30.707032-13.75-30.707032-30.710938 0-16.960937 13.75-30.710937 30.707032-30.710937h129.832031c16.960937 0 30.710937 13.75 30.710937 30.710937 0 16.960938-13.75 30.710938-30.714844 30.710938zm0 0" fill="#69ebfc" data-original="#69ebfc" style=""/></g></svg>
