<?xml version="1.0"?>
<svg xmlns="http://www.w3.org/2000/svg" xmlns:xlink="http://www.w3.org/1999/xlink" xmlns:svgjs="http://svgjs.com/svgjs" version="1.1" width="512" height="512" x="0" y="0" viewBox="0 0 64 64" style="enable-background:new 0 0 512 512" xml:space="preserve" class=""><g><g xmlns="http://www.w3.org/2000/svg" id="Email_maketing" data-name="Email maketing"><path d="m40.13 44.5 20.085 16.076a2 2 0 0 0 .785-1.576v-30.08a2.011 2.011 0 0 0 -.237-.935z" fill="#ffcd00" data-original="#ffcd00" style="" class=""/><path d="m3.237 27.985a2.011 2.011 0 0 0 -.237.935v30.08a2 2 0 0 0 .785 1.576l20.095-16.076z" fill="#ffcd00" data-original="#ffcd00" style="" class=""/><path d="m60.76 27.99-20.63 16.51-6.88-5.5a2.013 2.013 0 0 0 -2.5 0l-6.87 5.5-20.64-16.51a1.971 1.971 0 0 1 .45-.59l27-23.27a2 2 0 0 1 2.62 0l27 23.27a1.971 1.971 0 0 1 .45.59z" fill="#ffde55" data-original="#ffde55" style=""/><path d="m33.25 39a2.013 2.013 0 0 0 -2.5 0l-6.87 5.5-20.095 16.076a1.977 1.977 0 0 0 1.215.424h54a1.977 1.977 0 0 0 1.215-.424l-20.085-16.076z" fill="#ddb200" data-original="#ddb200" style=""/><path d="m24.944 15.982a5 5 0 0 0 2.589 9.659l6.761-1.811-2.588-9.66z" fill="#c79bdf" data-original="#ed1c24" style="" class=""/><path d="m34.294 23.83 17.008 1.654-5.694-21.25-6.639 4.745.001.001.03.02-.03-.02-.001-.001-7.263 5.191z" fill="#9e4bcd" data-original="#2488ff" style="" class=""/><path d="m54.2 24.708a1 1 0 0 0 .707-1.225l-.255-.952-4.922-18.367a1 1 0 0 0 -1.224-.707l-2.9.777 5.694 21.25z" fill="#7a33a1" data-original="#005ece" style="" class=""/><path d="m33.984 34.265a2 2 0 0 0 1.416-2.449l-2.071-7.728-3.864 1.036 2.071 7.727a2 2 0 0 0 2.448 1.414z" fill="#58595b" data-original="#58595b" style=""/><path d="m60.763 27.985-3.763 3.015v19a7.969 7.969 0 0 1 -2.618 5.907l5.833 4.669a2 2 0 0 0 .785-1.576v-30.08a2.011 2.011 0 0 0 -.237-.935z" fill="#ebbf00" data-original="#ebbf00" style="" class=""/><path d="m3 58v1a2 2 0 0 0 .785 1.576l3.22-2.576z" fill="#ebbf00" data-original="#ebbf00" style="" class=""/><path d="m60.759 27.989a1.964 1.964 0 0 0 -.449-.589l-3.31-2.853v6.453z" fill="#ffd422" data-original="#ffd422" style="" class=""/><path d="m57 30.999 3.76-3.009-.001-.001-3.759 3.008z" fill="#ffde55" data-original="#ffde55" style=""/><path d="m49 58h-41.995l-3.22 2.576a1.977 1.977 0 0 0 1.215.424h54a1.977 1.977 0 0 0 1.215-.424l-5.833-4.669a7.963 7.963 0 0 1 -5.382 2.093z" fill="#ddb200" data-original="#ddb200" style=""/><path d="m40.13 44.5 16.87-13.501v-.002z" fill="#ffcd00" data-original="#ffcd00" style="" class=""/><path d="m3.24 27.99 20.64 16.51-20.639-16.511z" fill="#ffcd00" data-original="#ffcd00" style="" class=""/><path d="m33.25 39a2.013 2.013 0 0 0 -2.5 0l-6.87 5.5-16.875 13.5h41.995a7.963 7.963 0 0 0 5.382-2.093l-14.252-11.407z" fill="#ebbf00" data-original="#ebbf00" style="" class=""/><g fill="#ff5023"><path d="m55.216 13.047a1 1 0 0 0 .966.742.972.972 0 0 0 .259-.035l3.864-1.035a1 1 0 1 0 -.518-1.932l-3.864 1.036a1 1 0 0 0 -.707 1.224z" fill="#c79bdf" data-original="#ff5023" style="" class=""/><path d="m54.042 8.15a1 1 0 0 0 .708-.293l2.828-2.828a1 1 0 1 0 -1.414-1.414l-2.829 2.828a1 1 0 0 0 .707 1.707z" fill="#c79bdf" data-original="#ff5023" style="" class=""/><path d="m56.182 18.482a1 1 0 0 0 .707 1.225l3.864 1.035a.972.972 0 0 0 .259.035 1 1 0 0 0 .259-1.966l-3.864-1.036a1 1 0 0 0 -1.225.707z" fill="#c79bdf" data-original="#ff5023" style="" class=""/></g></g></g></svg>
