<?xml version="1.0"?>
<svg xmlns="http://www.w3.org/2000/svg" xmlns:xlink="http://www.w3.org/1999/xlink" xmlns:svgjs="http://svgjs.com/svgjs" version="1.1" width="512" height="512" x="0" y="0" viewBox="0 0 512 512" style="enable-background:new 0 0 512 512" xml:space="preserve" class=""><g><g xmlns="http://www.w3.org/2000/svg"><path d="m481 120h-450v60l56.25 15-56.25 15v210h450v-210l-56.25-15 56.25-15z" fill="#9758d0" data-original="#6da5f2" style="" class=""/><path d="m256 420h225v-210l-56.25-15 56.25-15v-60h-225z" fill="#c293ed" data-original="#5c80e6" style="" class=""/><g><g><path d="m31 180h450v30h-450z" fill="#dbb9f9" data-original="#54548c" style="" class=""/></g></g><g><g><path d="m331 300h90v30h-90z" fill="#6f35a3" data-original="#443d66" style="" class=""/></g></g><path d="m256 180h225v30h-225z" fill="#6f35a3" data-original="#443d66" style="" class=""/><path d="m361 45c0-24.814-20.186-45-45-45-19.717 0-36.973 12.627-42.891 31.406l-17.109 53.967-17.109-53.967c-5.918-18.779-23.174-31.406-42.891-31.406-24.814 0-45 20.186-45 45 0 13.271 5.801 25.796 15.967 34.38l48.054 40.62h-4.021v392l45-45 45 45v-392h-4.014l48.076-40.635c10.137-8.569 15.938-21.094 15.938-34.365zm-180 0c0-8.276 6.738-15 15-15 6.563 0 12.305 4.204 14.297 10.459l15.703 49.541-39.668-33.516c-3.398-2.871-5.332-7.06-5.332-11.484zm144.697 11.47-39.697 33.53 15.703-49.541c1.992-6.255 7.735-10.459 14.297-10.459 8.262 0 15 6.724 15 15 0 4.424-1.934 8.613-5.303 11.47z" fill="#f39400" data-original="#ff6b4d" style="" class=""/><path d="m301 512v-392h-4.014l48.076-40.635c10.137-8.569 15.938-21.094 15.938-34.365 0-24.814-20.186-45-45-45-19.717 0-36.973 12.627-42.891 31.406l-17.109 53.967v381.627zm.703-471.541c1.992-6.255 7.735-10.459 14.297-10.459 8.262 0 15 6.724 15 15 0 4.424-1.934 8.613-5.303 11.47l-39.697 33.53z" fill="#ffaf32" data-original="#f23d3d" style="" class=""/></g></g></svg>
