<svg id="Capa_1" enable-background="new 0 0 512 512" height="512" viewBox="0 0 512 512" width="512" xmlns="http://www.w3.org/2000/svg"><g><g><path d="m454.259 409.6v-34.133l-34.46-60.541 34.46-75.99v-204.803l-198.259-27.437-198.259 27.437v188.632l52.488 92.968-52.488 59.734v34.133l195.821 21.187z" fill="#5ecbf1"/><path d="m454.259 34.133-23.608-3.267v208.07l-34.46 75.99 34.46 60.541v36.625l23.608-2.492v-34.133l-34.46-60.541 34.46-75.99z" fill="#4793ff"/></g><g><path d="m454.259 238.933-90.318-32.16c-3.591-1.279-7.506-1.318-11.122-.113l-99.258 33.086v28.41l200.698-12.156z" fill="#00b084"/><path d="m290.133 256-146.668-65.186c-4.413-1.961-9.45-1.961-13.863 0l-71.861 31.857v33.329l156.022 24.724z" fill="#00cb75"/></g><path d="m430.651 230.527v25.473l-.867 1.482 24.475-1.482v-17.067z" fill="#00917e"/><path d="m57.741 256h396.518v119.467h-396.518z" fill="#bee75e"/><path d="m430.651 256h23.608v119.467h-23.608z" fill="#8cdb4f"/><path d="m461.867 34.133h-411.734c-8.836 0-16-7.163-16-16v-10.133c0-4.418 3.582-8 8-8h427.733c4.418 0 8 3.582 8 8v10.133c.001 8.837-7.163 16-15.999 16z" fill="#b6cdf0"/><path d="m165.393 102.4h-71.526c-4.713 0-8.533-3.821-8.533-8.533v-17.067c0-4.713 3.821-8.533 8.533-8.533h80.059c6.343 0 10.469 6.676 7.632 12.35l-8.533 17.067c-1.445 2.89-4.4 4.716-7.632 4.716z" fill="#fff7f4"/><path d="m383.467 170.667h18.133c4.418 0 8-3.582 8-8v-52.267c0-4.418-3.582-8-8-8h-18.133c-4.418 0-8 3.582-8 8v52.267c0 4.418 3.581 8 8 8z" fill="#fff7f4"/><path d="m469.625 0h-23.608c4.552 0 8.242 3.69 8.242 8.241v9.409c0 9.103-7.38 16.483-16.483 16.483h23.608c9.103 0 16.483-7.38 16.483-16.483v-9.409c0-4.551-3.69-8.241-8.242-8.241z" fill="#97b6e6"/><path d="m57.741 409.6-38.85 77.701c-5.674 11.347 2.577 24.699 15.264 24.699h443.689c12.687 0 20.939-13.352 15.265-24.699l-38.85-77.701z" fill="#bee75e"/><path d="m493.11 487.301-38.851-77.701h-23.694l38.851 77.701c5.673 11.347-2.579 24.699-15.266 24.699h23.694c12.688 0 20.939-13.352 15.266-24.699z" fill="#8cdb4f"/><g><path d="m410.133 460.8h-18.133c-4.418 0-8-3.582-8-8v-86.4c0-4.418 3.582-8 8-8h18.133c4.418 0 8 3.582 8 8v86.4c0 4.418-3.581 8-8 8z" fill="#b6cdf0"/><path d="m409.892 358.4h-17.65c-1.068 0-2.085.21-3.022.58 3.055 1.206 5.22 4.178 5.22 7.662v85.917c0 3.484-2.164 6.456-5.22 7.662.937.37 1.954.58 3.022.58h17.65c4.552 0 8.241-3.69 8.241-8.242v-85.917c0-4.552-3.689-8.242-8.241-8.242z" fill="#97b6e6"/><path d="m384 384.807h34.133v15.453h-34.133z" fill="#28487a"/></g><g><path d="m221.867 204.8v-51.2l46.96 17.61c7.383 2.768 7.383 13.211 0 15.98z" fill="#ff6b6b"/><g><path d="m221.866 263.726c-4.268 0-7.726-3.459-7.726-7.726v-102.4c0-4.267 3.459-7.726 7.726-7.726 4.268 0 7.726 3.459 7.726 7.726v102.4c.001 4.267-3.458 7.726-7.726 7.726z" fill="#b6cdf0"/></g></g><g><g><ellipse cx="256" cy="384" fill="#fff7f4" rx="59.733" ry="59.733" transform="matrix(.924 -.383 .383 .924 -127.464 127.197)"/><path d="m256 324.267c-4.057 0-8.017.409-11.847 1.18 27.314 5.496 47.886 29.621 47.886 58.554s-20.572 53.057-47.886 58.554c3.83.771 7.79 1.18 11.847 1.18 32.99 0 59.733-26.744 59.733-59.733s-26.743-59.735-59.733-59.735z" fill="#f0e6e6"/><g><g><path d="m258.133 383.193h-4.267c-4.267 0-7.726-3.459-7.726-7.726s3.459-7.726 7.726-7.726h4.267c4.267 0 7.726 3.459 7.726 7.726.001 4.267-3.459 7.726-7.726 7.726z" fill="#c7b7b7"/></g></g><g><g><path d="m292.267 383.193h-4.267c-4.267 0-7.726-3.459-7.726-7.726s3.459-7.726 7.726-7.726h4.267c4.267 0 7.726 3.459 7.726 7.726s-3.459 7.726-7.726 7.726z" fill="#c7b7b7"/></g></g><g><g><path d="m258.133 417.327h-4.267c-4.267 0-7.726-3.459-7.726-7.726s3.459-7.726 7.726-7.726h4.267c4.267 0 7.726 3.459 7.726 7.726.001 4.266-3.459 7.726-7.726 7.726z" fill="#c7b7b7"/></g></g></g><path d="m291.2 477.867h-70.4c-8.837 0-16-7.163-16-16v-10.133c0-4.418 3.582-8 8-8h86.4c4.418 0 8 3.582 8 8v10.133c0 8.836-7.163 16-16 16z" fill="#ff6b6b"/><path d="m298.959 443.733h-23.694c4.552 0 8.241 3.69 8.241 8.241v9.409c0 9.103-7.38 16.483-16.483 16.483h23.694c9.103 0 16.483-7.38 16.483-16.483v-9.409c0-4.551-3.69-8.241-8.241-8.241z" fill="#ff3d7d"/></g></g></svg>