<?xml version="1.0"?>
<svg xmlns="http://www.w3.org/2000/svg" xmlns:xlink="http://www.w3.org/1999/xlink" xmlns:svgjs="http://svgjs.com/svgjs" version="1.1" width="512" height="512" x="0" y="0" viewBox="0 0 512 512" style="enable-background:new 0 0 512 512" xml:space="preserve" class=""><g><g xmlns="http://www.w3.org/2000/svg"><g><g><path d="m477.223 200.333c0-35.841-29.159-65-65-65h-156.223l-10.667 177.667 10.667 149.333h221.223z" fill="#642985" data-original="#29376d" style=""/><path d="m99.777 135.333c-35.841 0-65 29.159-65 65v262h221.223v-327z" fill="#9e4bcd" data-original="#47568c" style="" class=""/></g><g><path d="m447.223 200.333c0-19.299-15.701-35-35-35h-156.223l-10.667 158.333 10.667 138.667h191.223z" fill="#eaf1ff" data-original="#eaf1ff" style="" class=""/><path d="m99.777 165.333c-19.299 0-35 15.701-35 35v262h191.223v-297z" fill="#f9f9f9" data-original="#f9f9f9" style="" class=""/></g><g><path d="m377.662 449.5-121.662 31.25-10.001 16.25 10.001 15h193.5c34.463 0 62.5-28.037 62.5-62.5z" fill="#9e4bcd" data-original="#47568c" style="" class=""/><path d="m256 449.5-4.75 15.625 4.75 15.625h121.662v-31.25z" fill="#642985" data-original="#29376d" style=""/><path d="m0 449.5c0 34.463 28.037 62.5 62.5 62.5h193.5v-31.25l-121.662-31.25z" fill="#84589d" data-original="#61729b" style="" class=""/><path d="m134.338 449.5h121.662v31.25h-121.662z" fill="#9e4bcd" data-original="#47568c" style="" class=""/></g></g><g><path d="m256 0-12.633 143.598 12.633 207.057s88.585-98.688 111.034-128.575c18.159-24.175 27.758-52.975 27.758-83.287 0-76.531-62.262-138.793-138.792-138.793z" fill="#fdae02" data-original="#fdae02" style=""/><path d="m117.208 138.792c0 30.312 9.599 59.112 27.758 83.286 22.449 29.888 111.034 128.577 111.034 128.577v-350.655c-76.53 0-138.792 62.262-138.792 138.792z" fill="#fdcb02" data-original="#fdcb02" style=""/></g><g><path d="m373.638 331.345h-117.638l-10.667 20.655 10.667 9.345h117.638z" fill="#f7d586" data-original="#f7d586" style="" class=""/><path d="m138.362 331.345h117.638v30h-117.638z" fill="#f9e89c" data-original="#f9e89c" style="" class=""/></g><g><path d="m256 228.484h15.037v-93.735h-15.037l-10.667 46.584z" fill="#eaf1ff" data-original="#eaf1ff" style="" class=""/><path d="m273.241 96.574c0-9.522-7.719-17.241-17.241-17.241l-10.667 16.667 10.667 17.815c9.522 0 17.241-7.719 17.241-17.241z" fill="#eaf1ff" data-original="#eaf1ff" style="" class=""/><g fill="#f9f9f9"><path d="m241.037 134.749h14.963v93.735h-14.963z" fill="#f9f9f9" data-original="#f9f9f9" style="" class=""/><path d="m238.759 96.574c0 9.522 7.719 17.241 17.241 17.241v-34.482c-9.522 0-17.241 7.719-17.241 17.241z" fill="#f9f9f9" data-original="#f9f9f9" style="" class=""/></g></g></g></g></svg>
