<?xml version="1.0"?>
<svg xmlns="http://www.w3.org/2000/svg" xmlns:xlink="http://www.w3.org/1999/xlink" xmlns:svgjs="http://svgjs.com/svgjs" version="1.1" width="512" height="512" x="0" y="0" viewBox="0 0 464 464" style="enable-background:new 0 0 512 512" xml:space="preserve" class=""><g><path xmlns="http://www.w3.org/2000/svg" d="m464 32v208c0 17.679688-14.320312 32-32 32h-56l-94.078125-94.078125c-6.320313-6.320313-14.960937-9.921875-24-9.921875-9.363281 0-17.84375 3.839844-24 9.921875-6.082031 6.15625-9.921875 14.636719-9.921875 24 0 9.039063 3.601562 17.679687 9.921875 24l46.078125 46.078125h-248c-17.679688 0-32-14.320312-32-32v-208c0-17.679688 14.320312-32 32-32h400c17.679688 0 32 14.320312 32 32zm0 0" fill="#9e4bcd" data-original="#627da2" style=""/><path xmlns="http://www.w3.org/2000/svg" d="m192 424h232v40h-232zm0 0" fill="#9e4bcd" data-original="#627da2" style=""/><path xmlns="http://www.w3.org/2000/svg" d="m280 272-46.078125-46.078125c-6.320313-6.320313-9.921875-14.960937-9.921875-24 0-9.363281 3.839844-17.84375 9.921875-24 6.15625-6.082031 14.636719-9.921875 24-9.921875 9.039063 0 17.679687 3.601562 24 9.921875l94.078125 94.078125h48v152h-232v-40l-40-40v-72zm0 0" fill="#e9e9f1" data-original="#e9e9f1" style="" class=""/><g xmlns="http://www.w3.org/2000/svg" fill="#ffba4f"><path d="m424 112v16c0 8.800781-7.199219 16-16 16h-16v-32zm0 0" fill="#ffe300" data-original="#ffba4f" style="" class=""/><path d="m424 96v16h-32v-32h16c8.800781 0 16 7.199219 16 16zm0 0" fill="#ffe300" data-original="#ffba4f" style="" class=""/><path d="m360 112h32v32h-32zm0 0" fill="#ffe300" data-original="#ffba4f" style="" class=""/><path d="m360 80h32v32h-32zm0 0" fill="#ffe300" data-original="#ffba4f" style="" class=""/><path d="m360 112v32h-16c-8.800781 0-16-7.199219-16-16v-16zm0 0" fill="#ffe300" data-original="#ffba4f" style="" class=""/><path d="m360 80v32h-32v-16c0-8.800781 7.199219-16 16-16zm0 0" fill="#ffe300" data-original="#ffba4f" style="" class=""/></g><path xmlns="http://www.w3.org/2000/svg" d="m184 128v32c0 39.761719-32.238281 72-72 72s-72-32.238281-72-72v-32zm0 0" fill="#e9e9f1" data-original="#e9e9f1" style="" class=""/><path xmlns="http://www.w3.org/2000/svg" d="m184 72v56h-144v-56l24 24 48-64 48 64zm0 0" fill="#ffe300" data-original="#ffba4f" style="" class=""/><path xmlns="http://www.w3.org/2000/svg" d="m192 408h232v16h-232zm0 0" fill="#cdcdd3" data-original="#cdcdd3" style=""/><path xmlns="http://www.w3.org/2000/svg" d="m152 272h128v16h-128zm0 0" fill="#cdcdd3" data-original="#cdcdd3" style=""/><path xmlns="http://www.w3.org/2000/svg" d="m424 288h-32l-16-16h48zm0 0" fill="#cdcdd3" data-original="#cdcdd3" style=""/><path xmlns="http://www.w3.org/2000/svg" d="m298.34375 365.65625-34.34375-34.34375v-59.3125h16v52.6875l29.65625 29.65625zm0 0" fill="#cdcdd3" data-original="#cdcdd3" style=""/><path xmlns="http://www.w3.org/2000/svg" d="m104 88h16v16h-16zm0 0" fill="#425e82" data-original="#425e82" style=""/><path xmlns="http://www.w3.org/2000/svg" d="m112 208c-26.472656 0-48-21.527344-48-48h16c0 17.648438 14.351562 32 32 32s32-14.351562 32-32h16c0 26.472656-21.527344 48-48 48zm0 0" fill="#425e82" data-original="#425e82" style=""/><path xmlns="http://www.w3.org/2000/svg" d="m384 80h16v64h-16zm0 0" fill="#eba338" data-original="#eba338" style=""/><path xmlns="http://www.w3.org/2000/svg" d="m328 104h96v16h-96zm0 0" fill="#eba338" data-original="#eba338" style=""/><path xmlns="http://www.w3.org/2000/svg" d="m352 80h16v64h-16zm0 0" fill="#eba338" data-original="#eba338" style=""/><path xmlns="http://www.w3.org/2000/svg" d="m400 168h16v16h-16zm0 0" fill="#425e82" data-original="#425e82" style=""/><path xmlns="http://www.w3.org/2000/svg" d="m368 168h16v16h-16zm0 0" fill="#425e82" data-original="#425e82" style=""/><path xmlns="http://www.w3.org/2000/svg" d="m336 168h16v16h-16zm0 0" fill="#425e82" data-original="#425e82" style=""/></g></svg>
