<?xml version="1.0"?>
<svg xmlns="http://www.w3.org/2000/svg" xmlns:xlink="http://www.w3.org/1999/xlink" xmlns:svgjs="http://svgjs.com/svgjs" version="1.1" width="512" height="512" x="0" y="0" viewBox="0 0 512 512" style="enable-background:new 0 0 512 512" xml:space="preserve" class=""><g><rect xmlns="http://www.w3.org/2000/svg" fill="#e4c0f9" height="456" rx="16" width="288" x="112" y="32" data-original="#5771e5" style="" class=""/><path xmlns="http://www.w3.org/2000/svg" d="m336 280-88-88h-104l136 136h56z" fill="#ed6445" data-original="#ed6445" style="" class=""/><path xmlns="http://www.w3.org/2000/svg" d="m336 416h-192v24l-64-56 64-56v24h192z" fill="#ed6445" data-original="#ed6445" style="" class=""/><circle xmlns="http://www.w3.org/2000/svg" cx="336" cy="352" fill="#f7c04a" r="96" data-original="#f7c04a" style="" class=""/><path xmlns="http://www.w3.org/2000/svg" d="m367.45347 305.65823q-1.98865-1.35336-4.08488-2.52956a8.02164 8.02164 0 0 1 -3.55973-10.00413 8.00909 8.00909 0 0 1 11.33714-3.97934q2.7474 1.53849 5.35373 3.31509a8.01013 8.01013 0 0 1 1.49951 11.91789 8.02056 8.02056 0 0 1 -10.54577 1.28005z" fill="#f5a431" data-original="#f5a431" style="" class=""/><path xmlns="http://www.w3.org/2000/svg" d="m336 424a72.10774 72.10774 0 0 1 -71.43507-62.95774 8.0184 8.0184 0 0 1 7.93843-9.04226h.00131a8.02018 8.02018 0 0 1 7.93779 7.05727 56.00391 56.00391 0 1 0 107.56094-27.86422 7.988 7.988 0 0 1 3.543-9.94916l.00568-.00315a7.97074 7.97074 0 0 1 11.26928 3.91811 72.02414 72.02414 0 0 1 -66.82136 98.84115z" fill="#f5a431" data-original="#f5a431" style="" class=""/><path xmlns="http://www.w3.org/2000/svg" d="m328.98438 340h31.01562v-16h-16v-16h-16v16.0498a16.97219 16.97219 0 0 0 -3.13477 33.41211l18.38868 4.59766a.98491.98491 0 0 1 -.23829 1.94043h-31.01562v16h16v16h16v-16.0498a16.97219 16.97219 0 0 0 3.13477-33.41211l-18.38868-4.59766a.98491.98491 0 0 1 .23829-1.94043z" fill="#f5a431" data-original="#f5a431" style="" class=""/><g xmlns="http://www.w3.org/2000/svg" fill="#4356e6"><path d="m304 32a8.00261 8.00261 0 0 1 -2.34009 5.65991l-8 8a8.00769 8.00769 0 0 1 -5.65991 2.34009h-64a8.00769 8.00769 0 0 1 -5.65991-2.34009l-8-8a8.00261 8.00261 0 0 1 -2.34009-5.65991z" fill="#9e4bcd" data-original="#4356e6" style="" class=""/><path d="m136 56h16v16h-16z" fill="#9e4bcd" data-original="#4356e6" style="" class=""/><path d="m168 56h16v16h-16z" fill="#9e4bcd" data-original="#4356e6" style="" class=""/><path d="m344 56h32v16h-32z" fill="#9e4bcd" data-original="#4356e6" style="" class=""/></g><path xmlns="http://www.w3.org/2000/svg" d="m216 184h136v24l64-56-64-56v24h-136z" fill="#ed6445" data-original="#ed6445" style="" class=""/><circle xmlns="http://www.w3.org/2000/svg" cx="176" cy="184" fill="#f7c04a" r="96" data-original="#f7c04a" style="" class=""/><path xmlns="http://www.w3.org/2000/svg" d="m176 256a72.10774 72.10774 0 0 1 -71.43507-62.95774 8.0184 8.0184 0 0 1 7.93843-9.04226h.00131a8.02018 8.02018 0 0 1 7.93779 7.05727 56.00391 56.00391 0 1 0 107.56094-27.86422 7.988 7.988 0 0 1 3.543-9.94916l.00568-.00315a7.97074 7.97074 0 0 1 11.26928 3.91811 72.02414 72.02414 0 0 1 -66.82136 98.84115z" fill="#f5a431" data-original="#f5a431" style="" class=""/><path xmlns="http://www.w3.org/2000/svg" d="m168.98438 172h31.01562v-16h-16v-16h-16v16.0498a16.97219 16.97219 0 0 0 -3.13477 33.41211l18.38868 4.59766a.98491.98491 0 0 1 -.23829 1.94043h-31.01562v16h16v16h16v-16.0498a16.97219 16.97219 0 0 0 3.13477-33.41211l-18.38868-4.59766a.98491.98491 0 0 1 .23829-1.94043z" fill="#f5a431" data-original="#f5a431" style="" class=""/><path xmlns="http://www.w3.org/2000/svg" d="m207.45347 137.65823q-1.98866-1.35336-4.08488-2.52956a8.02164 8.02164 0 0 1 -3.55973-10.00413 8.00909 8.00909 0 0 1 11.33714-3.97934q2.7474 1.53849 5.35373 3.31509a8.01013 8.01013 0 0 1 1.49951 11.91789 8.02056 8.02056 0 0 1 -10.54577 1.28005z" fill="#f5a431" data-original="#f5a431" style="" class=""/></g></svg>
