<?xml version="1.0"?>
<svg xmlns="http://www.w3.org/2000/svg" xmlns:xlink="http://www.w3.org/1999/xlink" xmlns:svgjs="http://svgjs.com/svgjs" version="1.1" width="512" height="512" x="0" y="0" viewBox="0 0 64 64" style="enable-background:new 0 0 512 512" xml:space="preserve" class=""><g><g xmlns="http://www.w3.org/2000/svg" id="flat"><path d="m28 6h18v9h-18z" fill="#6f3291" data-original="#143441" style="" class=""/><path d="m28 22v-13a2 2 0 0 1 2-2h14a2 2 0 0 1 2 2v9h4v-10a5.015 5.015 0 0 0 -5-5h-16a5.015 5.015 0 0 0 -5 5v14z" fill="#9e4bcd" data-original="#394d5c" style="" class=""/><path d="m3 57h58v4h-58z" fill="#ad6327" data-original="#ad6327" style=""/><path d="m28 15h18v20h-18z" fill="#ffd782" data-original="#ffd782" style=""/><path d="m41 18h2v2h-2z" fill="#9e4bcd" data-original="#394d5c" style="" class=""/><path d="m31 18h2v2h-2z" fill="#9e4bcd" data-original="#394d5c" style="" class=""/><path d="m28 18a4 4 0 0 0 0 8z" fill="#f9bb4b" data-original="#f9bb4b" style=""/><path d="m25 39h25v18h-25z" fill="#cdeef6" transform="matrix(-1 0 0 -1 75 96)" data-original="#cdeef6" style=""/><path d="m22 39a3 3 0 0 0 -3 3v15h6v-18z" fill="#92cdde" data-original="#92cdde" style="" class=""/><path d="m53 39a3 3 0 0 1 3 3v15h-6v-18z" fill="#92cdde" data-original="#92cdde" style="" class=""/><g fill="#394d5c"><path d="m36 21h2v4h-2z" fill="#9e4bcd" data-original="#394d5c" style="" class=""/><path d="m37 32a5.006 5.006 0 0 1 -5-5h2a3 3 0 0 0 6 0h2a5.006 5.006 0 0 1 -5 5z" fill="#9e4bcd" data-original="#394d5c" style="" class=""/><path d="m50 32h-7v-2h6v-4h2v5a1 1 0 0 1 -1 1z" fill="#9e4bcd" data-original="#394d5c" style="" class=""/></g><path d="m46 18h3.966a2.034 2.034 0 0 1 2.034 2.034v6.966a0 0 0 0 1 0 0h-6a0 0 0 0 1 0 0v-9a0 0 0 0 1 0 0z" fill="#6f3291" data-original="#143441" style="" class=""/><path d="m35 45-2 8 4 4 4-4-2-8z" fill="#9e4bcd" data-original="#394d5c" style="" class=""/><path d="m39 45h-4l-1-3 3-3 3 3z" fill="#6f3291" data-original="#143441" style="" class=""/><path d="m31 45-2-6h8z" fill="#92cdde" data-original="#92cdde" style="" class=""/><path d="m43 45 2-6h-8z" fill="#92cdde" data-original="#92cdde" style="" class=""/><path d="m18 51a4 4 0 0 1 4 4 2 2 0 0 1 -2 2h-4a2 2 0 0 1 -2-2 4 4 0 0 1 4-4z" fill="#ffd782" data-original="#ffd782" style=""/><path d="m57 51a4 4 0 0 1 4 4 2 2 0 0 1 -2 2h-4a2 2 0 0 1 -2-2 4 4 0 0 1 4-4z" fill="#ffd782" data-original="#ffd782" style=""/><path d="m12 57h30v4h-30z" fill="#66342e" data-original="#66342e" style="" class=""/><path d="m54 57a4 4 0 0 1 4 4 0 0 0 0 1 0 0h-8a0 0 0 0 1 0 0 4 4 0 0 1 4-4z" fill="#6f3291" data-original="#143441" style="" class=""/><path d="m3 7v15a4 4 0 0 0 4 4h2l5 7v-7h2a4.012 4.012 0 0 0 4-4v-15a4 4 0 0 0 -4-4h-9a4 4 0 0 0 -4 4z" fill="#f98c96" data-original="#f98c96" style="" class=""/><path d="m12 13h-2a3 3 0 0 1 3-3v2a1 1 0 0 0 -1 1z" fill="#fcf05a" data-original="#fcf05a" style=""/><path d="m8 13h-2a7.008 7.008 0 0 1 7-7v2a5.006 5.006 0 0 0 -5 5z" fill="#fcf05a" data-original="#fcf05a" style=""/><path d="m10.218 15.495h2v3.445h-2z" fill="#f4f4e6" transform="matrix(.707 -.707 .707 .707 -8.889 12.975)" data-original="#f4f4e6" style="" class=""/><path d="m10.172 20 4-4 1 1a2.829 2.829 0 0 1 0 4 2.828 2.828 0 0 1 -4 0z" fill="#9e4bcd" data-original="#195c85" style="" class=""/></g></g></svg>
