<svg id="icon" height="512" viewBox="0 0 128 128" width="512" xmlns="http://www.w3.org/2000/svg"><path d="m109.607 40.473c.055-.674.09-1.353.09-2.04a24.887 24.887 0 0 0 -43.171-16.888 22.577 22.577 0 0 0 -30.826 6.882 18.466 18.466 0 0 0 -25.4 23.656 18.46 18.46 0 0 0 18.184 32.133 18.454 18.454 0 0 0 25.566 3.313 19.895 19.895 0 0 0 35.15-2.029 24.895 24.895 0 1 0 20.405-45.028z" fill="#f0f5f9"/><path d="m127 64.215a24.91 24.91 0 0 1 -37.8 21.29 19.892 19.892 0 0 1 -35.15 2.021 18.442 18.442 0 0 1 -25.565-3.31 18.467 18.467 0 0 1 -26.975-20.416 18.459 18.459 0 0 0 26.976 11.806 18.442 18.442 0 0 0 25.565 3.31 19.882 19.882 0 0 0 17.049 9.625c8.041 0 11.776-2.154 11.509-9.358 3.767 2.284 13.422 4.269 18.143 4.269 12.285 0 23.844-11.866 25.874-23.563a25.263 25.263 0 0 1 .374 4.326z" fill="#d9e2e9"/><g fill="#2f3a5a"><path d="m71.094 98.159a20.733 20.733 0 0 1 -17.321-9.206 19.456 19.456 0 0 1 -25.539-3.471 19.459 19.459 0 0 1 -19.172-33.817 19.463 19.463 0 0 1 26.3-24.515 23.577 23.577 0 0 1 30.992-6.873 25.887 25.887 0 0 1 44.346 18.156c0 .425-.012.867-.039 1.336a25.895 25.895 0 1 1 -21.031 47.131 20.954 20.954 0 0 1 -18.536 11.259zm-17.043-11.63a1.019 1.019 0 0 1 .19.018 1 1 0 0 1 .666.466 18.894 18.894 0 0 0 33.385-1.927 1 1 0 0 1 1.43-.44 23.894 23.894 0 1 0 19.585-43.219 1 1 0 0 1 -.7-1.035c.059-.718.087-1.358.087-1.959a23.887 23.887 0 0 0 -41.434-16.209 1 1 0 0 1 -1.26.176 21.575 21.575 0 0 0 -29.457 6.578 1 1 0 0 1 -1.294.344 17.269 17.269 0 0 0 -7.949-1.922 17.47 17.47 0 0 0 -16.075 24.29 1 1 0 0 1 -.423 1.26 17.46 17.46 0 0 0 17.198 30.394 1 1 0 0 1 1.274.251 17.453 17.453 0 0 0 24.18 3.135 1.006 1.006 0 0 1 .597-.201z"/><path d="m102.105 90.1a25.838 25.838 0 0 1 -13.422-3.748 1 1 0 0 1 1.039-1.709 23.9 23.9 0 0 0 36.278-20.432 1 1 0 0 1 2 0 25.921 25.921 0 0 1 -25.895 25.889z"/><path d="m32.047 41.74a1 1 0 0 1 -1-1 23.585 23.585 0 0 1 42.812-13.657 1 1 0 1 1 -1.629 1.16 21.585 21.585 0 0 0 -39.183 12.5 1 1 0 0 1 -1 .997z"/><path d="m14.564 59.228a1 1 0 0 1 -.69-.276 19.462 19.462 0 0 1 13.426-33.552 1 1 0 0 1 0 2 17.481 17.481 0 0 0 -17.461 17.463 17.306 17.306 0 0 0 5.416 12.637 1 1 0 0 1 -.691 1.724z"/></g><path d="m63.984 42.592a24.257 24.257 0 0 0 -24.257 24.257c0 13.4 24.257 47.61 24.257 47.61s24.246-34.213 24.246-47.61a24.247 24.247 0 0 0 -24.246-24.257zm0 37.713a14.272 14.272 0 1 1 14.266-14.266 14.27 14.27 0 0 1 -14.266 14.266z" fill="#f26176"/><path d="m63.984 115.458a1 1 0 0 1 -.815-.421c-1-1.408-24.441-34.628-24.441-48.188a25.251 25.251 0 1 1 50.5 0c0 13.56-23.431 46.78-24.429 48.188a1 1 0 0 1 -.815.421zm0-71.866a23.282 23.282 0 0 0 -23.256 23.257c0 11.558 19.043 39.764 23.256 45.86 4.21-6.1 23.245-34.305 23.245-45.86a23.277 23.277 0 0 0 -23.245-23.257zm0 37.714a15.273 15.273 0 1 1 15.266-15.266 15.289 15.289 0 0 1 -15.266 15.266zm0-28.545a13.273 13.273 0 1 0 13.266 13.279 13.294 13.294 0 0 0 -13.266-13.279z" fill="#2f3a5a"/></svg>