<?xml version="1.0"?>
<svg xmlns="http://www.w3.org/2000/svg" xmlns:xlink="http://www.w3.org/1999/xlink" xmlns:svgjs="http://svgjs.com/svgjs" version="1.1" width="512" height="512" x="0" y="0" viewBox="0 0 128 128" style="enable-background:new 0 0 512 512" xml:space="preserve" class=""><g><rect xmlns="http://www.w3.org/2000/svg" fill="#9758d0" height="102" rx="4.128" width="60.84" x="18.25" y="13" data-original="#547982" style="" class=""/><path xmlns="http://www.w3.org/2000/svg" d="m79.09 30.1h26.42a4.241 4.241 0 0 1 4.241 4.241v48.725a4.241 4.241 0 0 1 -4.241 4.241h-26.42a0 0 0 0 1 0 0v-57.207a0 0 0 0 1 0 0z" fill="#dac5ed" data-original="#6ae1db" style="" class=""/><path xmlns="http://www.w3.org/2000/svg" d="m25.968 21.5h45.403v20.431h-45.403z" fill="#dac5ed" data-original="#6ae1db" style="" class=""/><path xmlns="http://www.w3.org/2000/svg" d="m55.253 51.465h16.118v8.399h-16.118z" fill="#e43c53" data-original="#e43c53" style=""/><path xmlns="http://www.w3.org/2000/svg" d="m55.253 66.75h16.118v8.399h-16.118z" fill="#69b921" data-original="#69b921" style=""/><path xmlns="http://www.w3.org/2000/svg" d="m55.253 82.034h16.118v23.958h-16.118z" fill="#fbbe2c" data-original="#fbbe2c" style=""/><g xmlns="http://www.w3.org/2000/svg" fill="#ececf1"><path d="m25.628 51.465h8.4v8.4h-8.4z" fill="#ececf1" data-original="#ececf1" style=""/><path d="m40.27 51.465h8.399v8.4h-8.399z" fill="#ececf1" data-original="#ececf1" style=""/><path d="m25.628 66.75h8.4v8.399h-8.4z" fill="#ececf1" data-original="#ececf1" style=""/><path d="m40.27 66.75h8.399v8.399h-8.399z" fill="#ececf1" data-original="#ececf1" style=""/><path d="m25.628 82.034h8.4v8.399h-8.4z" fill="#ececf1" data-original="#ececf1" style=""/><path d="m40.27 82.034h8.399v8.399h-8.399z" fill="#ececf1" data-original="#ececf1" style=""/><path d="m25.628 97.592h8.4v8.399h-8.4z" fill="#ececf1" data-original="#ececf1" style=""/><path d="m40.27 97.592h8.399v8.399h-8.399z" fill="#ececf1" data-original="#ececf1" style=""/></g><path xmlns="http://www.w3.org/2000/svg" d="m93.257 30.099h6.945v57.207h-6.945z" fill="#9758d0" data-original="#547982" style="" class=""/></g></svg>
