<?xml version="1.0"?>
<svg xmlns="http://www.w3.org/2000/svg" xmlns:xlink="http://www.w3.org/1999/xlink" xmlns:svgjs="http://svgjs.com/svgjs" version="1.1" width="512" height="512" x="0" y="0" viewBox="0 0 497 497" style="enable-background:new 0 0 512 512" xml:space="preserve" class=""><g><g xmlns="http://www.w3.org/2000/svg"><path d="m431.287 493.628-370.213 1.021c-16.569 0-30-13.431-30-30l.383-432.128c0-11.101 4.572-23.315 13.535-28.504 4.415-2.554 9.541-4.017 15.008-4.017h377c16.569 0 30 13.431 30 30v437c0 5.467-1.462 10.593-4.018 15.007-5.188 8.963-20.593 11.621-31.695 11.621z" fill="#f8f7f7" data-original="#f8f7f7" style="" class=""/><path d="m462.97 482c-5.18 8.97-14.87 15-25.97 15h-377c-16.57 0-30-13.43-30-30v-437c0-11.1 6.03-20.79 15-25.97v462.97c0 8.27 6.73 15 15 15z" fill="#e8e8e8" data-original="#e8e8e8" style=""/><path d="m115.713 404.096.766-311.319c0-9.319 3.895-18.926 12.521-21.147 1.598-.411 3.273-.63 5-.63h229c11.046 0 20 8.954 20 20v315c0 1.669-.204 3.29-.59 4.84-2.164 8.707-12.81 13.426-22.187 13.426l-224.511-.17c-11.045 0-19.999-8.955-19.999-20z" fill="#b6c4cf" data-original="#b6c4cf" style="" class=""/><path d="m382.41 410.84c-2.16 8.71-10.03 15.16-19.41 15.16h-229c-11.05 0-20-8.95-20-20v-315c0-9.32 6.37-17.15 15-19.37v332.37c0 3.87 3.13 7 7 7h227c8.96 0 15.22-.06 19.41-.16z" fill="#9facba" data-original="#9facba" style=""/><path d="m317 248.5v109.5c0 11.05-8.95 20-20 20h-97c-11.05 0-20-8.95-20-20v-109.5l68.205-5.085z" fill="#7f81db" data-original="#dc4955" style="" class=""/><path d="m317 139v109.5h-137v-109.5c0-11.05 8.95-20 20-20h97c11.05 0 20 8.95 20 20z" fill="#5859a1" data-original="#df646e" style="" class=""/><g><g><path d="m249 214c-4.143 0-7.5-3.358-7.5-7.5v-45c0-4.142 3.357-7.5 7.5-7.5s7.5 3.358 7.5 7.5v45c0 4.142-3.357 7.5-7.5 7.5z" fill="#f8f7f7" data-original="#f8f7f7" style="" class=""/></g><g><path d="m248.5 346c-17.921 0-32.5-14.58-32.5-32.5s14.579-32.5 32.5-32.5 32.5 14.58 32.5 32.5-14.579 32.5-32.5 32.5zm0-50c-9.649 0-17.5 7.851-17.5 17.5s7.851 17.5 17.5 17.5 17.5-7.851 17.5-17.5-7.851-17.5-17.5-17.5z" fill="#f8f7f7" data-original="#f8f7f7" style="" class=""/></g></g><g><g><path d="m272 43.5h-47c-4.143 0-7.5-3.358-7.5-7.5s3.357-7.5 7.5-7.5h47c4.143 0 7.5 3.358 7.5 7.5s-3.357 7.5-7.5 7.5z" fill="#e8e8e8" data-original="#e8e8e8" style=""/></g><g><path d="m177 43.5h-47c-4.143 0-7.5-3.358-7.5-7.5s3.357-7.5 7.5-7.5h47c4.143 0 7.5 3.358 7.5 7.5s-3.357 7.5-7.5 7.5z" fill="#e8e8e8" data-original="#e8e8e8" style=""/></g><g><path d="m367 43.5h-47c-4.143 0-7.5-3.358-7.5-7.5s3.357-7.5 7.5-7.5h47c4.143 0 7.5 3.358 7.5 7.5s-3.357 7.5-7.5 7.5z" fill="#e8e8e8" data-original="#e8e8e8" style=""/></g><path d="m328 468.5h-159c-4.143 0-7.5-3.358-7.5-7.5s3.357-7.5 7.5-7.5h159c4.143 0 7.5 3.358 7.5 7.5s-3.357 7.5-7.5 7.5z" fill="#e8e8e8" data-original="#e8e8e8" style=""/></g></g></g></svg>
