<svg id="Icons" height="512" viewBox="0 0 74 74" width="512" xmlns="http://www.w3.org/2000/svg"><path d="m53.08 56.81a1 1 0 0 1 -.714-.3 9.089 9.089 0 0 0 -1.478-1.216 1 1 0 0 1 1.1-1.668 11.164 11.164 0 0 1 1.8 1.484 1 1 0 0 1 -.714 1.7z"/><path d="m55.9 72h-37.92a1 1 0 0 1 -1-1v-8.25a10.962 10.962 0 0 1 10.95-10.95h17.98a1 1 0 0 1 0 2h-17.98a8.96 8.96 0 0 0 -8.95 8.95v7.25h35.92v-7.25a8.8 8.8 0 0 0 -.242-2.074 1 1 0 1 1 1.942-.476 10.827 10.827 0 0 1 .3 2.546v8.254a1 1 0 0 1 -1 1z"/><path d="m36.938 47.994a10.48 10.48 0 1 1 10.48-10.48 10.491 10.491 0 0 1 -10.48 10.48zm0-18.96a8.48 8.48 0 1 0 8.48 8.48 8.489 8.489 0 0 0 -8.48-8.48z"/><path d="m46.68 72h-19.48a1 1 0 0 1 -1-1v-5.708a1 1 0 0 1 2 0v4.708h17.48v-4.708a1 1 0 0 1 2 0v5.708a1 1 0 0 1 -1 1z"/><path d="m67.481 30.1a1 1 0 0 1 -.465-.115l-5.167-2.716-5.166 2.716a1 1 0 0 1 -1.452-1.054l.987-5.753-4.179-4.078a1 1 0 0 1 .553-1.706l5.777-.84 2.583-5.234a1.041 1.041 0 0 1 1.794 0l2.583 5.234 5.777.84a1 1 0 0 1 .554 1.706l-4.18 4.074.987 5.753a1 1 0 0 1 -.986 1.169zm-5.632-4.961a.991.991 0 0 1 .465.115l3.839 2.018-.734-4.272a1 1 0 0 1 .289-.886l3.105-3.027-4.292-.623a1 1 0 0 1 -.753-.547l-1.919-3.889-1.919 3.885a1 1 0 0 1 -.753.547l-4.292.623 3.106 3.027a1 1 0 0 1 .288.886l-.734 4.274 3.839-2.018a.991.991 0 0 1 .465-.115z"/><path d="m42.632 21.333a1.008 1.008 0 0 1 -.465-.114l-5.167-2.719-5.167 2.717a1 1 0 0 1 -1.451-1.054l.987-5.754-4.18-4.074a1 1 0 0 1 .554-1.706l5.777-.839 2.58-5.232a1.041 1.041 0 0 1 1.794 0l2.586 5.234 5.777.839a1 1 0 0 1 .554 1.706l-4.18 4.074.987 5.754a1 1 0 0 1 -.986 1.168zm-5.632-4.96a1 1 0 0 1 .465.114l3.835 2.018-.734-4.274a1 1 0 0 1 .288-.885l3.106-3.027-4.288-.619a1 1 0 0 1 -.753-.548l-1.919-3.892-1.919 3.888a1 1 0 0 1 -.753.548l-4.292.623 3.106 3.027a1 1 0 0 1 .288.885l-.73 4.274 3.839-2.018a1 1 0 0 1 .461-.114z"/><path d="m17.783 30.1a1 1 0 0 1 -.466-.115l-5.166-2.716-5.167 2.714a1 1 0 0 1 -1.451-1.054l.987-5.753-4.18-4.076a1 1 0 0 1 .554-1.7l5.777-.84 2.583-5.234a1.041 1.041 0 0 1 1.794 0l2.583 5.234 5.777.84a1 1 0 0 1 .553 1.706l-4.179 4.074.987 5.753a1 1 0 0 1 -.986 1.169zm-5.632-4.961a.991.991 0 0 1 .465.115l3.839 2.018-.734-4.272a1 1 0 0 1 .288-.886l3.106-3.027-4.292-.623a1 1 0 0 1 -.753-.547l-1.919-3.889-1.919 3.889a1 1 0 0 1 -.753.547l-4.292.623 3.1 3.027a1 1 0 0 1 .294.886l-.734 4.27 3.839-2.018a.991.991 0 0 1 .465-.115z"/></svg>