<?xml version="1.0" encoding="utf-8"?>
<!-- Generator: Adobe Illustrator 18.0.0, SVG Export Plug-In . SVG Version: 6.00 Build 0)  -->
<!DOCTYPE svg PUBLIC "-//W3C//DTD SVG 1.1//EN" "http://www.w3.org/Graphics/SVG/1.1/DTD/svg11.dtd">
<svg xmlns="http://www.w3.org/2000/svg" xmlns:xlink="http://www.w3.org/1999/xlink" version="1.1" id="Layer_2" x="0px" y="0px" viewBox="0 0 64 64" style="enable-background:new 0 0 64 64;" xml:space="preserve" width="512" height="512">
<style type="text/css">
	.st0{fill:#EDEFF1;}
	.st1{fill:#D3D3D3;}
	.st2{fill:#98CA69;}
	.st3{fill:#80D6FB;}
	.st4{fill:#FFB0AA;}
	.st5{fill:#FFE352;}
	.st6{fill:#6E83B7;}
	.st7{fill:#466089;}
	.st8{fill:#FFD3B3;}
	.st9{fill:#FCB98B;}
	.st10{fill:#FFB236;}
	.st11{fill:#46BEE8;}
	.st12{fill:#E0E2FF;}
	.st13{fill:#8FA5D1;}
	.st14{fill:#75AA40;}
</style>
<g>
	<g>
		<g>
			<g>
				<rect x="36" y="8" class="st0" width="20" height="10"/>
			</g>
			<g>
				<rect x="36" y="17" class="st1" width="20" height="1"/>
			</g>
			<g>
				<g>
					<g>
						<rect x="38" y="9" class="st6" width="1" height="7"/>
					</g>
				</g>
				<g>
					<g>
						<rect x="41" y="9" class="st6" width="1" height="7"/>
					</g>
				</g>
				<g>
					<g>
						<rect x="44" y="9" class="st6" width="1" height="7"/>
					</g>
				</g>
				<g>
					<g>
						<rect x="47" y="9" class="st6" width="1" height="7"/>
					</g>
				</g>
				<g>
					<g>
						<rect x="50" y="9" class="st6" width="1" height="7"/>
					</g>
				</g>
				<g>
					<g>
						<rect x="53" y="9" class="st6" width="1" height="7"/>
					</g>
				</g>
			</g>
			<g>
				<rect x="42" y="4" class="st6" width="8" height="4"/>
			</g>
			<g>
				<rect x="45.5" y="2" class="st6" width="1" height="3"/>
			</g>
			<g>
				<g>
					<rect x="34" y="18" class="st0" width="24" height="38"/>
				</g>
				<g>
					<polygon class="st1" points="34,56 41,56 41,36.535 43,37.869 43,31.465 34,25.465      "/>
				</g>
				<g>
					<g>
						<g>
							<rect x="35" y="20" class="st6" width="1" height="34"/>
						</g>
					</g>
					<g>
						<g>
							<rect x="38" y="20" class="st6" width="1" height="34"/>
						</g>
					</g>
					<g>
						<g>
							<rect x="41" y="20" class="st6" width="1" height="34"/>
						</g>
					</g>
					<g>
						<g>
							<rect x="44" y="20" class="st6" width="1" height="34"/>
						</g>
					</g>
					<g>
						<g>
							<rect x="47" y="20" class="st6" width="1" height="34"/>
						</g>
					</g>
					<g>
						<g>
							<rect x="50" y="20" class="st6" width="1" height="34"/>
						</g>
					</g>
					<g>
						<g>
							<rect x="53" y="20" class="st6" width="1" height="34"/>
						</g>
					</g>
					<g>
						<g>
							<rect x="56" y="20" class="st6" width="1" height="34"/>
						</g>
					</g>
				</g>
			</g>
			<g>
				<g>
					<polygon class="st7" points="36,26.798 35,26.132 35,54 36,54      "/>
				</g>
				<g>
					<polygon class="st7" points="38,28.132 38,54 39,54 39,28.798      "/>
				</g>
				<g>
					<polygon class="st7" points="42,30.798 41,30.132 41,36.535 42,37.202      "/>
				</g>
			</g>
		</g>
		<g>
			<g>
				<polygon class="st0" points="24,23 8,34 8,56 24,56 40,56 40,34     "/>
			</g>
			<g>
				<polygon class="st6" points="24,20 6,32 6,36 24,24 42,36 42,32     "/>
			</g>
		</g>
	</g>
	<g>
		<g>
			<path class="st6" d="M35.184,43.429c0,0,3.87-3.942,2.122-5.306c-1.21-0.945-2.44,0.566-3.184-0.531C33.003,35.942,32,36,32,36     s-1.003-0.058-2.122,1.592c-0.744,1.096-1.973-0.415-3.184,0.531c-1.747,1.364,2.122,5.306,2.122,5.306H35.184z"/>
		</g>
		<path class="st7" d="M35.823,42.051c-0.62-0.28-1.343-0.46-2.012-0.574c0.36-0.386,0.662-0.926,0.803-1.67l-0.982-0.187    c-0.25,1.312-1.079,1.617-1.444,1.69c-0.064-0.002-0.133-0.004-0.187-0.004c-0.05,0-0.115,0.003-0.173,0.004    c-0.381-0.073-1.208-0.379-1.458-1.69l-0.982,0.188c0.142,0.744,0.444,1.284,0.805,1.669c-0.67,0.114-1.393,0.294-2.013,0.574    c-0.132,0.06-0.253,0.138-0.361,0.227c0.535,0.676,1,1.15,1,1.15h6.367c0,0,0.465-0.474,1-1.15    C36.075,42.189,35.955,42.111,35.823,42.051z"/>
		<g>
			<path class="st5" d="M32,44.49h4.245v-0.978c0-0.424-0.254-0.802-0.641-0.977c-1.234-0.557-2.935-0.698-3.604-0.698     c-0.669,0-2.37,0.141-3.604,0.698c-0.387,0.175-0.641,0.552-0.641,0.977l0,0.978H32z"/>
		</g>
		<g>
			<path class="st6" d="M32,43h1c4.418,0,8,3.582,8,8v5.122c0,0.562,0.223,1.101,0.621,1.499l0.758,0.758     C42.777,58.777,43,59.316,43,59.878v0.002c0,1.171-0.949,2.12-2.12,2.12h-9.268H23.12C21.949,62,21,61.051,21,59.88v-0.002     c0-0.562,0.223-1.101,0.621-1.499l0.758-0.758C22.777,57.223,23,56.684,23,56.122V51c0-4.418,3.582-8,8-8H32z"/>
		</g>
		<g>
			<circle class="st5" cx="32" cy="51.918" r="4"/>
		</g>
		<path class="st6" d="M32.531,51.418h-1.062c-0.31,0-0.561-0.252-0.561-0.562s0.251-0.561,0.561-0.561h1.062    c0.31,0,0.561,0.251,0.561,0.561h1c0-0.861-0.7-1.561-1.561-1.561H32.5v-0.562h-1v0.562h-0.031c-0.861,0-1.561,0.7-1.561,1.561    s0.7,1.562,1.561,1.562h1.062c0.31,0,0.561,0.251,0.561,0.561s-0.251,0.561-0.561,0.561h-1.062c-0.31,0-0.561-0.251-0.561-0.561    h-1c0,0.861,0.7,1.561,1.561,1.561H31.5v0.562h1v-0.562h0.031c0.861,0,1.561-0.7,1.561-1.561S33.392,51.418,32.531,51.418z"/>
	</g>
	<g>
		<polygon class="st2" points="14,24 14,17 17,17 12,10 7,17 10,17 10,24   "/>
	</g>
	<g>
		<polygon class="st2" points="26,16 26,9 29,9 24,2 19,9 22,9 22,16   "/>
	</g>
</g>
</svg>
