<?xml version="1.0" encoding="UTF-8"?>
<svg xmlns="http://www.w3.org/2000/svg" id="icon" viewBox="0 0 128 128" width="512" height="512"><path d="M107.261,60.3A22.091,22.091,0,0,0,73.455,34.981,23.891,23.891,0,0,0,28.857,45.6,29.753,29.753,0,1,0,48.479,99.2a17.576,17.576,0,0,0,25.405-2.381,16.355,16.355,0,0,0,23.984,1.218A19.978,19.978,0,1,0,107.261,60.3Z" fill="#f0f5f9"/><path d="M125.682,73.138A19.969,19.969,0,0,1,96.6,89.524,16.352,16.352,0,0,1,72.6,88.306a17.564,17.564,0,0,1-25.4,2.381A29.764,29.764,0,0,1,1,75.452,29.762,29.762,0,0,0,48.479,99.2a17.593,17.593,0,0,0,25.41-2.391A16.352,16.352,0,0,0,97.87,98.038a19.981,19.981,0,0,0,27.812-24.9Z" fill="#c1cdd3"/><path d="M30.756,106.05A30.753,30.753,0,0,1,27.92,44.674,24.889,24.889,0,0,1,73.761,33.553,22.9,22.9,0,0,1,86.443,29.74a23.152,23.152,0,0,1,23.125,23.126,22.833,22.833,0,0,1-.949,6.493,20.982,20.982,0,0,1-1.606,41.9,20.707,20.707,0,0,1-8.967-2.024,17.357,17.357,0,0,1-24.138-.9,18.571,18.571,0,0,1-25.473,2.122A30.491,30.491,0,0,1,30.756,106.05Zm21.961-82.1A22.9,22.9,0,0,0,29.856,45.657a1,1,0,0,1-.936.946,28.753,28.753,0,1,0,18.962,51.79,1,1,0,0,1,1.254.049A16.577,16.577,0,0,0,73.1,96.2a1,1,0,0,1,.77-.381,1.022,1.022,0,0,1,.781.358,15.358,15.358,0,0,0,22.52,1.144,1,1,0,0,1,1.156-.172,18.783,18.783,0,0,0,8.687,2.116,18.982,18.982,0,0,0,.235-37.962,1,1,0,0,1-.929-1.337A21.091,21.091,0,0,0,74.043,35.79a1,1,0,0,1-1.455-.311A22.992,22.992,0,0,0,52.717,23.95Z" fill="#2f3a5a"/><path d="M75.712,47.533l1.906-3.753-11.7,2.071,5.213,10.7,2.084-4.1A16.6,16.6,0,0,1,67.41,82.508v5.569a22.082,22.082,0,0,0,8.3-40.544Z" fill="#81dafc"/><path d="M67.41,89.077a1,1,0,0,1-1-1V82.508a1,1,0,0,1,.8-.979A15.6,15.6,0,0,0,73.58,53.941L72.024,57a1,1,0,0,1-.891.547h-.008a1,1,0,0,1-.892-.562l-5.212-10.7a1,1,0,0,1,.725-1.423l11.7-2.071a1,1,0,0,1,1.066,1.438l-1.5,2.954A22.972,22.972,0,0,1,87.091,66.25,23.252,23.252,0,0,1,67.563,89.065.976.976,0,0,1,67.41,89.077Zm1-5.776v3.575A21.254,21.254,0,0,0,85.091,66.25a21,21,0,0,0-9.91-17.87,1,1,0,0,1-.361-1.3l1-1.966L67.4,46.6l3.752,7.7L72.325,52a1,1,0,0,1,1.447-.379A17.6,17.6,0,0,1,68.41,83.3Z" fill="#2f3a5a"/><path d="M62.4,87.073,57.233,76.351,55.2,80.314A16.594,16.594,0,0,1,60.59,49.992V44.423A22.074,22.074,0,0,0,52.69,85.2l-2,3.891Z" fill="#81dafc"/><path d="M50.692,90.092a1,1,0,0,1-.889-1.456l1.578-3.075a23.073,23.073,0,0,1,9.056-42.127,1,1,0,0,1,1.153.988v5.57a1,1,0,0,1-.8.979,15.665,15.665,0,0,0-12.4,15.279,15.5,15.5,0,0,0,6.435,12.605l1.519-2.96a.973.973,0,0,1,.9-.544,1,1,0,0,1,.888.566L63.3,86.639a1,1,0,0,1-.732,1.419l-11.706,2.02A1.073,1.073,0,0,1,50.692,90.092Zm8.9-44.468A21.074,21.074,0,0,0,53.2,84.343a1,1,0,0,1,.376,1.315L52.5,87.766l8.425-1.453L57.2,78.6,56.089,80.77a1.006,1.006,0,0,1-.624.508.994.994,0,0,1-.8-.117,17.5,17.5,0,0,1-8.28-14.911A17.686,17.686,0,0,1,59.59,49.2Z" fill="#2f3a5a"/></svg>
