<?xml version="1.0"?>
<svg xmlns="http://www.w3.org/2000/svg" xmlns:xlink="http://www.w3.org/1999/xlink" xmlns:svgjs="http://svgjs.com/svgjs" version="1.1" width="512" height="512" x="0" y="0" viewBox="0 0 512 512" style="enable-background:new 0 0 512 512" xml:space="preserve" class=""><g><g xmlns="http://www.w3.org/2000/svg"><g><g><path d="m272 376h-68.118c-12.73 0-24.939 5.057-33.941 14.059l-17.941 17.941 40 40 19.314-19.314c3.001-3.001 7.07-4.686 11.314-4.686h49.372c13.255 0 24-10.745 24-24 0-13.255-10.745-24-24-24z" fill="#fab991" data-original="#fab991" style=""/></g><g><path d="m387.314 364.686c-6.248-6.249-16.379-6.249-22.627 0l-59.314 59.314h-82.745c-4.243 0-8.313 1.686-11.314 4.686l-19.314 19.314 24 24 16-16h76.687c6.411 0 12.438-2.497 16.97-7.03l61.657-61.657c6.248-6.248 6.248-16.378 0-22.627z" fill="#f0915a" data-original="#f0915a" style=""/></g><g><path d="m272 413.333h-5.333c-4.418 0-8-3.582-8-8v-10.667c0-4.418 3.582-8 8-8h5.333c7.364 0 13.333 5.97 13.333 13.333 0 7.365-5.969 13.334-13.333 13.334z" fill="#f0915a" data-original="#f0915a" style=""/></g><g><path d="m149.657 405.657 42.343 42.343-40 40h-96l82.343-82.343c3.124-3.124 8.19-3.124 11.314 0z" fill="#b0bee1" data-original="#5f78be" style="" class=""/></g><g><path d="m192 448 26.343 26.343c3.124 3.124 3.124 8.19 0 11.314l-2.343 2.343h-64z" fill="#6e83b7" data-original="#46508c" style="" class=""/></g></g><g><g><g><path d="m424 264h-320c-17.673 0-32-14.327-32-32v-176c0-17.673 14.327-32 32-32h320c17.673 0 32 14.327 32 32v176c0 17.673-14.327 32-32 32z" fill="#6e83b7" data-original="#46508c" style="" class=""/></g><g><path d="m392 264h-288c-17.673 0-32-14.327-32-32v-176c0-17.673 14.327-32 32-32h288c17.673 0 32 14.327 32 32v176c0 17.673-14.327 32-32 32z" fill="#b0bee1" data-original="#5f78be" style="" class=""/></g></g><g><path d="m72 72h352v48h-352z" fill="#f1f3f9" data-original="#faa51e" style="" class=""/></g><g><path d="m424 72h32v48h-32z" fill="#435685" transform="matrix(-1 0 0 -1 880 192)" data-original="#f06423" style="" class=""/></g></g><g><g><circle cx="248" cy="248" fill="#435685" r="84" data-original="#f06423" style="" class=""/></g><g><path d="m248 176c39.701 0 72 32.299 72 72s-32.299 72-72 72-72-32.299-72-72 32.299-72 72-72m0-24c-53.019 0-96 42.98-96 96 0 53.019 42.981 96 96 96s96-42.981 96-96c0-53.02-42.981-96-96-96z" fill="#faa019" data-original="#faa019" style="" class=""/></g></g><g><path d="m248 140c-6.627 0-12-5.373-12-12v-13.333c0-6.627 5.373-12 12-12s12 5.373 12 12v13.333c0 6.627-5.373 12-12 12z" fill="#ffcd06" data-original="#ffcd06" style="" class=""/></g><g><path d="m248 393.333c-6.627 0-12-5.373-12-12v-13.333c0-6.627 5.373-12 12-12s12 5.373 12 12v13.333c0 6.628-5.373 12-12 12z" fill="#ffcd06" data-original="#ffcd06" style="" class=""/></g><g><path d="m144.065 200.002c-2.036 0-4.099-.519-5.989-1.609l-11.547-6.667c-5.739-3.314-7.706-10.653-4.393-16.393s10.651-7.705 16.393-4.393l11.547 6.667c5.739 3.314 7.706 10.653 4.393 16.393-2.222 3.85-6.257 6.002-10.404 6.002z" fill="#ffcd06" data-original="#ffcd06" style="" class=""/></g><g><path d="m363.459 326.668c-2.036 0-4.099-.519-5.988-1.609l-11.547-6.667c-5.74-3.313-7.707-10.653-4.393-16.392 3.313-5.741 10.653-7.706 16.392-4.393l11.548 6.667c5.739 3.313 7.706 10.653 4.393 16.392-2.224 3.85-6.258 6.002-10.405 6.002z" fill="#ffcd06" data-original="#ffcd06" style="" class=""/></g><g><path d="m132.541 326.668c-4.147 0-8.181-2.152-10.404-6.002-3.313-5.74-1.347-13.079 4.393-16.393l11.547-6.667c5.739-3.313 13.078-1.348 16.393 4.393 3.313 5.74 1.347 13.079-4.393 16.393l-11.547 6.667c-1.89 1.091-3.953 1.609-5.989 1.609z" fill="#ffcd06" data-original="#ffcd06" style="" class=""/></g><g><path d="m351.934 200.002c-4.147 0-8.181-2.152-10.404-6.002-3.313-5.739-1.347-13.079 4.393-16.392l11.547-6.667c5.738-3.314 13.079-1.347 16.392 4.393 3.313 5.739 1.347 13.079-4.393 16.392l-11.548 6.667c-1.888 1.09-3.951 1.609-5.987 1.609z" fill="#ffcd06" data-original="#ffcd06" style="" class=""/></g><g><path d="m251.587 196.541 13.673 27.704 30.573 4.442c3.281.477 4.591 4.509 2.217 6.823l-22.123 21.564 5.222 30.449c.56 3.268-2.869 5.759-5.804 4.217l-27.345-14.376-27.345 14.376c-2.935 1.543-6.364-.949-5.804-4.217l5.222-30.449-22.123-21.564c-2.374-2.314-1.064-6.346 2.217-6.823l30.573-4.442 13.673-27.704c1.467-2.973 5.707-2.973 7.174 0z" fill="#ffcd06" data-original="#ffcd06" style="" class=""/></g></g></g></svg>
