<?xml version="1.0"?>
<svg xmlns="http://www.w3.org/2000/svg" xmlns:xlink="http://www.w3.org/1999/xlink" xmlns:svgjs="http://svgjs.com/svgjs" version="1.1" width="512" height="512" x="0" y="0" viewBox="0 0 512 512" style="enable-background:new 0 0 512 512" xml:space="preserve" class=""><g><path xmlns="http://www.w3.org/2000/svg" d="m459.98 349.56h-407.61l-35.74 54.29h474.88z" fill="#b783e5" data-original="#5580a6" style=""/><path xmlns="http://www.w3.org/2000/svg" d="m431.02 72.78h-349.7a28.948 28.948 0 0 0 -28.95 28.95v247.83h407.61v-247.83a28.957 28.957 0 0 0 -28.96-28.95z" fill="#7b41af" data-original="#56768b" style="" class=""/><path xmlns="http://www.w3.org/2000/svg" d="m80.69 101.73h40v220.52h-40z" fill="#ede9d6" data-original="#ede9d6" style=""/><path xmlns="http://www.w3.org/2000/svg" d="m80.69 101.73h350.96v220.52h-350.96z" fill="#fffce6" data-original="#fffce6" style=""/><path xmlns="http://www.w3.org/2000/svg" d="m495.37 159.33v101.51a17.108 17.108 0 0 1 -.99 5.75l-.02-.01-60.64-58.87z" fill="#e5c06d" data-original="#e5c06d" style=""/><path xmlns="http://www.w3.org/2000/svg" d="m494.36 266.58-60.64-58.87-71.06.29-62.26 58.58a17.1 17.1 0 0 0 16.12 11.37h161.74a17.119 17.119 0 0 0 16.12-11.36z" fill="#fad076" data-original="#fad076" style=""/><path xmlns="http://www.w3.org/2000/svg" d="m299.41 159.34 63.25 48.66-62.26 58.58a17.05 17.05 0 0 1 -.99-5.74z" fill="#e5c06d" data-original="#e5c06d" style=""/><path xmlns="http://www.w3.org/2000/svg" d="m478.26 138.21h-161.74a17.112 17.112 0 0 0 -17.11 17.12v4.01l85.67 65.9a21.394 21.394 0 0 0 26.31 0l83.98-65.91v-4a17.112 17.112 0 0 0 -17.11-17.12z" fill="#eb565b" data-original="#eb565b" style="" class=""/><path xmlns="http://www.w3.org/2000/svg" d="m312.46 403.85h179.05a35.371 35.371 0 0 1 -35.37 35.37h-404.14a35.369 35.369 0 0 1 -35.37-35.37z" fill="#7b41af" data-original="#56768b" style="" class=""/><path xmlns="http://www.w3.org/2000/svg" d="m304.74 374.09 7.72 29.76h-122.2l7.73-29.76z" fill="#d5c5e3" data-original="#cfe2fc" style="" class=""/><path xmlns="http://www.w3.org/2000/svg" d="m80.69 101.73h30v220.52h-30z" fill="#e8e3ca" data-original="#e8e3ca" style="" class=""/><g xmlns="http://www.w3.org/2000/svg" fill="#5fa8ed"><path d="m271.421 170.057-23.2-23.2a6 6 0 1 0 -8.486 8.485l12.958 12.958h-22.3a6 6 0 0 0 0 12h22.3l-12.961 12.96a6 6 0 0 0 8.486 8.486l23.2-23.2a6 6 0 0 0 0-8.485z" fill="#5fa8ed" data-original="#5fa8ed" style="" class=""/><path d="m164.768 168.3h-1.024a6 6 0 1 0 0 12h1.024a6 6 0 0 0 0-12z" fill="#5fa8ed" data-original="#5fa8ed" style="" class=""/><path d="m183.74 168.3h-.671a6 6 0 0 0 0 12h.671a6 6 0 0 0 0-12z" fill="#5fa8ed" data-original="#5fa8ed" style="" class=""/><path d="m210.275 168.3h-.313a6 6 0 0 0 0 12h.313a6 6 0 1 0 0-12z" fill="#5fa8ed" data-original="#5fa8ed" style="" class=""/><path d="m243.975 271.068a6 6 0 0 1 -4.243-10.243l18.961-18.96-18.961-18.965a6 6 0 0 1 8.486-8.486l23.2 23.2a6 6 0 0 1 0 8.485l-23.2 23.2a5.986 5.986 0 0 1 -4.243 1.769z" fill="#5fa8ed" data-original="#5fa8ed" style="" class=""/><path d="m164.768 247.865h-1.024a6 6 0 0 1 0-12h1.024a6 6 0 1 1 0 12z" fill="#5fa8ed" data-original="#5fa8ed" style="" class=""/><path d="m183.74 247.865h-.671a6 6 0 1 1 0-12h.671a6 6 0 0 1 0 12z" fill="#5fa8ed" data-original="#5fa8ed" style="" class=""/><path d="m210.275 247.865h-.313a6 6 0 0 1 0-12h.313a6 6 0 0 1 0 12z" fill="#5fa8ed" data-original="#5fa8ed" style="" class=""/><path d="m264.484 247.865h-34.093a6 6 0 1 1 0-12h34.093a6 6 0 0 1 0 12z" fill="#5fa8ed" data-original="#5fa8ed" style="" class=""/></g><path xmlns="http://www.w3.org/2000/svg" d="m104.382 282.977a6 6 0 0 1 -6-6v-73.493a6 6 0 1 1 12 0v73.493a6 6 0 0 1 -6 6z" fill="#f4f8fc" data-original="#f4f8fc" style="" class=""/><path xmlns="http://www.w3.org/2000/svg" d="m103.776 187.362a6 6 0 0 1 -6-6v-30.614a6 6 0 0 1 12 0v30.614a6 6 0 0 1 -6 6z" fill="#f4f8fc" data-original="#f4f8fc" style="" class=""/><path xmlns="http://www.w3.org/2000/svg" d="m103.776 134.362a6 6 0 0 1 -6-6v-5.614a6 6 0 0 1 12 0v5.614a6 6 0 0 1 -6 6z" fill="#f4f8fc" data-original="#f4f8fc" style="" class=""/></g></svg>
