<svg id="Icons" height="512" viewBox="0 0 74 74" width="512" xmlns="http://www.w3.org/2000/svg"><path d="m58.979 51.36a1 1 0 0 1 -.887-1.46c.453-.876.845-1.712 1.2-2.554a1 1 0 0 1 1.846.768c-.371.894-.785 1.779-1.265 2.706a1 1 0 0 1 -.894.54z"/><path d="m37 72a1.01 1.01 0 0 1 -.451-.107c-16.63-8.393-26.559-22.472-26.559-37.663v-20.23a1 1 0 0 1 .33-.742 1.01 1.01 0 0 1 .772-.253c9.889 1.018 18.349-2.566 25.142-10.649a1 1 0 0 1 .756-.356.986.986 0 0 1 .763.342c5.967 6.825 14.472 10.41 25.28 10.658a1 1 0 0 1 .977 1v16.47a1 1 0 0 1 -2 0v-15.5c-10.483-.435-18.881-3.95-24.992-10.461-6.86 7.72-15.271 11.272-25.028 10.582v19.139c0 14.284 9.339 27.579 25.01 35.647a51.5 51.5 0 0 0 17.375-14.134 1 1 0 0 1 1.589 1.215 53.7 53.7 0 0 1 -18.513 14.935 1.01 1.01 0 0 1 -.451.107z"/><path d="m62.321 42.02a.948.948 0 0 1 -.2-.02 1 1 0 0 1 -.785-1.176c.2-.971.352-1.963.468-2.95a1 1 0 1 1 1.986.233c-.122 1.04-.288 2.086-.493 3.109a1 1 0 0 1 -.976.804z"/><path d="m37 65.454a.994.994 0 0 1 -.49-.129c-13.052-7.336-20.843-18.916-20.843-30.978v-14.609a1 1 0 0 1 .955-1 30.542 30.542 0 0 0 19.819-8.472 1 1 0 0 1 1.325-.031 36.221 36.221 0 0 0 19.681 8.055 1 1 0 0 1 .887.993v15.063c0 12.062-7.792 23.643-20.844 30.979a.994.994 0 0 1 -.49.129zm-19.333-44.773v13.666c0 11.179 7.216 21.968 19.333 28.953 12.118-6.987 19.334-17.778 19.334-28.957v-14.176a38.117 38.117 0 0 1 -19.182-7.846 32.37 32.37 0 0 1 -19.485 8.36z"/><path d="m32.631 45.912a1 1 0 0 1 -.707-.293l-5.631-5.631a1 1 0 0 1 1.414-1.414l4.924 4.926 13.662-13.665a1 1 0 1 1 1.415 1.414l-14.37 14.37a1 1 0 0 1 -.707.293z"/></svg>