<?xml version="1.0"?>
<svg xmlns="http://www.w3.org/2000/svg" xmlns:xlink="http://www.w3.org/1999/xlink" xmlns:svgjs="http://svgjs.com/svgjs" version="1.1" width="512" height="512" x="0" y="0" viewBox="0 0 427.68005 427" style="enable-background:new 0 0 512 512" xml:space="preserve" class=""><g><path xmlns="http://www.w3.org/2000/svg" d="m211.671875 355.953125s-122.941406-35.953125-122.941406-144.011719v-72.578125l.820312-.351562c22.050781-9.480469 43.515625-20.261719 64.289063-32.289063 20.765625-12.027344 40.800781-25.277344 60-39.671875 38.433594 28.824219 80.15625 52.980469 124.289062 71.960938l.820313.351562v72.578125c0 108.058594-127.277344 144.011719-127.277344 144.011719zm0 0" fill="#ffffff" data-original="#6fe3ff" style="" class=""/><path xmlns="http://www.w3.org/2000/svg" d="m87.539062 375.261719-23.070312 31.328125-11.417969-65.886719 66.308594-8.613281-31.507813 42.761718-.300781.410157zm0 0" fill="#ffffff" data-original="#f8ec7d" style="" class=""/><g xmlns="http://www.w3.org/2000/svg" fill="#63316d"><path d="m12.710938 283.855469c1.136718 3.113281 4.578124 4.71875 7.691406 3.582031 3.113281-1.132812 4.71875-4.578125 3.585937-7.691406-7.960937-21.871094-12.019531-44.96875-11.988281-68.246094 0-109.820312 89.347656-199.167969 199.171875-199.167969 22.320313-.03125 44.484375 3.703125 65.5625 11.042969 3.121094 1.070312 6.519531-.582031 7.609375-3.699219 1.085938-3.113281-.546875-6.523437-3.65625-7.628906-77.035156-26.765625-162.59375-6.820313-219.847656 51.253906s-75.984375 143.910157-48.128906 220.554688zm0 0" fill="#6e83b7" data-original="#63316d" style="" class=""/><path d="m427.679688 49.820312c0-3.3125-2.6875-6-6-6h-100c-3.3125 0-6 2.6875-6 6 0 3.316407 2.6875 6 6 6h100c3.3125 0 6-2.683593 6-6zm0 0" fill="#6e83b7" data-original="#63316d" style="" class=""/><path d="m48.21875 337.144531c-.96875 1.316407-1.359375 2.96875-1.082031 4.582031l11.421875 65.890626c.410156 2.367187 2.195312 4.261718 4.535156 4.8125 2.339844.550781 4.78125-.34375 6.207031-2.28125l19.527344-26.519532c76.835937 54.554688 180.515625 51.617188 254.136719-7.207031 73.617187-58.820313 99.371094-159.292969 63.121094-246.273437-1.304688-3.019532-4.792969-4.429688-7.824219-3.160157-3.035157 1.269531-4.480469 4.742188-3.246094 7.789063 10.167969 24.296875 15.378906 50.382812 15.324219 76.722656 0 109.824219-89.347656 199.171875-199.167969 199.171875-41.300781.125-81.601563-12.710937-115.21875-36.699219l28.238281-38.320312c1.421875-1.9375 1.558594-4.535156.335938-6.605469-1.21875-2.070313-3.554688-3.214844-5.9375-2.90625l-66.308594 8.609375c-1.625.210938-3.089844 1.074219-4.0625 2.394531zm57.96875 2.707031-23.179688 31.460938-.125.164062c-.058593.074219-.117187.148438-.171874.226563l-14.730469 20-7.949219-45.859375zm0 0" fill="#6e83b7" data-original="#63316d" style="" class=""/><path d="m146.65625 329.3125c31.226562 22.851562 62.035156 32.019531 63.328125 32.398438 1.082031.316406 2.230469.320312 3.316406.015624 1.339844-.378906 33.183594-9.53125 65.472657-32.355468 43.292968-30.605469 66.175781-71.210938 66.175781-117.429688v-72.578125c0-2.402343-1.429688-4.574219-3.640625-5.519531l-.808594-.34375c-43.695312-18.796875-85.003906-42.714844-123.058594-71.25-2.132812-1.597656-5.066406-1.597656-7.203125 0-19.011719 14.25-38.847656 27.367188-59.40625 39.28125-20.5625 11.898438-41.8125 22.574219-63.640625 31.964844l-.820312.347656c-2.207032.945312-3.640625 3.117188-3.640625 5.519531v72.578125c0 46.175782 22.109375 86.761719 63.925781 117.371094zm-51.925781-186c21.28125-9.285156 42.019531-19.769531 62.117187-31.402344 19.671875-11.398437 38.699219-23.878906 56.992188-37.378906 37 27.316406 76.953125 50.390625 119.109375 68.777344v68.632812c0 33.898438-12.945313 63.6875-38.519531 88.867188v-5.078125c0-3.3125-2.6875-6-6-6s-6 2.6875-6 6v7.652343c0 2.277344 1.296874 4.359376 3.339843 5.371094-4.265625 3.644532-8.816406 7.183594-13.644531 10.621094-18.558594 12.984375-38.914062 23.191406-60.421875 30.292969-20.8125-7.128907-40.441406-17.324219-58.246094-30.25-4.5-3.308594-8.742187-6.71875-12.722656-10.226563 2.652344-.679687 4.511719-3.070312 4.515625-5.808594v-7.652343c0-3.3125-2.6875-6-6-6s-6 2.6875-6 6v6.472656c-25.578125-25.464844-38.519531-55.726563-38.519531-90.261719zm0 0" fill="#6e83b7" data-original="#63316d" style="" class=""/><path d="m213.839844 289.730469c-3.3125 0-6 2.6875-6 6v7.652343c0 3.3125 2.6875 6 6 6s6-2.6875 6-6v-7.652343c0-3.3125-2.6875-6-6-6zm0 0" fill="#6e83b7" data-original="#63316d" style="" class=""/><path d="m238.699219 289.730469c-3.3125 0-6 2.6875-6 6v7.652343c0 3.3125 2.6875 6 6 6 3.316406 0 6-2.6875 6-6v-7.652343c0-3.3125-2.683594-6-6-6zm0 0" fill="#6e83b7" data-original="#63316d" style="" class=""/><path d="m257.570312 303.382812c0 3.3125 2.6875 6 6 6s6-2.6875 6-6v-7.652343c0-3.3125-2.6875-6-6-6s-6 2.6875-6 6zm0 0" fill="#6e83b7" data-original="#63316d" style="" class=""/><path d="m188.980469 289.730469c-3.3125 0-6 2.6875-6 6v7.652343c0 3.3125 2.6875 6 6 6s6-2.6875 6-6v-7.652343c0-3.3125-2.6875-6-6-6zm0 0" fill="#6e83b7" data-original="#63316d" style="" class=""/><path d="m164.109375 309.382812c3.3125 0 6-2.6875 6-6v-7.652343c0-3.3125-2.6875-6-6-6s-6 2.6875-6 6v7.652343c0 3.3125 2.6875 6 6 6zm0 0" fill="#6e83b7" data-original="#63316d" style="" class=""/><path d="m198.855469 240.644531c1.125 1.125 2.652343 1.757813 4.242187 1.757813 1.59375 0 3.117188-.632813 4.246094-1.757813l49.796875-49.800781c2.34375-2.34375 2.34375-6.140625 0-8.484375s-6.140625-2.34375-8.484375 0l-45.554688 45.558594-24.078124-24.085938c-2.34375-2.34375-6.140626-2.34375-8.484376-.003906-2.34375 2.34375-2.347656 6.144531-.003906 8.488281zm0 0" fill="#6e83b7" data-original="#63316d" style="" class=""/></g></g></svg>
