<?xml version="1.0" encoding="UTF-8"?>
<svg xmlns="http://www.w3.org/2000/svg" id="icon" viewBox="0 0 128 128" width="512" height="512"><path d="M18.393,49.122c-.055-.674-.09-1.353-.09-2.04A24.887,24.887,0,0,1,61.474,30.194,22.577,22.577,0,0,1,92.3,37.076a18.466,18.466,0,0,1,25.4,23.656A18.46,18.46,0,0,1,99.516,92.865,18.454,18.454,0,0,1,73.95,96.178,19.9,19.9,0,0,1,38.8,94.15a24.895,24.895,0,1,1-20.4-45.028Z" fill="#f0f5f9"/><path d="M1,72.863A24.91,24.91,0,0,0,38.8,94.154a19.892,19.892,0,0,0,35.15,2.021,18.445,18.445,0,0,0,25.565-3.31A18.467,18.467,0,0,0,126.49,72.447,18.459,18.459,0,0,1,99.514,84.255a18.442,18.442,0,0,1-25.565,3.31A19.882,19.882,0,0,1,56.9,97.19c-8.041,0-11.776-2.155-11.509-9.358C41.626,90.116,31.971,92.1,27.25,92.1,14.965,92.1,3.406,80.235,1.376,68.538A25.252,25.252,0,0,0,1,72.863Z" fill="#d9e2e9"/><path d="M56.906,106.808A20.954,20.954,0,0,1,38.37,95.553,25.9,25.9,0,1,1,17.342,48.417c-.027-.468-.039-.91-.039-1.335A25.887,25.887,0,0,1,61.647,28.926,23.577,23.577,0,0,1,92.639,35.8,19.229,19.229,0,0,1,100.7,34.05a19.472,19.472,0,0,1,18.238,26.264A19.459,19.459,0,0,1,99.767,94.131,19.458,19.458,0,0,1,74.227,97.6,20.733,20.733,0,0,1,56.906,106.808ZM38.8,93.15a1.022,1.022,0,0,1,.294.044,1,1,0,0,1,.616.541,18.894,18.894,0,0,0,33.385,1.927,1,1,0,0,1,1.458-.283,17.453,17.453,0,0,0,24.18-3.135,1,1,0,0,1,1.274-.251A17.46,17.46,0,0,0,117.2,61.6a1,1,0,0,1-.423-1.26A17.461,17.461,0,0,0,92.753,37.966a1,1,0,0,1-1.294-.344A21.577,21.577,0,0,0,62,31.043a1,1,0,0,1-1.262-.171A23.887,23.887,0,0,0,19.3,47.082c0,.6.028,1.241.087,1.959a1,1,0,0,1-.7,1.035A23.894,23.894,0,1,0,38.278,93.3,1,1,0,0,1,38.8,93.15Z" fill="#2f3a5a"/><path d="M25.9,98.751A25.92,25.92,0,0,1,0,72.86a1,1,0,0,1,2,0A23.9,23.9,0,0,0,46.88,84.291a1,1,0,0,1,1.756.958A25.9,25.9,0,0,1,25.9,98.751Z" fill="#2f3a5a"/><path d="M95.953,50.389a1,1,0,0,1-1-1,21.586,21.586,0,0,0-39.183-12.5,1,1,0,1,1-1.629-1.159A23.585,23.585,0,0,1,96.953,49.389,1,1,0,0,1,95.953,50.389Z" fill="#2f3a5a"/><path d="M113.436,67.877a1,1,0,0,1-.691-1.724A17.461,17.461,0,0,0,100.7,36.05a1,1,0,0,1,0-2A19.462,19.462,0,0,1,114.126,67.6,1,1,0,0,1,113.436,67.877Z" fill="#2f3a5a"/><path d="M92.377,82.4V61.818L64,54.6,35.626,61.818V82.4S32.81,114.454,64,120.952C95.193,114.454,92.377,82.4,92.377,82.4Z" fill="#dbe2eb"/><path d="M64,121.952a1,1,0,0,1-.2-.021C32.1,115.328,34.6,82.638,34.63,82.309l0-20.491a1,1,0,0,1,.754-.969l28.376-7.218a1,1,0,0,1,.492,0l28.375,7.218a1,1,0,0,1,.754.969v20.54c.1,1.464,1.945,33.091-29.171,39.573A1,1,0,0,1,64,121.952ZM36.626,62.6V82.4C36.513,83.753,34.275,113.6,64,119.93,93.728,113.6,91.49,83.753,91.381,82.483a.844.844,0,0,1,0-.087V62.6L64,55.632Z" fill="#2f3a5a"/><path d="M86.319,86.634a38.488,38.488,0,0,1-2.288,11.023C80.638,106.662,73.9,112.455,64,114.89V86.634H41.676a31.13,31.13,0,0,1-.034-3.843l.022-.271V66.381L64,60.7l22.338,5.68V82.52l.023.305A29.691,29.691,0,0,1,86.319,86.634Z" fill="#7399c7"/><path d="M64,115.89a1,1,0,0,1-1-1V87.634H41.676a1,1,0,0,1-1-.937,33.113,33.113,0,0,1-.036-3.932l.026-.327,0-16.057a1,1,0,0,1,.754-.969l22.339-5.681a1,1,0,0,1,.492,0l22.338,5.681a1,1,0,0,1,.754.969l.019,16.37a30.607,30.607,0,0,1-.044,3.947,39.53,39.53,0,0,1-2.349,11.31c-3.515,9.328-10.488,15.334-20.725,17.853A1.021,1.021,0,0,1,64,115.89ZM42.626,85.634H64a1,1,0,0,1,1,1v26.957C73.887,111.071,79.971,105.6,83.1,97.3a37.489,37.489,0,0,0,2.225-10.73v-.008a28.917,28.917,0,0,0,.046-3.657l-.022-.315,0-15.436L64,61.732,42.664,67.158l-.026,15.716C42.614,83.28,42.573,84.253,42.626,85.634Z" fill="#2f3a5a"/><path d="M86.319,86.634H64V60.7l22.338,5.68V82.52l.023.305A29.691,29.691,0,0,1,86.319,86.634Z" fill="#ffc943"/><path d="M86.318,87.634H64a1,1,0,0,1-1-1V60.7a1,1,0,0,1,1.246-.97l22.338,5.681a1,1,0,0,1,.754.969l.019,16.37a30.683,30.683,0,0,1-.044,3.952A1,1,0,0,1,86.318,87.634ZM65,85.634H85.372a26.449,26.449,0,0,0-.006-2.725l-.022-.315,0-15.436L65,61.987Z" fill="#2f3a5a"/><path d="M64,86.634V114.89c-9.9-2.435-16.636-8.228-20.028-17.233a38.83,38.83,0,0,1-2.3-11.023Z" fill="#ffc943"/><path d="M64,115.89a1.021,1.021,0,0,1-.239-.029c-10.239-2.519-17.211-8.526-20.725-17.852A40.04,40.04,0,0,1,40.678,86.7a1,1,0,0,1,1-1.064H64a1,1,0,0,1,1,1V114.89a1,1,0,0,1-1,1ZM42.757,87.634a37.564,37.564,0,0,0,2.154,9.671C48.034,105.6,54.118,111.071,63,113.591V87.634Z" fill="#2f3a5a"/></svg>
