<?xml version="1.0"?>
<svg xmlns="http://www.w3.org/2000/svg" xmlns:xlink="http://www.w3.org/1999/xlink" xmlns:svgjs="http://svgjs.com/svgjs" version="1.1" width="512" height="512" x="0" y="0" viewBox="0 0 512 512" style="enable-background:new 0 0 512 512" xml:space="preserve" class=""><g><g xmlns="http://www.w3.org/2000/svg"><g><path d="m234.293 256.004c-6.447 0-12.522-3.925-14.955-10.308l-63.125-165.696h-124.213c-8.837 0-16-7.163-16-16s7.163-16 16-16h124.214c13.19 0 25.208 8.282 29.903 20.608l63.125 165.695c3.146 8.258-.998 17.502-9.256 20.648-1.875.715-3.799 1.053-5.693 1.053z" fill="#463c4b" data-original="#463c4b" style=""/></g><g><path d="m400 368h-192c-26.467 0-48-21.533-48-48s21.533-48 48-48h64c8.837 0 16 7.163 16 16s-7.163 16-16 16h-64c-8.822 0-16 7.178-16 16s7.178 16 16 16h192c8.837 0 16 7.163 16 16s-7.163 16-16 16z" fill="#463c4b" data-original="#463c4b" style=""/></g><g><path d="m416 368h-288c-26.467 0-48-21.533-48-48s21.533-48 48-48h64c8.837 0 16 7.163 16 16s-7.163 16-16 16h-64c-8.822 0-16 7.178-16 16s7.178 16 16 16h288c8.837 0 16 7.163 16 16s-7.163 16-16 16z" fill="#555a6e" data-original="#555a6e" style="" class=""/></g><g><path d="m154.293 256.004c-6.447 0-12.522-3.925-14.955-10.308l-63.125-165.696h-44.213c-8.837 0-16-7.163-16-16s7.163-16 16-16h44.214c13.19 0 25.208 8.282 29.903 20.608l63.125 165.695c3.146 8.258-.998 17.502-9.256 20.648-1.875.715-3.799 1.053-5.693 1.053z" fill="#555a6e" data-original="#555a6e" style="" class=""/></g><g><path d="m96 132.27c0 2.466.45 4.911 1.328 7.216l56.784 149.058c3.545 9.306 12.469 15.456 22.428 15.456h238.92c9.959 0 18.883-6.15 22.428-15.456l56.784-149.058c.878-2.305 1.328-4.75 1.328-7.216 0-11.195-9.075-20.27-20.27-20.27h-359.46c-11.195 0-20.27 9.075-20.27 20.27z" fill="#6e83b7" data-original="#289bc3" style="" class=""/></g><g><g><path d="m395.73 112h-279.46c-11.195 0-20.27 9.075-20.27 20.27 0 2.466.45 4.911 1.328 7.216l56.784 149.058c3.545 9.306 12.469 15.456 22.428 15.456h158.92c9.958 0 18.882-6.15 22.428-15.456l56.784-149.058c.878-2.305 1.328-4.75 1.328-7.216 0-11.195-9.075-20.27-20.27-20.27zm-32.762 50.848-10.09 26.485h-78.212v-37.333h80.825c5.604 0 9.472 5.612 7.477 10.848zm-206.46-10.848h80.825v37.333h-78.212l-10.09-26.485c-1.994-5.236 1.874-10.848 7.477-10.848zm28.114 104.272-11.278-29.605h63.989v37.333h-41.497c-4.979 0-9.441-3.075-11.214-7.728zm142.756 0c-1.773 4.653-6.235 7.728-11.214 7.728h-41.497v-37.333h63.989z" fill="#c2cfef" data-original="#00d2d2" style="" class=""/></g><g><path d="m274.667 189.333h78.212l10.09-26.485c1.995-5.236-1.873-10.848-7.476-10.848h-80.825v37.333z" fill="#ffffff" data-original="#d7e6f0" style="" class=""/></g><g><path d="m274.667 226.667v37.333h41.497c4.979 0 9.441-3.075 11.214-7.728l11.278-29.605z" fill="#ffffff" data-original="#d7e6f0" style="" class=""/></g><g><path d="m159.122 189.333h78.212v-37.333h-80.825c-5.603 0-9.471 5.612-7.476 10.848z" fill="#ffffff" data-original="#d7e6f0" style="" class=""/></g><g><path d="m237.333 226.667h-63.989l11.278 29.605c1.773 4.653 6.235 7.728 11.214 7.728h41.497z" fill="#ffffff" data-original="#d7e6f0" style="" class=""/></g></g><g><path d="m152 464h-24c-26.51 0-48-21.49-48-48 0-26.51 21.49-48 48-48h24c26.51 0 48 21.49 48 48 0 26.51-21.49 48-48 48z" fill="#6e83b7" data-original="#289bc3" style="" class=""/></g><g><circle cx="128" cy="416" fill="#c2cfef" r="48" data-original="#00d2d2" style="" class=""/></g><g><circle cx="128" cy="416" fill="#ffffff" r="24" data-original="#d7e6f0" style="" class=""/></g><g><path d="m384 464h-24c-26.51 0-48-21.49-48-48 0-26.51 21.49-48 48-48h24c26.51 0 48 21.49 48 48 0 26.51-21.49 48-48 48z" fill="#6e83b7" data-original="#289bc3" style="" class=""/></g><g><circle cx="360" cy="416" fill="#c2cfef" r="48" data-original="#00d2d2" style="" class=""/></g><g><circle cx="360" cy="416" fill="#ffffff" r="24" data-original="#d7e6f0" style="" class=""/></g></g></g></svg>
