<svg id="Capa_1" enable-background="new 0 0 513.005 513.005" height="512" viewBox="0 0 513.005 513.005" width="512" xmlns="http://www.w3.org/2000/svg"><g><path d="m436.38 40.747c4.666-.396 8.321-4.383 8.321-9.076v-17.452c0-7.84-6.379-14.219-14.22-14.219h-31.351c-2.431 0-4.716.947-6.434 2.667-1.732 1.734-2.686 4.045-2.683 6.499 0 .034 0 .068.001.103-.047 7.226-5.94 13.091-13.178 13.091-7.266 0-13.176-5.911-13.176-13.186.003-2.462-.95-4.772-2.683-6.507-1.715-1.72-4-2.667-6.431-2.667h-36.342c-2.433 0-4.719.948-6.438 2.67-1.731 1.736-2.683 4.049-2.678 6.513 0 7.266-5.911 13.177-13.177 13.177s-13.177-5.911-13.177-13.186c.003-2.462-.95-4.772-2.683-6.507-1.716-1.72-4.001-2.667-6.431-2.667h-34.234c-2.431 0-4.716.947-6.434 2.667-1.732 1.733-2.685 4.045-2.683 6.499v.073c-.031 7.239-5.93 13.12-13.177 13.12-7.266 0-13.177-5.911-13.177-13.187.002-2.461-.95-4.772-2.682-6.506-1.717-1.719-4.002-2.666-6.433-2.666h-36.341c-2.432 0-4.717.947-6.436 2.668-1.732 1.735-2.684 4.048-2.68 6.515 0 7.266-5.911 13.177-13.177 13.177s-13.177-5.911-13.177-13.182c.004-2.462-.948-4.774-2.68-6.51-1.718-1.721-4.003-2.668-6.435-2.668h-31.351c-7.841 0-14.22 6.379-14.22 14.219v17.452c0 4.693 3.655 8.68 8.321 9.076 6.75.574 12.039 6.335 12.039 13.115s-5.288 12.541-12.039 13.115c-4.666.396-8.321 4.383-8.321 9.076v36.544c0 4.693 3.655 8.68 8.321 9.076 6.75.574 12.039 6.335 12.039 13.115s-5.288 12.541-12.039 13.115c-4.666.396-8.321 4.383-8.321 9.076v36.544c0 4.698 3.659 8.685 8.32 9.075 6.751.574 12.04 6.335 12.04 13.115s-5.288 12.542-12.039 13.116c-4.666.396-8.321 4.383-8.321 9.076v36.544c0 4.692 3.655 8.679 8.32 9.075 6.751.574 12.04 6.336 12.04 13.116s-5.288 12.541-12.039 13.115c-4.666.396-8.321 4.383-8.321 9.075v36.544c0 4.693 3.655 8.68 8.32 9.076 6.751.574 12.04 6.335 12.04 13.115s-5.288 12.542-12.03 13.115c-4.671.392-8.33 4.378-8.33 9.076v36.544c0 4.693 3.655 8.68 8.321 9.076 6.75.574 12.039 6.335 12.039 13.115s-5.288 12.541-12.039 13.115c-4.666.396-8.321 4.383-8.321 9.076v18.099c0 7.841 6.379 14.22 14.22 14.22h31.413c4.761 0 8.752-3.712 9.087-8.45.484-6.856 6.257-12.227 13.143-12.227s12.659 5.37 13.143 12.227c.334 4.738 4.326 8.45 9.087 8.45h36.467c4.761 0 8.752-3.712 9.086-8.45.484-6.855 6.258-12.227 13.144-12.227 6.885 0 12.659 5.371 13.143 12.227.334 4.738 4.326 8.45 9.087 8.45h34.359c4.764 0 8.755-3.714 9.087-8.45.484-6.856 6.258-12.227 13.144-12.227s12.658 5.37 13.143 12.23c.338 4.736 4.329 8.446 9.087 8.446h36.467c4.758 0 8.749-3.71 9.087-8.45.484-6.856 6.257-12.227 13.143-12.227s12.659 5.37 13.144 12.23c.338 4.736 4.329 8.446 9.087 8.446h31.413c7.841 0 14.22-6.379 14.22-14.22v-18.099c0-4.693-3.655-8.68-8.321-9.076-6.75-.574-12.038-6.335-12.038-13.115s5.288-12.541 12.038-13.115c4.666-.396 8.321-4.383 8.321-9.076v-36.538c0-4.698-3.659-8.685-8.32-9.075-6.751-.574-12.039-6.336-12.039-13.116s5.288-12.541 12.038-13.115c4.666-.396 8.321-4.383 8.321-9.076v-36.544c0-4.692-3.655-8.679-8.32-9.075-6.751-.574-12.039-6.335-12.039-13.115s5.288-12.542 12.038-13.116c4.666-.396 8.321-4.383 8.321-9.075v-36.544c0-4.693-3.655-8.68-8.32-9.076-6.751-.574-12.039-6.336-12.039-13.116s5.288-12.541 12.03-13.114c4.67-.392 8.329-4.378 8.329-9.076v-36.547c0-4.693-3.655-8.68-8.321-9.076-6.75-.574-12.038-6.335-12.038-13.115s5.288-12.541 12.038-13.115c4.666-.396 8.321-4.383 8.321-9.076v-36.544c0-4.693-3.655-8.68-8.321-9.076-6.75-.574-12.038-6.335-12.038-13.115s5.285-12.542 12.035-13.116zm-6.678 40.169v26.819c-11.768 3.431-20.359 14.414-20.359 27.054s8.592 23.623 20.359 27.054v26.818c-11.768 3.433-20.359 14.416-20.359 27.054 0 12.639 8.592 23.622 20.359 27.055v26.818c-11.768 3.433-20.359 14.416-20.359 27.055s8.592 23.621 20.359 27.054v26.818c-11.768 3.433-20.359 14.416-20.359 27.054 0 12.637 8.589 23.619 20.359 27.053v26.82c-11.768 3.431-20.359 14.414-20.359 27.054s8.592 23.623 20.359 27.054v12.456h-25.702c-3.312-11.951-14.334-20.677-27.162-20.677s-23.852 8.727-27.162 20.677h-26.603c-3.312-11.951-14.334-20.677-27.161-20.677s-23.849 8.724-27.162 20.677h-24.496c-3.312-11.951-14.334-20.677-27.162-20.677s-23.85 8.726-27.162 20.677h-26.603c-3.312-11.951-14.334-20.677-27.162-20.677s-23.85 8.726-27.162 20.677h-25.7v-12.456c11.768-3.431 20.36-14.414 20.36-27.054s-8.592-23.623-20.36-27.054v-26.818c11.768-3.433 20.36-14.416 20.36-27.055 0-12.638-8.592-23.621-20.36-27.054v-26.818c11.768-3.433 20.36-14.416 20.36-27.054 0-12.639-8.592-23.622-20.36-27.055v-26.818c11.768-3.433 20.36-14.416 20.36-27.055 0-12.637-8.589-23.618-20.36-27.052v-26.82c11.768-3.431 20.36-14.414 20.36-27.054s-8.592-23.623-20.36-27.054v-26.819c11.768-3.431 20.36-14.414 20.36-27.054s-8.592-23.623-20.36-27.054v-11.808h25.29c2.688 12.756 14.029 22.359 27.573 22.359 13.537 0 24.875-9.594 27.569-22.359h25.785c2.687 12.756 14.029 22.359 27.573 22.359s24.886-9.603 27.573-22.359h23.674c2.688 12.756 14.03 22.359 27.573 22.359 13.535 0 24.872-9.594 27.568-22.359h25.785c2.688 12.756 14.029 22.359 27.572 22.359 13.544 0 24.887-9.604 27.574-22.359h25.289v11.809c-11.768 3.431-20.359 14.414-20.359 27.054s8.592 23.622 20.36 27.053z"/><path d="m383.778 52.011h-22.869c-4.143 0-7.5 3.357-7.5 7.5s3.357 7.5 7.5 7.5h20.842v284.737h-250.497v-24.033c0-4.143-3.358-7.5-7.5-7.5s-7.5 3.357-7.5 7.5v26.06c0 7.153 5.82 12.974 12.973 12.974h254.55c7.153 0 12.973-5.82 12.973-12.974v-288.791c0-7.153-5.819-12.973-12.972-12.973z"/><path d="m123.754 303.252c4.142 0 7.5-3.357 7.5-7.5v-228.741h197.691c4.143 0 7.5-3.357 7.5-7.5s-3.357-7.5-7.5-7.5h-199.717c-7.153 0-12.973 5.82-12.973 12.974v230.768c-.001 4.142 3.357 7.499 7.499 7.499z"/><path d="m301.508 221.432c-2.929 2.929-2.929 7.678.001 10.606 2.928 2.928 7.677 2.929 10.606-.001l9.316-9.317c8.853-8.852 13.728-20.62 13.728-33.138s-4.875-24.285-13.727-33.138l-1.143-1.143c-17.621-17.619-45.669-18.398-64.227-1.929-18.391-15.134-45.709-14.111-62.892 3.072-18.271 18.272-18.271 48.003 0 66.274l53.536 53.535c2.83 2.831 6.593 4.39 10.595 4.39s7.765-1.559 10.596-4.39l21.582-21.583c2.929-2.929 2.929-7.678-.001-10.606-2.928-2.928-7.677-2.929-10.606.001l-21.558 21.582-53.537-53.536c-12.423-12.423-12.423-32.637 0-45.061 12.424-12.425 32.639-12.424 45.061-.001l1.859 1.859c2.842 2.843 7.421 2.938 10.38.219l4.508-4.146c12.612-11.597 31.982-11.191 44.097.926l1.143 1.143c6.019 6.019 9.334 14.02 9.334 22.53s-3.315 16.513-9.334 22.531z"/><path d="m309.392 405.294h-107.222c-4.142 0-7.5 3.357-7.5 7.5s3.358 7.5 7.5 7.5h107.222c4.143 0 7.5-3.357 7.5-7.5s-3.357-7.5-7.5-7.5z"/><path d="m168.078 405.294h-6.178c-4.142 0-7.5 3.357-7.5 7.5s3.358 7.5 7.5 7.5h6.177c4.142 0 7.5-3.357 7.5-7.5s-3.357-7.5-7.499-7.5z"/><path d="m351.105 405.294h-6.178c-4.143 0-7.5 3.357-7.5 7.5s3.357 7.5 7.5 7.5h6.178c4.143 0 7.5-3.357 7.5-7.5s-3.357-7.5-7.5-7.5z"/></g></svg>