<?xml version="1.0"?>
<svg xmlns="http://www.w3.org/2000/svg" xmlns:xlink="http://www.w3.org/1999/xlink" xmlns:svgjs="http://svgjs.com/svgjs" version="1.1" width="512" height="512" x="0" y="0" viewBox="0 0 512 512" style="enable-background:new 0 0 512 512" xml:space="preserve" class=""><g><g xmlns="http://www.w3.org/2000/svg"><g><path d="m394.99 354.817-14.285-8.248c-5.025-2.901-7.763-8.587-6.866-14.319 1.387-8.863 2.111-17.945 2.111-27.197s-.724-18.334-2.111-27.196c-.897-5.732 1.842-11.418 6.866-14.319l14.285-8.247c6.733-3.887 9.04-12.497 5.153-19.23l-39.814-68.96c-3.887-6.733-12.497-9.04-19.23-5.153l-14.3 8.256c-5.029 2.904-11.331 2.429-15.846-1.223-14.061-11.373-29.921-20.608-47.086-27.218-5.41-2.083-8.96-7.305-8.96-13.103v-16.475c0-7.775-6.302-14.077-14.077-14.077h-79.627c-7.775 0-14.077 6.303-14.077 14.077v16.475c0 5.798-3.549 11.02-8.959 13.103-17.165 6.61-33.025 15.845-47.086 27.218-4.515 3.652-10.817 4.127-15.846 1.223l-14.3-8.256c-6.733-3.887-15.343-1.58-19.23 5.153l-39.814 68.96c-3.887 6.733-1.58 15.343 5.153 19.23l14.285 8.247c5.024 2.901 7.763 8.587 6.866 14.319-1.387 8.862-2.111 17.944-2.111 27.196s.724 18.334 2.111 27.197c.897 5.732-1.842 11.418-6.866 14.319l-14.285 8.248c-6.733 3.887-9.04 12.497-5.153 19.23l39.814 68.96c3.887 6.733 12.497 9.04 19.23 5.153l14.3-8.256c5.029-2.903 11.331-2.429 15.846 1.223 14.059 11.373 29.919 20.608 47.084 27.217 5.41 2.083 8.959 7.305 8.959 13.103v16.475c0 7.775 6.303 14.077 14.077 14.077h79.628c7.775 0 14.077-6.303 14.077-14.077v-16.475c0-5.798 3.549-11.02 8.959-13.103 17.165-6.61 33.025-15.845 47.086-27.218 4.515-3.652 10.817-4.127 15.846-1.223l14.3 8.256c6.733 3.887 15.343 1.58 19.23-5.153l39.814-68.96c3.889-6.732 1.582-15.342-5.151-19.229zm-193.974 89.772c-77.063 0-139.535-62.472-139.535-139.535s62.472-139.535 139.535-139.535 139.534 62.472 139.534 139.535-62.472 139.535-139.534 139.535z" fill="#b5adb6" data-original="#b5adb6" style=""/><g fill="#a79ba7"><path d="m224.001 112.186v16.475c0 5.798 3.549 11.02 8.96 13.103 17.165 6.61 33.025 15.845 47.086 27.218 4.515 3.652 10.817 4.127 15.846 1.223l9.539-5.507c-12.647-9.422-26.611-17.175-41.565-22.934-5.41-2.083-8.96-7.305-8.96-13.103v-16.475c0-7.775-6.302-14.077-14.077-14.077h-30.904c7.773 0 14.075 6.302 14.075 14.077z" fill="#a79ba7" data-original="#a79ba7" style=""/><path d="m295.893 439.903c-5.029-2.903-11.331-2.429-15.846 1.223-14.061 11.373-29.921 20.608-47.086 27.218-5.41 2.083-8.959 7.305-8.959 13.103v16.475c0 7.775-6.303 14.077-14.077 14.077h30.905c7.775 0 14.077-6.303 14.077-14.077v-16.475c0-5.798 3.549-11.02 8.959-13.103 14.955-5.759 28.919-13.511 41.565-22.934z" fill="#a79ba7" data-original="#a79ba7" style=""/><path d="m394.99 354.817-14.285-8.248c-5.025-2.901-7.763-8.587-6.866-14.319 1.387-8.863 2.111-17.945 2.111-27.197s-.724-18.334-2.111-27.196c-.897-5.732 1.842-11.418 6.866-14.319l14.285-8.247c6.733-3.887 9.04-12.497 5.153-19.23l-39.814-68.96c-3.887-6.733-12.497-9.04-19.23-5.153l-10.987 6.344 39.126 67.769c3.887 6.733 1.58 15.343-5.153 19.23l-14.285 8.247c-5.025 2.901-7.763 8.587-6.866 14.319 1.387 8.862 2.111 17.944 2.111 27.196s-.724 18.334-2.111 27.197c-.897 5.732 1.842 11.418 6.866 14.319l14.285 8.248c6.733 3.887 9.04 12.497 5.153 19.23l-39.126 67.769 10.987 6.344c6.733 3.887 15.343 1.58 19.23-5.153l39.814-68.96c3.887-6.733 1.58-15.343-5.153-19.23z" fill="#a79ba7" data-original="#a79ba7" style=""/></g><g><g><path d="m224.674 398.259c-3.418 0-6.542-2.284-7.462-5.743-1.097-4.124 1.358-8.356 5.482-9.452 8.152-2.168 15.541-5.776 21.961-10.726 19.578-15.096 24.001-38.015 24.994-47.169.46-4.241 4.264-7.308 8.514-6.848 4.242.46 7.309 4.272 6.848 8.514-1.206 11.123-6.634 39.014-30.922 57.74-8.052 6.209-17.28 10.725-27.426 13.422-.664.178-1.332.262-1.989.262z" fill="#d0b0ed" data-original="#918291" style="" class=""/></g><path d="m214.366 403.684h-16.725c-7.613 0-13.784-6.171-13.784-13.784 0-7.613 6.171-13.784 13.784-13.784h16.725c7.613 0 13.784 6.171 13.784 13.784 0 7.613-6.171 13.784-13.784 13.784z" fill="#9758d0" data-original="#7a6d79" style="" class=""/><g><path d="m282.955 314.56c-4.268 0-7.726-3.459-7.726-7.726v-18.47c0-40.921-33.292-74.213-74.212-74.213-40.922 0-74.213 33.292-74.213 74.213v18.47c0 4.267-3.459 7.726-7.726 7.726-4.268 0-7.726-3.459-7.726-7.726v-18.47c0-49.442 40.223-89.666 89.665-89.666s89.666 40.224 89.666 89.666v18.47c-.002 4.267-3.461 7.726-7.728 7.726z" fill="#d0b0ed" data-original="#918291" style="" class=""/></g><g fill="#7a6d79"><path d="m288.047 352.936h-15.076c-2.845 0-5.151-2.306-5.151-5.151v-35.8c0-2.845 2.306-5.151 5.151-5.151h15.076c5.547 0 10.043 4.496 10.043 10.043v26.016c0 5.546-4.496 10.043-10.043 10.043z" fill="#9758d0" data-original="#7a6d79" style="" class=""/><path d="m113.984 352.936h15.076c2.845 0 5.151-2.306 5.151-5.151v-35.8c0-2.845-2.306-5.151-5.151-5.151h-15.076c-5.547 0-10.043 4.496-10.043 10.043v26.016c0 5.546 4.496 10.043 10.043 10.043z" fill="#9758d0" data-original="#7a6d79" style="" class=""/></g></g></g><g><path d="m512 112.545c0-62.708-51.286-113.438-114.203-112.533-60.944.877-110.5 50.857-110.885 111.806-.216 34.133 14.768 64.767 38.577 85.545 2.513 2.193 2.151 6.195-.719 7.893l-21.207 12.547c-3.428 2.028-1.989 7.285 1.994 7.284l96.03-.023c61.172-1.138 110.413-51.074 110.413-112.519z" fill="#9758d0" data-original="#8795de" style="" class=""/></g><path d="m433.679 5.305c28.693 20.397 47.415 53.903 47.415 91.787 0 61.444-49.241 111.381-110.413 112.518l-53.294.013-13.824 8.179c-3.429 2.028-1.989 7.285 1.994 7.284l96.03-.024c61.172-1.136 110.413-51.073 110.413-112.517 0-50.223-32.899-92.756-78.321-107.24z" fill="#8247b7" data-original="#6c7fd8" style="" class=""/><g fill="#fff"><circle cx="399.455" cy="112.543" r="17.214" fill="#ffffff" data-original="#ffffff" style=""/><circle cx="464.788" cy="112.543" r="17.214" fill="#ffffff" data-original="#ffffff" style=""/><circle cx="334.122" cy="112.543" r="17.214" fill="#ffffff" data-original="#ffffff" style=""/></g></g></g></svg>
