<?xml version="1.0"?>
<svg xmlns="http://www.w3.org/2000/svg" xmlns:xlink="http://www.w3.org/1999/xlink" xmlns:svgjs="http://svgjs.com/svgjs" version="1.1" width="512" height="512" x="0" y="0" viewBox="0 0 512 512" style="enable-background:new 0 0 512 512" xml:space="preserve" class=""><g>
<g xmlns="http://www.w3.org/2000/svg">
	<path style="" d="M512,52.966v229.517c-0.029,9.739-7.916,17.627-17.655,17.655H141.241V52.966H512z" fill="#e5e5e5" data-original="#a5a5a4" class=""/>
	<g>
		<path style="" d="M194.207,97.103h158.897c9.751,0,17.655,7.904,17.655,17.655v97.103    c0,9.751-7.904,17.655-17.655,17.655H194.207c-9.751,0-17.655-7.904-17.655-17.655v-97.103    C176.552,105.008,184.456,97.103,194.207,97.103z" fill="#ffffff" data-original="#d1d4d1" class=""/>
		<path style="" d="M17.655,264.828h335.448c9.751,0,17.655,7.904,17.655,17.655v211.862    c0,9.751-7.904,17.655-17.655,17.655H17.655C7.904,512,0,504.095,0,494.345V282.483C0,272.732,7.904,264.828,17.655,264.828z" fill="#4c8056" data-original="#4c8056"/>
	</g>
	<path style="" d="M335.448,344.276v88.276c-24.373,0.009-44.129,19.765-44.138,44.138H79.448   c-0.009-24.373-19.765-44.129-44.138-44.138v-88.276c24.373-0.009,44.129-19.765,44.138-44.138H291.31   C291.319,324.511,311.075,344.267,335.448,344.276z" fill="#71c285" data-original="#71c285"/>
	<g>
		<path style="" d="M194.207,380.683v-25.682c4.913,1.722,8.365,6.158,8.828,11.343c0,4.875,3.952,8.828,8.828,8.828    c4.875,0,8.828-3.952,8.828-8.828c-0.789-14.897-11.781-27.266-26.483-29.8v-9.925c0-4.875-3.952-8.828-8.828-8.828    c-4.875,0-8.828,3.952-8.828,8.828v9.925c-15.104,1.786-26.483,14.59-26.483,29.8c0,15.209,11.379,28.013,26.483,29.8v25.682    c-4.913-1.722-8.365-6.158-8.828-11.343c0-4.875-3.952-8.828-8.828-8.828s-8.828,3.952-8.828,8.828    c0.789,14.897,11.781,27.266,26.483,29.8v9.925c0,4.875,3.952,8.828,8.828,8.828c4.875,0,8.828-3.952,8.828-8.828v-9.925    c15.104-1.786,26.483-14.59,26.483-29.8C220.69,395.274,209.311,382.47,194.207,380.683z M167.724,366.345    c0.463-5.185,3.915-9.621,8.828-11.343v22.687C171.639,375.966,168.187,371.53,167.724,366.345z M194.207,421.826v-22.687    c5.192,1.315,8.829,5.987,8.829,11.343S199.399,420.511,194.207,421.826z" fill="#ffffff" data-original="#e6e7e8" class=""/>
		<g>
			<path style="" d="M406.069,105.931h70.621c4.875,0,8.828-3.952,8.828-8.828s-3.952-8.828-8.828-8.828h-70.621     c-4.875,0-8.828,3.952-8.828,8.828S401.194,105.931,406.069,105.931z" fill="#ffffff" data-original="#d1d4d1" class=""/>
			<path style="" d="M476.69,123.586h-70.621c-4.875,0-8.828,3.952-8.828,8.828s3.952,8.828,8.828,8.828h70.621     c4.875,0,8.828-3.952,8.828-8.828S481.565,123.586,476.69,123.586z" fill="#ffffff" data-original="#d1d4d1" class=""/>
			<path style="" d="M476.69,158.897h-70.621c-4.875,0-8.828,3.952-8.828,8.828s3.952,8.828,8.828,8.828h70.621     c4.875,0,8.828-3.952,8.828-8.828S481.565,158.897,476.69,158.897z" fill="#ffffff" data-original="#d1d4d1" class=""/>
			<path style="" d="M476.69,194.207h-70.621c-4.875,0-8.828,3.952-8.828,8.828s3.952,8.828,8.828,8.828h70.621     c4.875,0,8.828-3.952,8.828-8.828S481.565,194.207,476.69,194.207z" fill="#ffffff" data-original="#d1d4d1" class=""/>
			<path style="" d="M476.69,229.517h-70.621c-4.875,0-8.828,3.952-8.828,8.828c0,4.875,3.952,8.828,8.828,8.828     h70.621c4.875,0,8.828-3.952,8.828-8.828C485.517,233.469,481.565,229.517,476.69,229.517z" fill="#ffffff" data-original="#d1d4d1" class=""/>
		</g>
		<g>
			<path style="" d="M35.31,317.793c-2.341,0.001-4.587-0.929-6.243-2.585c-1.656-1.656-2.585-3.901-2.585-6.243     v-8.828c0-4.875,3.952-8.828,8.828-8.828s8.828,3.952,8.828,8.828v8.828c0.001,2.341-0.929,4.587-2.585,6.243     C39.897,316.864,37.652,317.794,35.31,317.793z" fill="#71c285" data-original="#71c285"/>
			<path style="" d="M35.31,485.517c-2.341,0.001-4.587-0.929-6.243-2.585c-1.656-1.656-2.585-3.901-2.585-6.243     v-8.828c0-4.875,3.952-8.828,8.828-8.828s8.828,3.952,8.828,8.828v8.828c0.001,2.341-0.929,4.587-2.585,6.243     C39.897,484.588,37.652,485.518,35.31,485.517z" fill="#71c285" data-original="#71c285"/>
			<path style="" d="M335.448,317.793c-2.341,0.001-4.587-0.929-6.243-2.585c-1.656-1.656-2.585-3.901-2.585-6.243     v-8.828c0-4.875,3.952-8.828,8.828-8.828s8.828,3.952,8.828,8.828v8.828c0.001,2.341-0.929,4.587-2.585,6.243     C340.035,316.864,337.79,317.794,335.448,317.793z" fill="#71c285" data-original="#71c285"/>
			<path style="" d="M335.448,485.517c-2.341,0.001-4.587-0.929-6.243-2.585c-1.656-1.656-2.585-3.901-2.585-6.243     v-8.828c0-4.875,3.952-8.828,8.828-8.828s8.828,3.952,8.828,8.828v8.828c0.001,2.341-0.929,4.587-2.585,6.243     C340.035,484.588,337.79,485.518,335.448,485.517z" fill="#71c285" data-original="#71c285"/>
		</g>
		<g>
			<path style="" d="M0,176.552v-44.138c0.029-24.365,19.773-44.109,44.138-44.138h17.655V61.793l44.138,44.138     l-44.138,44.138v-26.483H44.138c-4.873,0.005-8.823,3.954-8.828,8.828v44.138c0,9.751-7.904,17.655-17.655,17.655     S0,186.302,0,176.552z" fill="#9e4bcd" data-original="#4482c3" class=""/>
			<path style="" d="M512,370.759v44.138c-0.029,24.365-19.773,44.109-44.138,44.138h-17.655v26.483l-44.138-44.138     l44.138-44.138v26.483h17.655c4.873-0.005,8.823-3.954,8.828-8.828v-44.138c0-9.751,7.904-17.655,17.655-17.655     S512,361.008,512,370.759z" fill="#9e4bcd" data-original="#4482c3" class=""/>
		</g>
	</g>
	<path style="" d="M512,17.655v44.138H141.241V17.655C141.27,7.916,149.158,0.028,158.897,0h335.448   C504.084,0.028,511.972,7.916,512,17.655z" fill="#9e4bcd" data-original="#35495e" class=""/>
	<g>
		<path style="" d="M476.69,44.138h-8.828c-4.875,0-8.828-3.952-8.828-8.828s3.952-8.828,8.828-8.828h8.828    c4.875,0,8.828,3.952,8.828,8.828S481.565,44.138,476.69,44.138z" fill="#cc4b4c" data-original="#cc4b4c" class=""/>
		<path style="" d="M432.552,44.138h-8.828c-4.875,0-8.828-3.952-8.828-8.828s3.952-8.828,8.828-8.828h8.828    c4.875,0,8.828,3.952,8.828,8.828S437.427,44.138,432.552,44.138z" fill="#71c285" data-original="#71c285"/>
	</g>
</g>
<g xmlns="http://www.w3.org/2000/svg">
</g>
<g xmlns="http://www.w3.org/2000/svg">
</g>
<g xmlns="http://www.w3.org/2000/svg">
</g>
<g xmlns="http://www.w3.org/2000/svg">
</g>
<g xmlns="http://www.w3.org/2000/svg">
</g>
<g xmlns="http://www.w3.org/2000/svg">
</g>
<g xmlns="http://www.w3.org/2000/svg">
</g>
<g xmlns="http://www.w3.org/2000/svg">
</g>
<g xmlns="http://www.w3.org/2000/svg">
</g>
<g xmlns="http://www.w3.org/2000/svg">
</g>
<g xmlns="http://www.w3.org/2000/svg">
</g>
<g xmlns="http://www.w3.org/2000/svg">
</g>
<g xmlns="http://www.w3.org/2000/svg">
</g>
<g xmlns="http://www.w3.org/2000/svg">
</g>
<g xmlns="http://www.w3.org/2000/svg">
</g>
</g></svg>
