<svg id="icon" height="512" viewBox="0 0 128 128" width="512" xmlns="http://www.w3.org/2000/svg"><path d="m126.9 63.562a24.9 24.9 0 0 0 -18.127-23.18c.033-.675.047-1.355.026-2.042a24.887 24.887 0 0 0 -43.678-15.523 22.575 22.575 0 0 0 -30.591 7.847 18.466 18.466 0 0 0 -24.643 24.443 18.459 18.459 0 0 0 19.18 31.545 18.594 18.594 0 0 0 3.306 3.06h21.608c.25-.181.5-.358.744-.551.122.188.254.368.382.551h32.666a19.82 19.82 0 0 0 2.027-3.683 24.9 24.9 0 0 0 37.1-22.467z" fill="#f0f5f9"/><path d="m28.348 89.035a5.741 5.741 0 0 0 .673-.34c.1.119.209.226.313.34h36.947a19.93 19.93 0 0 1 -11.826-8.483 18.443 18.443 0 0 1 -25.655-2.505 18.46 18.46 0 0 1 -27.335-10.954 18.266 18.266 0 0 0 -.372 4.328 18.465 18.465 0 0 0 15.321 17.614z" fill="#d9e2e9"/><path d="m126.906 63.566a25.323 25.323 0 0 0 -.511-4.312c-1.662 11.755-12.843 23.978-25.122 24.364-4.718.148-25.023 1.164-28.86-1 .372 5.416 8.975 5.344 4.538 6.418h28.18a24.887 24.887 0 0 0 21.775-25.47z" fill="#d9e2e9"/><g fill="#2f3a5a"><path d="m19.527 90.3a19.465 19.465 0 0 1 -19.436-18.85 19.523 19.523 0 0 1 8.541-16.722 19.465 19.465 0 0 1 25.516-25.328 23.576 23.576 0 0 1 30.761-7.842 25.97 25.97 0 0 1 18.2-8.312 25.891 25.891 0 0 1 26.691 25.063c.013.427.014.869 0 1.336a25.894 25.894 0 0 1 -6.967 50.578c-2.593.083-26.366.064-47.337.048-17.423-.013-33.876-.027-35.346.019-.205.01-.415.01-.623.01zm7.141-60.4c-.189 0-.379 0-.569.008a17.469 17.469 0 0 0 -15.299 24.779 1 1 0 0 1 -.384 1.271 17.459 17.459 0 0 0 -2.826 27.61 17.192 17.192 0 0 0 12.5 4.723c1.5-.045 17.216-.035 35.409-.02 20.959.015 44.711.034 47.273-.047a23.894 23.894 0 0 0 5.73-46.879 1 1 0 0 1 -.728-1.014c.037-.713.045-1.354.027-1.96a23.887 23.887 0 0 0 -41.927-14.9 1 1 0 0 1 -1.256.21 21.574 21.574 0 0 0 -29.235 7.5 1 1 0 0 1 -1.282.384 17.243 17.243 0 0 0 -7.433-1.665z"/><path d="m31.262 44.087a1 1 0 0 1 -1-.969 23.585 23.585 0 0 1 42.361-15 1 1 0 0 1 -1.592 1.211 21.585 21.585 0 0 0 -38.769 13.727 1 1 0 0 1 -.968 1.03z"/><path d="m14.338 62.115a1 1 0 0 1 -.667-.255 19.461 19.461 0 0 1 12.365-33.955 1 1 0 0 1 .063 2 17.461 17.461 0 0 0 -11.094 30.465 1 1 0 0 1 -.667 1.745z"/></g><path d="m70.752 95.688h-36.029l-4.835-31.738h45.699z" fill="#dbe2eb"/><path d="m21.653 60.574 9.382 37.626h43.924l9.383-37.629zm18.668 32.526a1.411 1.411 0 0 1 -1.564 1.511 2.05 2.05 0 0 1 -2.04-1.511l-3.987-22.827a1.942 1.942 0 0 1 1.87-2.43 2.81 2.81 0 0 1 2.616 2.43zm9.652 0a1.594 1.594 0 0 1 -1.727 1.511 1.8 1.8 0 0 1 -1.877-1.511l-1.623-22.827a2.181 2.181 0 0 1 2.113-2.43 2.47 2.47 0 0 1 2.373 2.43zm9.652 0a1.8 1.8 0 0 1 -1.883 1.511 1.6 1.6 0 0 1 -1.727-1.511l.739-22.824a2.475 2.475 0 0 1 2.373-2.43 2.182 2.182 0 0 1 2.121 2.43zm9.652 0a2.055 2.055 0 0 1 -2.039 1.511 1.413 1.413 0 0 1 -1.571-1.511l3.1-22.824a2.811 2.811 0 0 1 2.625-2.43 1.947 1.947 0 0 1 1.87 2.43z" fill="#b0b3c1"/><path d="m84.343 60.574h-62.693l9.382 37.626h3.233l-8.544-34.25h57.784z" fill="#9297ab"/><path d="m21.653 60.574 9.382 37.626h43.924l9.383-37.629zm18.668 32.526a1.411 1.411 0 0 1 -1.564 1.511 2.05 2.05 0 0 1 -2.04-1.511l-3.987-22.827a1.942 1.942 0 0 1 1.87-2.43 2.81 2.81 0 0 1 2.616 2.43zm9.652 0a1.594 1.594 0 0 1 -1.727 1.511 1.8 1.8 0 0 1 -1.877-1.511l-1.623-22.827a2.181 2.181 0 0 1 2.113-2.43 2.47 2.47 0 0 1 2.373 2.43zm9.652 0a1.8 1.8 0 0 1 -1.883 1.511 1.6 1.6 0 0 1 -1.727-1.511l.739-22.824a2.475 2.475 0 0 1 2.373-2.43 2.182 2.182 0 0 1 2.121 2.43zm9.652 0a2.055 2.055 0 0 1 -2.039 1.511 1.413 1.413 0 0 1 -1.571-1.511l3.1-22.824a2.811 2.811 0 0 1 2.625-2.43 1.947 1.947 0 0 1 1.87 2.43z" fill="none" stroke="#2f3a5a" stroke-linecap="round" stroke-linejoin="round" stroke-width="2"/><path d="m71.245 108.17h-27.474a1 1 0 0 1 0-2h27.474a4.253 4.253 0 0 0 3.007-7.26 1 1 0 0 1 1.414-1.41 6.252 6.252 0 0 1 -4.421 10.674z" fill="#2f3a5a"/><path d="m84.343 61.574a1.022 1.022 0 0 1 -.256-.033 1 1 0 0 1 -.712-1.222l2.735-10.359a1 1 0 0 1 .967-.745h13.361a1 1 0 1 1 0 2h-12.59l-2.539 9.614a1 1 0 0 1 -.966.745z" fill="#2f3a5a"/><path d="m40.817 101.581a6.094 6.094 0 1 0 6.095 6.094 6.094 6.094 0 0 0 -6.095-6.094z" fill="#84879c"/><path d="m40.817 105.026a2.649 2.649 0 1 0 2.649 2.649 2.649 2.649 0 0 0 -2.649-2.649z" fill="#d9e2e9"/><path d="m40.817 114.77a7.095 7.095 0 1 1 7.095-7.095 7.1 7.1 0 0 1 -7.095 7.095zm0-12.189a5.095 5.095 0 1 0 5.095 5.094 5.1 5.1 0 0 0 -5.095-5.094z" fill="#2f3a5a"/><path d="m61.255 101.581a6.094 6.094 0 1 0 6.094 6.094 6.094 6.094 0 0 0 -6.094-6.094z" fill="#84879c"/><path d="m61.255 105.026a2.649 2.649 0 1 0 2.648 2.649 2.649 2.649 0 0 0 -2.648-2.649z" fill="#d9e2e9"/><path d="m61.255 114.77a7.095 7.095 0 1 1 7.095-7.095 7.1 7.1 0 0 1 -7.095 7.095zm0-12.189a5.095 5.095 0 1 0 5.095 5.094 5.1 5.1 0 0 0 -5.095-5.094z" fill="#2f3a5a"/><path d="m104.444 48.308h-14.158v3.813h14.158a1.907 1.907 0 0 0 0-3.813z" fill="#ef5361"/><path d="m104.443 53.121h-14.157a1 1 0 0 1 -1-1v-3.813a1 1 0 0 1 1-1h14.157a2.907 2.907 0 1 1 0 5.813zm-13.157-2h13.157a.907.907 0 1 0 0-1.813h-13.157z" fill="#2f3a5a"/></svg>