<?xml version="1.0"?>
<svg xmlns="http://www.w3.org/2000/svg" xmlns:xlink="http://www.w3.org/1999/xlink" xmlns:svgjs="http://svgjs.com/svgjs" version="1.1" width="512" height="512" x="0" y="0" viewBox="0 0 512 512" style="enable-background:new 0 0 512 512" xml:space="preserve" class=""><g><g xmlns="http://www.w3.org/2000/svg"><g><path d="m497 421h-391c-8.291 0-15-6.709-15-15 0-8.276-6.738-15-15-15-8.291 0-15-6.709-15-15v-30c0-8.291 6.709-15 15-15h287.578c4.512-12.773 14.648-22.91 27.422-27.437v-35.127c-17.461-6.196-30-22.881-30-42.437s12.539-36.24 30-42.437v-17.562c0-8.291 6.709-15 15-15h91c6.943 0 13.008 4.79 14.59 11.558 1.611 6.768-1.67 13.755-7.881 16.86-6.357 3.179-10.166 9.375-10.166 16.582s3.809 13.403 10.166 16.582c5.068 2.549 8.291 7.734 8.291 13.418s-3.223 10.869-8.291 13.418c-6.357 3.179-10.166 9.375-10.166 16.582s3.809 13.403 10.166 16.582c5.068 2.549 8.291 7.734 8.291 13.418s-3.223 10.869-8.291 13.418c-6.357 3.179-10.166 9.375-10.166 16.582s3.809 13.403 10.166 16.582c5.068 2.549 8.291 7.734 8.291 13.418s-3.223 10.869-8.291 13.418c-6.357 3.179-10.166 9.375-10.166 16.582s3.809 13.403 10.166 16.582c6.211 3.105 9.492 10.093 7.881 16.86-1.582 6.768-7.647 11.558-14.59 11.558z" fill="#ffea80" data-original="#ffea80" style=""/></g><path d="m503.709 239.418c5.068-2.549 8.291-7.734 8.291-13.418s-3.223-10.869-8.291-13.418c-6.357-3.179-10.166-9.375-10.166-16.582s3.809-13.403 10.166-16.582c6.211-3.105 9.492-10.093 7.881-16.86-1.582-6.768-7.647-11.558-14.59-11.558h-91c-8.291 0-15 6.709-15 15v17.563c-17.461 6.196-30 22.881-30 42.437s12.539 36.24 30 42.437v35.127c-12.773 4.526-22.91 14.663-27.422 27.437h-107.578v90h241c6.943 0 13.008-4.79 14.59-11.558 1.611-6.768-1.67-13.755-7.881-16.86-6.357-3.179-10.166-9.375-10.166-16.582s3.809-13.403 10.166-16.582c5.068-2.55 8.291-7.735 8.291-13.419s-3.223-10.869-8.291-13.418c-6.357-3.179-10.166-9.375-10.166-16.582s3.809-13.403 10.166-16.582c5.068-2.549 8.291-7.734 8.291-13.418s-3.223-10.869-8.291-13.418c-6.357-3.179-10.166-9.375-10.166-16.582s3.809-13.403 10.166-16.582z" fill="#ffcf40" data-original="#ffcf40" style=""/><g><path d="m406 211c8.401 0 15-6.601 15-15v-60c0-8.401-6.599-15-15-15s-15-6.601-15-15c0-8.401-6.599-15-15-15h-255l-15 60-15-60h-75.942c-6.899 0-12.9 4.799-14.7 11.7-1.5 6.599 1.8 13.499 8.101 16.8 6.299 2.999 10.199 9.3 10.199 16.5s-3.9 13.5-10.199 16.5c-5.101 2.701-8.401 7.8-8.401 13.5s3.3 10.8 8.401 13.5c6.299 2.999 10.199 9.3 10.199 16.5s-3.9 13.5-10.199 16.5c-5.101 2.701-8.401 7.8-8.401 13.5s3.3 10.8 8.401 13.5c6.299 2.999 10.199 9.3 10.199 16.5s-3.9 13.5-10.199 16.5c-5.101 2.701-8.401 7.8-8.401 13.5s3.3 10.8 8.401 13.5c6.299 2.999 10.199 9.3 10.199 16.5s-3.9 13.5-10.199 16.5c-6.301 3.3-9.6 10.201-8.101 16.8 1.8 6.899 7.8 11.7 14.7 11.7h75.942l15-30 15 30h255c8.401 0 15-6.601 15-15 0-8.401 6.599-15 15-15s15-6.601 15-15v-60c0-8.401-6.599-15-15-15s-15-6.601-15-15c0-8.401 6.599-15 15-15z" fill="#d69bf7" data-original="#f26178" style="" class=""/></g><path d="m256 361h120c8.401 0 15-6.601 15-15 0-8.401 6.599-15 15-15s15-6.601 15-15v-60c0-8.401-6.599-15-15-15s-15-6.601-15-15c0-8.401 6.599-15 15-15s15-6.601 15-15v-60c0-8.401-6.599-15-15-15s-15-6.601-15-15c0-8.401-6.599-15-15-15h-120z" fill="#9e4bcd" data-original="#d9415a" style="" class=""/><g id="Ticket_1_"><g><path d="m121 91v60c0 8.399-6.599 15-15 15s-15-6.601-15-15v-60z" fill="#642d83" data-original="#4d2e2e" style="" class=""/></g><g><path d="m121 301v60h-30v-60c0-8.401 6.599-15 15-15s15 6.599 15 15z" fill="#642d83" data-original="#4d2e2e" style="" class=""/></g><g><path d="m106 256c-8.291 0-15-6.709-15-15v-30c0-8.291 6.709-15 15-15s15 6.709 15 15v30c0 8.291-6.709 15-15 15z" fill="#642d83" data-original="#4d2e2e" style="" class=""/></g><g><path d="m284.301 293.544-28.301-14.868-28.301 14.868c-5.039 2.651-11.162 2.241-15.791-1.143-4.629-3.354-6.943-9.038-5.977-14.663l5.42-31.509-22.881-22.31c-4.102-3.984-5.566-9.946-3.809-15.366 1.758-5.435 6.475-9.39 12.1-10.21l31.641-4.6 14.15-28.652c5.039-10.254 21.855-10.254 26.895 0l14.15 28.652 31.641 4.6c5.625.82 10.342 4.775 12.1 10.21 1.758 5.42.293 11.382-3.809 15.366l-22.881 22.31 5.42 31.509c.967 5.625-1.348 11.309-5.977 14.663-4.458 3.257-10.574 3.89-15.79 1.143z" fill="#ffcf40" data-original="#ffcf40" style=""/></g></g><path d="m284.301 293.544c5.217 2.747 11.332 2.113 15.791-1.143 4.629-3.354 6.943-9.038 5.977-14.663l-5.42-31.509 22.881-22.31c4.102-3.984 5.566-9.946 3.809-15.366-1.758-5.435-6.475-9.39-12.1-10.21l-31.641-4.6-14.15-28.652c-2.52-5.127-7.983-7.69-13.447-7.69v121.274z" fill="#ffaf40" data-original="#ffaf40" style=""/></g></g></svg>
