<svg id="icon" height="512" viewBox="0 0 128 128" width="512" xmlns="http://www.w3.org/2000/svg"><path d="m107.263 45.58a22.091 22.091 0 0 0 -33.806-25.318 23.891 23.891 0 0 0 -44.6 10.624 29.753 29.753 0 1 0 19.623 53.591 17.576 17.576 0 0 0 25.405-2.377 16.357 16.357 0 0 0 23.985 1.215 19.978 19.978 0 1 0 9.393-37.735z" fill="#f0f5f9"/><path d="m125.684 58.419a19.97 19.97 0 0 1 -29.084 16.386 16.352 16.352 0 0 1 -23.992-1.217 17.566 17.566 0 0 1 -25.4 2.38 29.764 29.764 0 0 1 -46.208-15.235 29.762 29.762 0 0 0 47.48 23.749 17.593 17.593 0 0 0 25.41-2.391 16.355 16.355 0 0 0 23.982 1.229 19.983 19.983 0 0 0 27.812-24.9z" fill="#c1cdd3"/><path d="m30.757 91.331a30.753 30.753 0 0 1 -2.835-61.376 24.889 24.889 0 0 1 45.84-11.122 22.913 22.913 0 0 1 12.683-3.812 23.152 23.152 0 0 1 23.125 23.126 22.9 22.9 0 0 1 -.949 6.494 20.981 20.981 0 0 1 -1.607 41.9 20.707 20.707 0 0 1 -8.967-2.024 17.353 17.353 0 0 1 -24.137-.9 18.571 18.571 0 0 1 -25.473 2.122 30.5 30.5 0 0 1 -17.68 5.592zm21.961-82.1a22.9 22.9 0 0 0 -22.861 21.707 1 1 0 0 1 -.935.946 28.753 28.753 0 1 0 18.962 51.79 1 1 0 0 1 1.254.05 16.577 16.577 0 0 0 23.962-2.247 1 1 0 0 1 .771-.381.974.974 0 0 1 .781.358 15.356 15.356 0 0 0 22.519 1.146 1 1 0 0 1 1.157-.173 18.761 18.761 0 0 0 8.686 2.116 18.981 18.981 0 0 0 .236-37.961 1 1 0 0 1 -.929-1.337 21.092 21.092 0 0 0 -32.276-24.175 1 1 0 0 1 -1.456-.31 22.992 22.992 0 0 0 -19.871-11.529z" fill="#2f3a5a"/><rect fill="#9297ab" height="70.643" rx="5.392" width="44.279" x="39.691" y="52.507"/><path d="m83.973 57.9v59.858a5.4 5.4 0 0 1 -5.4 5.4h-33.49a5.381 5.381 0 0 1 -4.929-3.214 4.884 4.884 0 0 0 1.011.1h33.495a5.386 5.386 0 0 0 5.4-5.386v-59.858a5.355 5.355 0 0 0 -.466-2.192 5.4 5.4 0 0 1 4.379 5.292z" fill="#84879c"/><path d="m78.578 124.15h-33.5a6.4 6.4 0 0 1 -6.393-6.392v-59.858a6.4 6.4 0 0 1 6.393-6.392h33.5a6.4 6.4 0 0 1 6.391 6.392v59.859a6.4 6.4 0 0 1 -6.391 6.391zm-33.5-70.643a4.4 4.4 0 0 0 -4.388 4.393v59.859a4.4 4.4 0 0 0 4.393 4.392h33.5a4.4 4.4 0 0 0 4.391-4.392v-59.859a4.4 4.4 0 0 0 -4.391-4.392z" fill="#2f3a5a"/><circle cx="54.027" cy="84.721" fill="#84879c" r="6.285"/><circle cx="69.633" cy="84.721" fill="#84879c" r="6.285"/><path d="m46.409 59.051h30.843v14.751h-30.843z" fill="#5fc4f8"/><path d="m77.248 59.05v14.749h-3.134v-11.853h-27.702v-2.896z" fill="#3dbce9"/><path d="m77.251 74.8h-30.842a1 1 0 0 1 -1-1v-14.749a1 1 0 0 1 1-1h30.842a1 1 0 0 1 1 1v14.749a1 1 0 0 1 -1 1zm-29.842-2h28.842v-12.749h-28.842z" fill="#2f3a5a"/><path d="m54.027 80.832a3.889 3.889 0 1 0 3.889 3.889 3.889 3.889 0 0 0 -3.889-3.889z" fill="#707583"/><path d="m54.027 89.61a4.889 4.889 0 1 1 4.889-4.889 4.894 4.894 0 0 1 -4.889 4.889zm0-7.777a2.889 2.889 0 1 0 2.889 2.888 2.891 2.891 0 0 0 -2.889-2.888z" fill="#2f3a5a"/><path d="m69.633 80.832a3.889 3.889 0 1 0 3.889 3.889 3.889 3.889 0 0 0 -3.889-3.889z" fill="#707583"/><path d="m69.633 89.61a4.889 4.889 0 1 1 4.889-4.889 4.894 4.894 0 0 1 -4.889 4.889zm0-7.777a2.889 2.889 0 1 0 2.889 2.888 2.891 2.891 0 0 0 -2.889-2.888z" fill="#2f3a5a"/><g fill="#707583"><path d="m74.9 99.438h-26.139a1 1 0 0 1 0-2h26.139a1 1 0 0 1 0 2z"/><path d="m74.9 105.98h-26.139a1 1 0 0 1 0-2h26.139a1 1 0 0 1 0 2z"/><path d="m74.9 112.522h-26.139a1 1 0 0 1 0-2h26.139a1 1 0 0 1 0 2z"/></g><path d="m74.759 33.5a2.318 2.318 0 0 0 -4.633 0l-.493 19.008h5.619z" fill="#9297ab"/><path d="m75.252 53.507h-5.619a1 1 0 0 1 -1-1.026l.494-19.007a3.318 3.318 0 0 1 6.631-.012v.012l.494 19.007a1 1 0 0 1 -1 1.026zm-4.593-2h3.567l-.467-17.975a1.318 1.318 0 0 0 -2.633.005z" fill="#2f3a5a"/><path d="m51.061 46.055h6.452v6.452h-6.452z" fill="#9297ab"/><path d="m57.513 53.507h-6.452a1 1 0 0 1 -1-1v-6.452a1 1 0 0 1 1-1h6.452a1 1 0 0 1 1 1v6.452a1 1 0 0 1 -1 1zm-5.452-2h4.452v-4.452h-4.452z" fill="#2f3a5a"/><path d="m86.964 68.786h-3v12.046h3a1.345 1.345 0 0 0 1.345-1.344v-9.357a1.345 1.345 0 0 0 -1.345-1.345z" fill="#84879c"/><path d="m86.964 81.832h-3a1 1 0 0 1 -1-1v-12.045a1 1 0 0 1 1-1h3a2.347 2.347 0 0 1 2.345 2.344v9.357a2.347 2.347 0 0 1 -2.345 2.344zm-2-2h2a.345.345 0 0 0 .345-.344v-9.357a.345.345 0 0 0 -.345-.344h-2z" fill="#2f3a5a"/></svg>